<svg height="10.909088pt" viewBox="70.734745 60.560401 57.656646 10.909088" width="57.656646pt" xmlns="http://www.w3.org/2000/svg" xmlns:xlink="http://www.w3.org/1999/xlink"><defs><path id="a" d="m2.214545-.010909c0-.72-.272727-1.145454-.698182-1.145454-.36 0-.578181.272727-.578181.578181 0 .294546.218181.578182.578181.578182.130909 0 .272727-.043636.381818-.141818.032728-.021818.043637-.032727.054546-.032727s.021818.010909.021818.163636c0 .807272-.381818 1.461818-.741818 1.821818-.12.12-.12.141818-.12.174545 0 .076364.054545.12.109091.12.12 0 .992727-.84.992727-2.116363z"/></defs><path d="m.490909 1.330909c-.087273.370909-.109091.447272-.589091.447272-.130909 0-.250909 0-.250909.207273 0 .087273.054546.130909.141818.130909.294546 0 .610909-.032727.916364-.032727.36 0 .730909.032727 1.079999.032727.054546 0 .196364 0 .196364-.218182 0-.12-.109091-.12-.261818-.12-.545455 0-.545455-.076363-.545455-.174545 0-.130909.458182-1.90909.534546-2.181818.141818.316364.447272.698182 1.003636.698182 1.265454 0 2.62909-1.592727 2.62909-3.196363 0-1.025454-.621818-1.745454-1.450909-1.745454-.545454 0-1.06909.392727-1.42909.818182-.109091-.589091-.578182-.818182-.981818-.818182-.501818 0-.709091.425455-.807273.621818-.196363.370909-.338181 1.025454-.338181 1.058182 0 .109091.109091.109091.130909.109091.109091 0 .12-.01091.185454-.250909.185455-.774546.403637-1.298182.796364-1.298182.185454 0 .338181.087273.338181.501818 0 .250909-.032727.370909-.076363.556364zm1.919999-4.734544c.076364-.294546.370909-.6.567273-.763637.381818-.338181.698182-.414545.883636-.414545.436364 0 .698182.381818.698182 1.025454s-.36 1.898182-.556364 2.312727c-.370909.763636-.894545 1.123636-1.298181 1.123636-.72 0-.861818-.905454-.861818-.970909 0-.021818 0-.043636.032727-.174545z" transform="translate(70.734745 68.742217)"/><path d="m3.610908 2.618181c0-.032727 0-.054545-.185454-.24-1.363636-1.374545-1.712727-3.436363-1.712727-5.105453 0-1.898181.414545-3.796363 1.756363-5.159999.141818-.130909.141818-.152727.141818-.185454 0-.076364-.043636-.109091-.109091-.109091-.109091 0-1.090909.741818-1.734545 2.127272-.556363 1.2-.687272 2.410909-.687272 3.327272 0 .850909.12 2.170909.719999 3.403635.654546 1.341818 1.592727 2.050909 1.701818 2.050909.065455 0 .109091-.032727.109091-.109091z" transform="translate(76.223392 68.742217)"/><path d="m5.290908-4.483635-.916364-2.170909c-.032727-.087272-.054545-.130909-.054545-.141818 0-.065454.185454-.272727.643636-.316363.109091-.010909.218182-.021818.218182-.207273 0-.130909-.130909-.130909-.163637-.130909-.447272 0-.916363.032727-1.374545.032727-.272727 0-.94909-.032727-1.221817-.032727-.065455 0-.196364 0-.196364.218182 0 .12.109091.12.250909.12.654545 0 .72.109091.818182.349091l1.287272 3.043635-2.301818 2.476363-.141818.12c-.534545.578182-1.047272.752727-1.603636.785454-.141818.010909-.24.010909-.24.218182 0 .010909 0 .12.141819.12.327272 0 .687272-.032727 1.025454-.032727.403636 0 .82909.032727 1.221818.032727.065454 0 .196363 0 .196363-.218182 0-.109091-.109091-.12-.130909-.12-.098182-.010909-.436363-.032727-.436363-.338181 0-.174546.163636-.349091.294545-.490909l1.112727-1.178182.981818-1.069091 1.101818 2.607272c.043636.12.054545.13091.054545.152728 0 .087272-.207272.272727-.632727.316363-.12.010909-.218182.021818-.218182.207273 0 .130909.12.130909.163637.130909.305454 0 1.06909-.032727 1.374545-.032727.272727 0 .938181.032727 1.210908.032727.076364 0 .207273 0 .207273-.207273 0-.130909-.109091-.130909-.196363-.130909-.730909-.010909-.752728-.043636-.938182-.48-.425454-1.014545-1.156363-2.716362-1.407272-3.370908.741818-.763636 1.887272-2.061817 2.236363-2.367272.316363-.261818.730909-.523636 1.385454-.556363.141818-.010909.24-.010909.24-.218182 0-.010909 0-.12-.141818-.12-.327273 0-.687273.032727-1.025455.032727-.403636 0-.818181-.032727-1.210908-.032727-.065455 0-.207273 0-.207273.218182 0 .076363.054545.109091.130909.12.098182.010909.436364.032727.436364.338181 0 .152728-.12.294546-.207273.392728z" transform="translate(80.46583 68.742217)"/><path d="m1.734545-7.789089c0-.196363 0-.392727-.218182-.392727s-.218182.196364-.218182.392727v10.123634c0 .196363 0 .392727.218182.392727s.218182-.196364.218182-.392727z" transform="translate(90.359769 68.742217)"/><path d="m2.519999-3.82909c.054546-.229091.163637-.643636.163637-.698181 0-.185455-.130909-.294546-.316364-.294546-.032727 0-.338182.010909-.436363.392727l-1.570909 6.316362c-.032727.130909-.032727.152727-.032727.174546 0 .163636.12.294545.305454.294545.229091 0 .36-.196364.381818-.229091.043637-.098182.185455-.665454.6-2.345454.349091.294546.84.338182 1.058182.338182.763636 0 1.18909-.490909 1.450908-.796363.098182.490909.501818.796363.981818.796363.381818 0 .632727-.250909.807273-.6.185454-.392727.327272-1.058181.327272-1.08 0-.10909-.098182-.10909-.130909-.10909-.109091 0-.12.043636-.152727.196363-.185455.709091-.381818 1.352727-.829091 1.352727-.294545 0-.327272-.283636-.327272-.501818 0-.24.130909-.752727.218181-1.134545l.305455-1.178182c.032727-.163636.141818-.578181.185454-.741818.054546-.250909.163637-.665454.163637-.730908 0-.196364-.152728-.294546-.316364-.294546-.054545 0-.338182.010909-.425454.381818l-.512727 2.04c-.130909.545454-.250909 1.003636-.283637 1.112727-.010909.054545-.534545 1.047272-1.418181 1.047272-.545455 0-.807273-.36-.807273-.949091 0-.316363.076364-.621818.152728-.927272z" transform="translate(93.39008 68.742217)"/><use x="99.963346" xlink:href="#a" y="68.742217"/><path d="m4.058181-3.556363c.098181-.109091.098181-.152727.098181-.174545 0-.054545-.043636-.109091-.076363-.152727l-2.236363-3.22909h2.519999c1.843636 0 2.38909.392727 2.618181 2.116363h.272727l-.305454-2.454545h-6.054544c-.261818 0-.283636 0-.283636.250909l2.716363 3.94909-2.596363 2.956363c-.109091.12-.109091.141818-.109091.174545 0 .12.109091.12.272727.12h6.054544l.305454-2.574545h-.272727c-.196363 1.821818-.938181 2.116363-2.650908 2.116363h-3.010908z" transform="translate(104.811806 68.742217)"/><use x="112.690614" xlink:href="#a" y="68.742217"/><path d="m2.890908-4.06909h1.232727c-.36 1.614545-.458181 2.083636-.458181 2.814545 0 .163636 0 .458182.087272.829091.109091.479999.229091.545454.392727.545454.218182 0 .447273-.196364.447273-.414545 0-.065455 0-.087273-.065455-.24-.316363-.785455-.316363-1.494545-.316363-1.8 0-.578181.076364-1.167272.196363-1.734545h1.243637c.141818 0 .534545 0 .534545-.370909 0-.261818-.229091-.261818-.436364-.261818h-3.654544c-.24 0-.654545 0-1.134545.512727-.381818.425455-.665455.927273-.665455.981818 0 .010909 0 .109091.130909.109091.087273 0 .109091-.043636.174546-.130909.534545-.84 1.167272-.84 1.385454-.84h.621818c-.349091 1.32-.938182 2.639999-1.396363 3.632726-.087273.163637-.087273.185455-.087273.261819 0 .207272.174545.294545.316364.294545.327272 0 .414545-.305454.545454-.709091.152727-.501818.152727-.523636.294545-1.06909z" transform="translate(117.539074 68.742217)"/><path d="m3.152726-2.727272c0-.850909-.12-2.170908-.719999-3.403635-.654546-1.341818-1.592727-2.050909-1.701818-2.050909-.065455 0-.109091.043636-.109091.109091 0 .032727 0 .054545.207273.250909 1.06909 1.08 1.690908 2.814545 1.690908 5.094544 0 1.865454-.403636 3.785454-1.756363 5.159999-.141818.130909-.141818.152727-.141818.185454 0 .065455.043636.109091.109091.109091.109091 0 1.090909-.741818 1.734545-2.127272.556363-1.2.687272-2.410909.687272-3.327272z" transform="translate(124.148953 68.742217)"/></svg>