<svg height="7.454534pt" viewBox="70.734745 61.287683 7.878808 7.454534" width="7.878808pt" xmlns="http://www.w3.org/2000/svg"><path d="m4.058181-3.556363c.098181-.109091.098181-.152727.098181-.174545 0-.054545-.043636-.109091-.076363-.152727l-2.236363-3.22909h2.519999c1.843636 0 2.38909.392727 2.618181 2.116363h.272727l-.305454-2.454545h-6.054544c-.261818 0-.283636 0-.283636.250909l2.716363 3.94909-2.596363 2.956363c-.109091.12-.109091.141818-.109091.174545 0 .12.109091.12.272727.12h6.054544l.305454-2.574545h-.272727c-.196363 1.821818-.938181 2.116363-2.650908 2.116363h-3.010908z" transform="translate(70.734745 68.742217)"/></svg>