<svg height="70.395931pt" viewBox="53.798257 60.560401 77.758 70.395931" width="77.758pt" xmlns="http://www.w3.org/2000/svg" xmlns:xlink="http://www.w3.org/1999/xlink"><defs><path id="a" d="m3.628394-2.402989c-.005978-.005977-.035866-.065753-.035866-.071731s.005978-.011955.101619-.077708c.609714-.418431 1.416687-.968369 1.751432-1.129764.203238-.095641.37061-.149439.567871-.161395.059775-.005977.137484-.011955.137484-.149439 0-.041843-.035866-.083686-.083686-.083686-.131507 0-.298879.017932-.442341.017932-.089664 0-.292902 0-.382566-.005977-.071731-.005978-.292901-.017933-.352677-.017933-.035866 0-.137485 0-.137485.14944 0 .083686.083687.089663.101619.089663.137485.005978.137485.047821.137485.077709 0 .077709-.12553.17335-.14944.191283-.017933.011955-.02391.017932-.029888.02391s-.059776.041843-.077708.053798l-2.600249 1.75741.466251-1.859029c.047821-.19726.059776-.245081.537983-.245081.107596 0 .191282 0 .191282-.149439 0-.029888-.017932-.089664-.101619-.089664-.125529 0-.268991.017933-.400498.017933s-.268991.005977-.400498.005977c-.137484 0-.274969-.005977-.412453-.005977-.131507 0-.280947-.017933-.412453-.017933-.035866 0-.131507 0-.131507.14944 0 .089663.077708.089663.191282.089663.107597 0 .257036 0 .382566.041844 0 .059775 0 .095641-.023911.191282l-.783063 3.114322c-.053798.215193-.065754.257036-.514072.257036-.137485 0-.215193 0-.215193.149439 0 .047821.035865.089664.101619.089664.125529 0 .268991-.017933.400498-.017933.137484 0 .268991-.005977.400498-.005977.137484 0 .274969.005977.412453.005977.131507 0 .280947.017933.406476.017933.041843 0 .137484 0 .137484-.14944 0-.089663-.071731-.089663-.19726-.089663-.011955 0-.119552 0-.227148-.011956-.119552-.011955-.155417-.011955-.155417-.077708 0-.02391.041843-.17335.059775-.263014.029888-.101619.029888-.113574.065754-.257036.083686-.310834.083686-.322789.14944-.609714l1.040099-.699377.980324 1.745455c0 .077708 0 .167372-.268991.17335-.071731 0-.161395 0-.161395.149439 0 .047821.035865.089664.101619.089664.17335 0 .615691-.02391.789041-.02391.101619 0 .203238.005977.304857.005977s.215193.017933.310834.017933c.065753 0 .131507-.035866.131507-.14944 0-.089663-.095641-.089663-.143462-.089663-.310834-.005978-.358655-.089664-.430386-.221171z"/><path id="b" d="m1.984558-3.969116c.005977-.02391.017933-.059776.017933-.089664 0-.095641-.119552-.089663-.191283-.083686l-.669489.053799c-.101619.005977-.179328.011955-.179328.155417 0 .089663.077709.089663.17335.089663.17335 0 .215193.017933.292902.041844 0 .071731 0 .083686-.023911.179327l-.836862 3.34147c-.02391.095641-.02391.125529-.02391.137484 0 .14944.119552.203238.209216.203238.059775 0 .167372-.02391.245081-.137485.041843-.077708.280946-1.069987.322789-1.26127.400498.029888.830884.125529.830884.478207 0 .029888 0 .059776-.017932.125529-.017933.089664-.017933.125529-.017933.17335 0 .394521.334744.621669.675467.621669.579825 0 .789041-.872727.789041-.920548 0-.011955-.005978-.083686-.113574-.083686-.083686 0-.095642.035865-.12553.137484-.059775.215193-.227148.66949-.532004.66949-.227149 0-.227149-.257037-.227149-.32279 0-.095641 0-.101619.029888-.221171 0-.005977.029888-.125529.029888-.19726 0-.460274-.52005-.603736-.980324-.645579.143462-.089664.268992-.185305.508095-.39452.298879-.263014.609714-.52005.938481-.52005.077708 0 .149439.017932.203238.077708-.209216.041843-.29888.209216-.29888.334745 0 .191283.155418.233126.239104.233126.131507 0 .3467-.095642.3467-.394521 0-.257036-.191283-.448319-.484185-.448319-.376588 0-.729265.286924-1.004234.526028-.310834.268991-.496139.424408-.71731.508094z"/><path id="c" d="m2.145953-3.795766c0-.179327-.023911-.179327-.203238-.179327-.394521.382565-1.004234.382565-1.219427.382565v.233126c.155417 0 .549937 0 .908592-.167373v3.01868c0 .197261 0 .274969-.615691.274969h-.257036v.233126c.328767-.02391.795019-.02391 1.129764-.02391s.800996 0 1.129763.02391v-.233126h-.257036c-.615691 0-.615691-.077708-.615691-.274969z"/><path id="d" d="m4.889664-2.026401c.083686 0 .22117 0 .22117-.155417s-.161394-.155417-.251058-.155417h-4.136488c-.089664 0-.251059 0-.251059.155417s.137485.155417.221171.155417zm-.029888 1.374844c.089664 0 .251058 0 .251058-.155417s-.137484-.155417-.22117-.155417h-4.196264c-.083686 0-.221171 0-.221171.155417s.161395.155417.251059.155417z"/><path id="e" d="m4.120548 4.128518c.095641-.103611.095641-.119552.095641-.143462 0-.00797 0-.047821-.063761-.127522l-2.725778-3.490909h3.315567c1.012204 0 1.625903.119552 1.992528.239104.645579.215193 1.251307.685429 1.482441 1.307098h.247073l-.72528-1.912827h-7.021669c-.239103 0-.247073.00797-.247073.286924l3.076463 3.953176-2.996762 3.490909c-.071731.087671-.079701.087671-.079701.127522 0 .111581.103611.111581.247073.111581h7.021669l.72528-2.032379h-.247073c-.191283.549938-.733251 1.131756-1.697634 1.37883-.565878.143462-1.139726.167372-1.721545.167372h-3.55467z"/><path id="f" d="m1.354919-5.67472c0-.127522 0-.302864-.183313-.302864s-.183312.175342-.183312.302864v7.364384c0 .127522 0 .302864.183312.302864s.183313-.175342.183313-.302864z"/><path id="g" d="m2.654047 1.992528c.063761 0 .159403 0 .159403-.095641 0-.031881-.007971-.039851-.111582-.143462-1.091905-1.028145-1.362889-2.510586-1.362889-3.745953 0-2.295392.948443-3.371357 1.354919-3.737983.111581-.103611.119552-.111581.119552-.151432s-.031881-.095641-.111582-.095641c-.127522 0-.526027.406476-.589788.478207-1.067995 1.115815-1.291158 2.550436-1.291158 3.506849 0 1.785305.74919 3.219925 1.833125 3.985056z"/><path id="h" d="m2.462765-1.992528c0-.757161-.127522-1.665753-.621669-2.606227-.390536-.73325-1.115816-1.378829-1.259278-1.378829-.079701 0-.103611.055791-.103611.095641 0 .031881 0 .047821.095641.143462 1.115816 1.060025 1.370859 2.518556 1.370859 3.745953 0 2.287422-.948443 3.371357-1.354919 3.737983-.103611.103611-.111581.111581-.111581.151432s.02391.095641.103611.095641c.127522 0 .526028-.406476.589788-.478207 1.067995-1.115815 1.291159-2.550436 1.291159-3.506849z"/><path id="i" d="m7.494543-3.567272c.163637 0 .370909 0 .370909-.218181s-.207272-.218182-.36-.218182h-6.534543c-.152727 0-.36 0-.36.218182s.207273.218181.370909.218181zm.010909 2.116363c.152728 0 .36 0 .36-.218181s-.207272-.218182-.370909-.218182h-6.512725c-.163636 0-.370909 0-.370909.218182s.207273.218181.36.218181z"/><path id="j" d="m2.263512-2.909091h.916563c-.167373.72528-.310835 1.315069-.310835 1.904857 0 .055791 0 .398505.087672.68543.103611.334744.183312.398505.326774.398505.175343 0 .358655-.151432.358655-.342715 0-.05579-.00797-.071731-.03985-.143462-.167373-.366625-.286924-.74919-.286924-1.402739 0-.183313 0-.518058.119551-1.099876h.964384c.127522 0 .215193 0 .294894-.063761.095641-.087671.119552-.191282.119552-.239103 0-.223163-.199253-.223163-.334745-.223163h-2.87721c-.167373 0-.470237 0-.860773.382565-.286924.286924-.510087.653549-.510087.70934 0 .071731.055791.095641.119552.095641.079701 0 .095641-.02391.143462-.087671.390535-.573848.860772-.573848 1.044085-.573848h.462266c-.231133.844832-.653549 1.809216-.948443 2.391034-.055791.119551-.135492.278954-.135492.350685 0 .167372.135492.247073.263014.247073.302864 0 .382565-.302864.549937-.956413z"/><path id="k" d="m4.160399-3.044583c.382565-.390535 1.514321-1.554172 1.705603-1.705604.334745-.255043.533998-.398505 1.107846-.430386.047821-.00797.111582-.047821.111582-.151432 0-.071731-.071731-.111582-.111582-.111582-.079701 0-.127522.023911-.74919.023911-.597759 0-.812952-.023911-.852802-.023911-.031881 0-.159403 0-.159403.151433 0 .00797 0 .103611.119552.111581.055791.00797.270984.02391.270984.207223 0 .055791-.031881.143462-.095642.207223l-.02391.039851c-.02391.02391-.02391.03985-.103611.111581l-1.331009 1.346949-.812951-1.689664c.111581-.191282.350684-.215193.446326-.223163.03985 0 .151432-.00797.151432-.143462 0-.071731-.055791-.119552-.127522-.119552-.079701 0-.382565.015941-.462266.015941-.047821.00797-.342715.00797-.510088.00797-.74122 0-.836861-.023911-.908592-.023911-.031881 0-.159403 0-.159403.151433 0 .111581.103612.111581.231134.111581.398505 0 .470236.079701.541967.231133l1.060025 2.231632-1.633873 1.665753c-.478206.478207-.852802.757161-1.41868.789041-.095641.00797-.191282.00797-.191282.151432 0 .047821.03985.111582.119551.111582.055791 0 .143462-.02391.749191-.02391.573848 0 .820921.02391.852802.02391.03985 0 .159402 0 .159402-.151432 0-.01594-.00797-.103612-.127522-.111582-.151432-.00797-.263013-.063761-.263013-.207223 0-.127521.095641-.231133.215193-.350685.135491-.151432.549937-.565878.836861-.844831.183313-.183313.629639-.64558.812952-.820922l.916563 1.904857c.03985.079701.03985.087671.03985.095641 0 .071731-.167372.207223-.430386.223163-.055791 0-.159402.00797-.159402.151432 0 .007971.00797.111582.135492.111582.079701 0 .374595-.01594.454296-.02391h.510087c.733251 0 .844832.02391.916563.02391.031881 0 .151432 0 .151432-.151432 0-.111582-.103611-.111582-.223163-.111582-.430386 0-.478206-.095641-.533997-.215193z"/><path id="l" d="m2.327273-5.292154c.00797-.015941.03188-.119552.03188-.127522 0-.039851-.03188-.111582-.127522-.111582-.03188 0-.278954.023911-.462266.039851l-.446326.03188c-.175343.01594-.255044.023911-.255044.167373 0 .111581.111582.111581.207223.111581.382565 0 .382565.047821.382565.119552 0 .02391 0 .03985-.03985.183312l-1.131756 4.534994c-.031881.119552-.031881.167373-.031881.175343 0 .135492.111582.247073.263014.247073.270984 0 .334745-.255043.366625-.366625.079701-.334745.286924-1.179577.374596-1.514321.438356.04782.972353.199252.972353.653549 0 .03985 0 .079701-.01594.159402-.02391.103612-.039851.215193-.039851.255044 0 .470236.350685.812951.812952.812951.334745 0 .541967-.247073.645579-.398505.191283-.294895.318804-.773101.318804-.820922 0-.079701-.063761-.103611-.119551-.103611-.095642 0-.111582.04782-.143462.191282-.103612.374595-.310835.908593-.68543.908593-.207223 0-.255044-.175342-.255044-.390536 0-.103611.007971-.199252.047821-.382565.00797-.03188.039851-.159402.039851-.247073 0-.65355-.820922-.797012-1.227398-.852802.294895-.175343.565878-.446327.66152-.549938.438356-.430386.797011-.72528 1.179576-.72528.103612 0 .199253.02391.263014.103611-.430386.055791-.430386.430386-.430386.438356 0 .175343.135492.294894.310834.294894.215193 0 .454297-.175342.454297-.502117 0-.270983-.191283-.557907-.589789-.557907-.462266 0-.876712.350685-1.331008.804981-.462267.454296-.66152.541968-.789041.597758z"/><path id="m" d="m.414446.964384c-.063761.255043-.079701.318804-.398506.318804-.111581 0-.207223 0-.207223.151432 0 .071731.071731.111582.111582.111582.079701 0 .111581-.023911.70137-.023911.573848 0 .74122.023911.797011.023911.03188 0 .151432 0 .151432-.151432 0-.111582-.111581-.111582-.207223-.111582-.382565 0-.382565-.047821-.382565-.119552 0-.05579.143462-.621668.382565-1.554171.103612.183312.350685.470236.781071.470236.980324 0 2.000498-1.131756 2.000498-2.287422 0-.789041-.510087-1.307098-1.147696-1.307098-.478207 0-.860772.326774-1.091905.565878-.167373-.565878-.70137-.565878-.781071-.565878-.286924 0-.486177.183312-.613699.430386-.183312.358655-.270984.76513-.270984.789041 0 .071731.055791.103611.119552.103611.103612 0 .111582-.03188.167372-.239103.103612-.406476.247074-.860772.573848-.860772.199253 0 .255044.183312.255044.374595 0 .079701-.03188.270984-.047821.334745zm1.4665-3.419179c.039851-.135491.039851-.151432.159403-.294894.302864-.358655.645579-.541967.932503-.541967.398505 0 .549938.390535.549938.74919 0 .294894-.175343 1.147696-.414446 1.617933-.207223.430386-.589789.781071-.964384.781071-.541967 0-.669489-.621669-.669489-.67746 0-.01594.01594-.103611.02391-.127521z"/></defs><path d="m.447273-2.770908c.425454-1.254545 1.614545-1.265455 1.734545-1.265455 1.647272 0 1.767272 1.909091 1.767272 2.770909 0 .665454-.054546.850909-.130909 1.06909-.24.796364-.567273 2.061818-.567273 2.345454 0 .12.054546.196364.141818.196364.141818 0 .229091-.24.349091-.654545.250909-.916364.36-1.538182.403636-1.876363.021819-.141819.043637-.283637.087273-.425455.349091-1.08 1.047273-2.705454 1.483636-3.567272.076364-.130909.207273-.370909.207273-.414545 0-.109091-.109091-.109091-.130909-.109091-.032728 0-.098182 0-.130909.076364-.567273 1.036363-1.003636 2.127272-1.44 3.22909-.010909-.338182-.021818-1.167273-.447273-2.225454-.261818-.665455-.698181-1.2-1.450908-1.2-1.363636 0-2.127272 1.658182-2.127272 1.996363 0 .109091.098181.109091.207272.109091z" transform="translate(70.734745 68.742217)"/><use x="76.382715" xlink:href="#l" y="70.519457"/><path d="m3.610908 2.618181c0-.032727 0-.054545-.185454-.24-1.363636-1.374545-1.712727-3.436363-1.712727-5.105453 0-1.898181.414545-3.796363 1.756363-5.159999.141818-.130909.141818-.152727.141818-.185454 0-.076364-.043636-.109091-.109091-.109091-.109091 0-1.090909.741818-1.734545 2.127272-.556363 1.2-.687272 2.410909-.687272 3.327272 0 .850909.12 2.170909.719999 3.403635.654546 1.341818 1.592727 2.050909 1.701818 2.050909.065455 0 .109091-.032727.109091-.109091z" transform="translate(81.502462 68.742217)"/><path d="m5.290908-4.483635-.916364-2.170909c-.032727-.087272-.054545-.130909-.054545-.141818 0-.065454.185454-.272727.643636-.316363.109091-.010909.218182-.021818.218182-.207273 0-.130909-.130909-.130909-.163637-.130909-.447272 0-.916363.032727-1.374545.032727-.272727 0-.94909-.032727-1.221817-.032727-.065455 0-.196364 0-.196364.218182 0 .12.109091.12.250909.12.654545 0 .72.109091.818182.349091l1.287272 3.043635-2.301818 2.476363-.141818.12c-.534545.578182-1.047272.752727-1.603636.785454-.141818.010909-.24.010909-.24.218182 0 .010909 0 .12.141819.12.327272 0 .687272-.032727 1.025454-.032727.403636 0 .82909.032727 1.221818.032727.065454 0 .196363 0 .196363-.218182 0-.109091-.109091-.12-.130909-.12-.098182-.010909-.436363-.032727-.436363-.338181 0-.174546.163636-.349091.294545-.490909l1.112727-1.178182.981818-1.069091 1.101818 2.607272c.043636.12.054545.13091.054545.152728 0 .087272-.207272.272727-.632727.316363-.12.010909-.218182.021818-.218182.207273 0 .130909.12.130909.163637.130909.305454 0 1.06909-.032727 1.374545-.032727.272727 0 .938181.032727 1.210908.032727.076364 0 .207273 0 .207273-.207273 0-.130909-.109091-.130909-.196363-.130909-.730909-.010909-.752728-.043636-.938182-.48-.425454-1.014545-1.156363-2.716362-1.407272-3.370908.741818-.763636 1.887272-2.061817 2.236363-2.367272.316363-.261818.730909-.523636 1.385454-.556363.141818-.010909.24-.010909.24-.218182 0-.010909 0-.12-.141818-.12-.327273 0-.687273.032727-1.025455.032727-.403636 0-.818181-.032727-1.210908-.032727-.065455 0-.207273 0-.207273.218182 0 .076363.054545.109091.130909.12.098182.010909.436364.032727.436364.338181 0 .152728-.12.294546-.207273.392728z" transform="translate(85.7449 68.742217)"/><path d="m3.152726-2.727272c0-.850909-.12-2.170908-.719999-3.403635-.654546-1.341818-1.592727-2.050909-1.701818-2.050909-.065455 0-.109091.043636-.109091.109091 0 .032727 0 .054545.207273.250909 1.06909 1.08 1.690908 2.814545 1.690908 5.094544 0 1.865454-.403636 3.785454-1.756363 5.159999-.141818.130909-.141818.152727-.141818.185454 0 .065455.043636.109091.109091.109091.109091 0 1.090909-.741818 1.734545-2.127272.556363-1.2.687272-2.410909.687272-3.327272z" transform="translate(95.638839 68.742217)"/><use x="53.798257" xlink:href="#i" y="95.84061"/><use x="78.592061" xlink:href="#m" y="90.466293"/><use x="82.854838" xlink:href="#g" y="90.466293"/><use x="86.148092" xlink:href="#k" y="90.466293"/><use x="93.735012" xlink:href="#f" y="90.466293"/><use x="96.087336" xlink:href="#l" y="90.466293"/><use x="100.708952" xlink:href="#h" y="90.466293"/><use x="104.002205" xlink:href="#m" y="90.466293"/><use x="108.264982" xlink:href="#g" y="90.466293"/><use x="111.558236" xlink:href="#l" y="90.466293"/><use x="116.179851" xlink:href="#h" y="90.466293"/><path d="m66.508894 92.895173h65.047363v.436352h-65.047363z"/><use x="66.508894" xlink:href="#e" y="95.389603"/><use x="75.447724" xlink:href="#a" y="97.852566"/><use x="75.447724" xlink:href="#b" y="103.857939"/><use x="79.522697" xlink:href="#d" y="103.857939"/><use x="85.112789" xlink:href="#c" y="103.857939"/><use x="90.675213" xlink:href="#m" y="101.367233"/><use x="94.93799" xlink:href="#g" y="101.367233"/><use x="98.231244" xlink:href="#l" y="101.367233"/><use x="102.852859" xlink:href="#h" y="101.367233"/><use x="106.146112" xlink:href="#m" y="101.367233"/><use x="110.40889" xlink:href="#g" y="101.367233"/><use x="113.702143" xlink:href="#k" y="101.367233"/><use x="121.289064" xlink:href="#f" y="101.367233"/><use x="123.641388" xlink:href="#l" y="101.367233"/><use x="128.263003" xlink:href="#h" y="101.367233"/><use x="53.798257" xlink:href="#i" y="122.939003"/><use x="78.592061" xlink:href="#m" y="117.564687"/><use x="82.854838" xlink:href="#g" y="117.564687"/><use x="86.148092" xlink:href="#k" y="117.564687"/><use x="93.735012" xlink:href="#f" y="117.564687"/><use x="96.087336" xlink:href="#l" y="117.564687"/><use x="100.708952" xlink:href="#h" y="117.564687"/><use x="104.002205" xlink:href="#j" y="117.564687"/><use x="108.865058" xlink:href="#b" y="118.970532"/><path d="m66.508894 119.993567h59.012407v.436352h-59.012407z"/><use x="66.508894" xlink:href="#e" y="122.487997"/><use x="75.447724" xlink:href="#a" y="124.950959"/><use x="75.447724" xlink:href="#b" y="130.956332"/><use x="79.522697" xlink:href="#d" y="130.956332"/><use x="85.112789" xlink:href="#c" y="130.956332"/><use x="90.675213" xlink:href="#j" y="128.465626"/><use x="95.538065" xlink:href="#b" y="129.871472"/><use x="100.111157" xlink:href="#m" y="128.465626"/><use x="104.373934" xlink:href="#g" y="128.465626"/><use x="107.667188" xlink:href="#k" y="128.465626"/><use x="115.254108" xlink:href="#f" y="128.465626"/><use x="117.606432" xlink:href="#l" y="128.465626"/><use x="122.228048" xlink:href="#h" y="128.465626"/></svg>