<svg height="20.149735pt" viewBox="70.734745 57.783313 150.0683 20.149735" width="150.0683pt" xmlns="http://www.w3.org/2000/svg" xmlns:xlink="http://www.w3.org/1999/xlink"><defs><path id="a" d="m2.654047 1.992528c.063761 0 .159403 0 .159403-.095641 0-.031881-.007971-.039851-.111582-.143462-1.091905-1.028145-1.362889-2.510586-1.362889-3.745953 0-2.295392.948443-3.371357 1.354919-3.737983.111581-.103611.119552-.111581.119552-.151432s-.031881-.095641-.111582-.095641c-.127522 0-.526027.406476-.589788.478207-1.067995 1.115815-1.291158 2.550436-1.291158 3.506849 0 1.785305.74919 3.219925 1.833125 3.985056z"/><path id="b" d="m2.462765-1.992528c0-.757161-.127522-1.665753-.621669-2.606227-.390536-.73325-1.115816-1.378829-1.259278-1.378829-.079701 0-.103611.055791-.103611.095641 0 .031881 0 .047821.095641.143462 1.115816 1.060025 1.370859 2.518556 1.370859 3.745953 0 2.287422-.948443 3.371357-1.354919 3.737983-.103611.103611-.111581.111581-.111581.151432s.02391.095641.103611.095641c.127522 0 .526028-.406476.589788-.478207 1.067995-1.115815 1.291159-2.550436 1.291159-3.506849z"/><path id="c" d="m3.267746-1.283188c-.095641-.980324-.494147-1.625903-.502117-1.633873-.175343-.270984-.470237-.597758-.996264-.597758-1.036115 0-1.625903 1.155666-1.625903 1.43462 0 .071731.063761.095641.119552.095641.079701 0 .103611-.02391.127521-.087671.239104-.71731 1.028145-.820922 1.267248-.820922 1.283188 0 1.37883 1.3868 1.37883 2.056289 0 .438356-.023911.510087-.079701.6934-.175343.565878-.414446 1.45056-.414446 1.681694 0 .01594.00797.175342.135492.175342.087671 0 .159402-.119552.223163-.318804.231133-.741221.302864-1.267248.350685-1.625903.02391-.167373.470236-1.498381 1.211457-2.893151.095641-.175342.095641-.191283.095641-.215193 0-.00797 0-.095641-.119552-.095641-.03188 0-.06376.00797-.087671.03188-.03188.02391-.661519 1.195517-1.060025 2.295392z"/><path id="d" d="m1.928767-2.81345c.039851-.151432.103612-.414445.103612-.454296 0-.167372-.127522-.247073-.263014-.247073-.270984 0-.334745.263013-.366625.374595l-1.107846 4.423412c-.03188.127522-.03188.167372-.03188.183313 0 .199252.159402.247073.255043.247073.039851 0 .223163-.00797.326775-.215193.02391-.063761.255043-1.012204.414446-1.649813.135492.103611.406475.231133.812951.231133.653549 0 1.083935-.533997 1.107846-.565878.143462.549938.685429.565878.781071.565878.366625 0 .549937-.302864.613698-.438356.159403-.286924.270984-.749191.270984-.781071 0-.047821-.03188-.103611-.127522-.103611s-.111581.04782-.159402.247073c-.111581.438356-.263014.852802-.573848.852802-.183313 0-.255044-.151432-.255044-.374595 0-.135492.087672-.478207.143462-.70934l.207223-.812952c.047821-.207223.087672-.374595.151433-.613698.03985-.175343.119551-.486177.119551-.533998 0-.199253-.159402-.247073-.255043-.247073-.278954 0-.326775.199252-.414446.557908l-.167373.661519-.247073.996264-.079701.318804c-.01594.047821-.231133.350685-.414446.502117-.135492.103612-.366625.255044-.661519.255044-.374596 0-.629639-.199253-.629639-.6934 0-.207223.063761-.446326.111581-.637609z"/><path id="e" d="m3.993026-3.180075c-.350685.087672-.366625.398506-.366625.430386 0 .175343.135492.294894.310834.294894s.446327-.135491.446327-.478206c0-.454297-.502117-.581818-.797012-.581818-.374595 0-.677459.263013-.860772.573848-.175342-.422416-.589788-.573848-.916563-.573848-.868742 0-1.354919.996264-1.354919 1.219427 0 .071731.055791.103611.119552.103611.095641 0 .111582-.03985.135492-.135492.183313-.581818.661519-.964383 1.075965-.964383.310834 0 .462267.223163.462267.510087 0 .159402-.095642.526027-.159403.781071-.05579.231133-.231133.940473-.270983 1.091905-.111582.430386-.398506.765131-.757161.765131-.031881 0-.239103 0-.406476-.111582.366625-.087671.366625-.422416.366625-.430386 0-.183312-.143462-.294894-.318804-.294894-.215193 0-.446326.183313-.446326.486177 0 .366625.390535.573848.797011.573848.422416 0 .71731-.318804.860772-.573848.175342.390536.541968.573848.924533.573848.868742 0 1.346949-.996264 1.346949-1.219427 0-.079701-.063761-.103611-.119552-.103611-.095641 0-.111581.05579-.135492.135491-.159402.533998-.613698.964384-1.075965.964384-.263014 0-.454296-.175342-.454296-.510087 0-.159402.04782-.342715.159402-.789041.055791-.239104.231133-.940474.270984-1.091906.111581-.414445.390535-.75716.74919-.75716.039851 0 .247074 0 .414446.111581z"/><path id="f" d="m5.571108-1.809215c.127522 0 .302865 0 .302865-.183313s-.175343-.183313-.302865-.183313h-4.566874c-.127522 0-.302864 0-.302864.183313s.175342.183313.302864.183313z"/><path id="g" d="m4.120548 4.128518c.095641-.103611.095641-.119552.095641-.143462 0-.00797 0-.047821-.063761-.127522l-2.725778-3.490909h3.315567c1.012204 0 1.625903.119552 1.992528.239104.645579.215193 1.251307.685429 1.482441 1.307098h.247073l-.72528-1.912827h-7.021669c-.239103 0-.247073.00797-.247073.286924l3.076463 3.953176-2.996762 3.490909c-.071731.087671-.079701.087671-.079701.127522 0 .111581.103611.111581.247073.111581h7.021669l.72528-2.032379h-.247073c-.191283.549938-.733251 1.131756-1.697634 1.37883-.565878.143462-1.139726.167372-1.721545.167372h-3.55467z"/><path id="h" d="m5.260274-3.425156c.065753-.251058.185305-.400498.639601-.418431.035866 0 .131507-.005977.131507-.143462 0-.059775-.035865-.095641-.095641-.095641-.143462 0-.49614.02391-.639602.02391l-.328767-.005977c-.107596 0-.233125-.017933-.334744-.017933s-.131507.077709-.131507.14944c0 .089663.095641.089663.143462.089663.280946.005978.39452.083687.39452.239104 0 .02391-.005977.059776-.011955.095641l-.657534 2.62416-1.631881-3.090411c-.059775-.101619-.065753-.107597-.209215-.107597h-.860772c-.113574 0-.203238 0-.203238.14944 0 .089663.083686.089663.221171.089663.035865 0 .239103 0 .382565.029888l-.789041 3.150187c-.059776.227148-.14944.406476-.645579.424409-.077709 0-.131507.041843-.131507.155417.005978.02391.011955.083686.101619.083686.143462 0 .496139-.02391.639601-.02391l.328768.005977c.107596 0 .233125.017933.334744.017933.12553 0 .131507-.125529.131507-.155417-.017933-.083686-.077708-.083686-.149439-.083686-.274969-.005978-.394521-.083687-.394521-.239104 0-.035865.005978-.059776.02391-.125529l.765131-3.054545 1.876962 3.556662c.041843.083686.053798.101619.137484.101619.101619 0 .113574-.029888.137484-.137484z"/><path id="i" d="m1.984558-3.969116c.005977-.02391.017933-.059776.017933-.089664 0-.095641-.119552-.089663-.191283-.083686l-.669489.053799c-.101619.005977-.179328.011955-.179328.155417 0 .089663.077709.089663.17335.089663.17335 0 .215193.017933.292902.041844 0 .071731 0 .083686-.023911.179327l-.836862 3.34147c-.02391.095641-.02391.125529-.02391.137484 0 .14944.119552.203238.209216.203238.059775 0 .167372-.02391.245081-.137485.041843-.077708.280946-1.069987.322789-1.26127.400498.029888.830884.125529.830884.478207 0 .029888 0 .059776-.017932.125529-.017933.089664-.017933.125529-.017933.17335 0 .394521.334744.621669.675467.621669.579825 0 .789041-.872727.789041-.920548 0-.011955-.005978-.083686-.113574-.083686-.083686 0-.095642.035865-.12553.137484-.059775.215193-.227148.66949-.532004.66949-.227149 0-.227149-.257037-.227149-.32279 0-.095641 0-.101619.029888-.221171 0-.005977.029888-.125529.029888-.19726 0-.460274-.52005-.603736-.980324-.645579.143462-.089664.268992-.185305.508095-.39452.298879-.263014.609714-.52005.938481-.52005.077708 0 .149439.017932.203238.077708-.209216.041843-.29888.209216-.29888.334745 0 .191283.155418.233126.239104.233126.131507 0 .3467-.095642.3467-.394521 0-.257036-.191283-.448319-.484185-.448319-.376588 0-.729265.286924-1.004234.526028-.310834.268991-.496139.424408-.71731.508094z"/><path id="j" d="m1.751432-2.068244c-.029888-.454296-.448319-.567871-.675467-.567871s-.382565.137485-.490162.328768c-.149439.24508-.22117.561892-.22117.585803 0 .065753.053798.089664.107596.089664.095641 0 .101619-.041844.131507-.137485.119552-.478207.263014-.669489.454296-.669489.215193 0 .215193.245081.215193.304856 0 .095642-.059775.334745-.101619.502118-.041843.161394-.101618.406475-.131506.537982-.041843.14944-.077709.304857-.119552.454297-.041843.167372-.113574.466251-.113574.502117 0 .131506.101619.19726.209215.19726s.209216-.071731.257036-.161395c.011956-.035865.065754-.245081.095642-.364633l.131507-.537982c.041843-.155417.065753-.263014.101619-.400498.053798-.203238.263013-.52005.484184-.741221.119552-.113574.376588-.292901.699377-.292901.382566 0 .382566.304856.382566.418431 0 .352677-.257037.992279-.364633 1.26127-.035866.101619-.077709.19726-.077709.298879 0 .304857.274969.52005.603736.52005.603736 0 .902616-.789041.902616-.920548 0-.011955-.005978-.083686-.113575-.083686-.083686 0-.089663.029888-.125529.143462-.095641.316812-.340722.663512-.645579.663512-.113574 0-.161395-.089664-.161395-.215193 0-.119552.041843-.221171.095642-.3467.089663-.233126.358655-.908593.358655-1.243338 0-.490162-.370611-.6934-.824907-.6934-.298879 0-.681444.095642-1.06401.567871z"/></defs><path d="m4.058181-3.556363c.098181-.109091.098181-.152727.098181-.174545 0-.054545-.043636-.109091-.076363-.152727l-2.236363-3.22909h2.519999c1.843636 0 2.38909.392727 2.618181 2.116363h.272727l-.305454-2.454545h-6.054544c-.261818 0-.283636 0-.283636.250909l2.716363 3.94909-2.596363 2.956363c-.109091.12-.109091.141818-.109091.174545 0 .12.109091.12.272727.12h6.054544l.305454-2.574545h-.272727c-.196363 1.821818-.938181 2.116363-2.650908 2.116363h-3.010908z" transform="translate(70.734745 71.255163)"/><path d="m2.327273-5.292154c.00797-.015941.03188-.119552.03188-.127522 0-.039851-.03188-.111582-.127522-.111582-.03188 0-.278954.023911-.462266.039851l-.446326.03188c-.175343.01594-.255044.023911-.255044.167373 0 .111581.111582.111581.207223.111581.382565 0 .382565.047821.382565.119552 0 .02391 0 .03985-.03985.183312l-1.131756 4.534994c-.031881.119552-.031881.167373-.031881.175343 0 .135492.111582.247073.263014.247073.270984 0 .334745-.255043.366625-.366625.079701-.334745.286924-1.179577.374596-1.514321.438356.04782.972353.199252.972353.653549 0 .03985 0 .079701-.01594.159402-.02391.103612-.039851.215193-.039851.255044 0 .470236.350685.812951.812952.812951.334745 0 .541967-.247073.645579-.398505.191283-.294895.318804-.773101.318804-.820922 0-.079701-.063761-.103611-.119551-.103611-.095642 0-.111582.04782-.143462.191282-.103612.374595-.310835.908593-.68543.908593-.207223 0-.255044-.175342-.255044-.390536 0-.103611.007971-.199252.047821-.382565.00797-.03188.039851-.159402.039851-.247073 0-.65355-.820922-.797012-1.227398-.852802.294895-.175343.565878-.446327.66152-.549938.438356-.430386.797011-.72528 1.179576-.72528.103612 0 .199253.02391.263014.103611-.430386.055791-.430386.430386-.430386.438356 0 .175343.135492.294894.310834.294894.215193 0 .454297-.175342.454297-.502117 0-.270983-.191283-.557907-.589789-.557907-.462266 0-.876712.350685-1.331008.804981-.462267.454296-.66152.541968-.789041.597758z" transform="translate(78.613552 73.032403)"/><path d="m7.494543-3.567272c.163637 0 .370909 0 .370909-.218181s-.207272-.218182-.36-.218182h-6.534543c-.152727 0-.36 0-.36.218182s.207273.218181.370909.218181zm.010909 2.116363c.152728 0 .36 0 .36-.218181s-.207272-.218182-.370909-.218182h-6.512725c-.163636 0-.370909 0-.370909.218182s.207273.218181.36.218181z" transform="translate(86.763547 71.255163)"/><use x="99.474184" xlink:href="#g" y="59.405039"/><use x="108.413015" xlink:href="#h" y="61.868001"/><use x="108.413015" xlink:href="#j" y="67.873374"/><path d="m4.889664-2.026401c.083686 0 .22117 0 .22117-.155417s-.161394-.155417-.251058-.155417h-4.136488c-.089664 0-.251059 0-.251059.155417s.137485.155417.221171.155417zm-.029888 1.374844c.089664 0 .251058 0 .251058-.155417s-.137484-.155417-.22117-.155417h-4.196264c-.083686 0-.221171 0-.221171.155417s.161395.155417.251059.155417z" transform="translate(113.013802 67.873374)"/><path d="m2.145953-3.795766c0-.179327-.023911-.179327-.203238-.179327-.394521.382565-1.004234.382565-1.219427.382565v.233126c.155417 0 .549937 0 .908592-.167373v3.01868c0 .197261 0 .274969-.615691.274969h-.257036v.233126c.328767-.02391.795019-.02391 1.129764-.02391s.800996 0 1.129763.02391v-.233126h-.257036c-.615691 0-.615691-.077708-.615691-.274969z" transform="translate(118.603894 67.873374)"/><use x="124.166318" xlink:href="#c" y="65.382668"/><use x="128.527983" xlink:href="#i" y="66.788514"/><use x="133.101074" xlink:href="#a" y="65.382668"/><use x="136.394328" xlink:href="#e" y="65.382668"/><use x="141.161226" xlink:href="#j" y="66.378932"/><use x="146.260132" xlink:href="#b" y="65.382668"/><use x="149.553386" xlink:href="#a" y="65.382668"/><use x="152.846639" xlink:href="#e" y="65.382668"/><use x="157.613538" xlink:href="#j" y="66.378932"/><use x="162.712444" xlink:href="#f" y="65.382668"/><use x="169.29895" xlink:href="#d" y="65.382668"/><use x="174.393326" xlink:href="#i" y="66.788514"/><use x="178.966417" xlink:href="#b" y="65.382668"/><use x="182.259671" xlink:href="#a" y="65.382668"/><use x="185.552924" xlink:href="#e" y="65.382668"/><use x="190.319823" xlink:href="#j" y="66.378932"/><use x="195.418729" xlink:href="#f" y="65.382668"/><use x="202.005236" xlink:href="#d" y="65.382668"/><use x="207.099611" xlink:href="#i" y="66.788514"/><use x="211.672703" xlink:href="#b" y="65.382668"/><path d="m3.108344-3.598506c.04782-.191282.059776-.203237.304856-.203237h.549938c.639602 0 .729265.185305.729265.532005 0 .083686-.011955.24508-.035865.430386-.005978.017932-.017933.083686-.017933.101619 0 .059775.047821.095641.113574.095641.095642 0 .107597-.059776.119552-.14944l.161395-1.147696c0-.101619-.065754-.101619-.185305-.101619h-3.88543c-.155417 0-.167372 0-.209215.125529l-.388543 1.087921c-.023911.071731-.023911.089664-.023911.095641 0 .017933.005978.089664.107597.089664.083686 0 .089664-.017933.143462-.17335.268991-.729265.454296-.986301 1.225405-.986301h.54396c.113574 0 .125529 0 .19726.017932l-.806974 3.269739c-.041843.167372-.071731.22117-.239103.245081-.167373.029888-.514072.029888-.52005.029888-.155417 0-.167372 0-.191283.017932-.029888.023911-.053798.107597-.053798.137485 0 .005977.011955.083686.113574.083686.161395 0 .340722-.017933.502117-.017933.239104 0 .394521-.005977.555915-.005977.179328 0 .358656.005977.537983.005977.17335 0 .364633.017933.537983.017933.04782 0 .089663 0 .113574-.041843.011955-.017933.035865-.089664.035865-.113574-.017933-.083686-.059776-.083686-.245081-.083686-.131507 0-.257036-.005978-.388543-.011956-.137484-.011955-.209215-.017932-.209215-.107596z" transform="translate(214.965956 62.569883)"/><path d="m99.474184 68.309726h121.328861v.436352h-121.328861z"/><use x="130.828514" xlink:href="#g" y="69.962829"/><path d="m1.594022-1.307098c.023911-.119552.103612-.422416.127522-.541968.111582-.430386.111582-.438356.294894-.70137.263014-.390535.637609-.74122 1.171607-.74122.286924 0 .454296.167372.454296.541967 0 .438356-.334744 1.346949-.486177 1.737485-.103611.263013-.103611.310834-.103611.414446 0 .454296.374595.677459.71731.677459.781071 0 1.107846-1.115816 1.107846-1.219427 0-.079701-.063761-.103611-.119552-.103611-.095641 0-.111582.05579-.135492.135491-.191283.65355-.526027.964384-.828892.964384-.127521 0-.191282-.079701-.191282-.263014s.063761-.358655.143462-.557908c.119551-.302864.470236-1.219427.470236-1.665753 0-.597758-.414446-.884682-.988294-.884682-.645579 0-1.060025.390535-1.291158.693399-.055791-.438356-.406475-.693399-.812951-.693399-.286924 0-.486177.183312-.613699.430386-.191283.374595-.270984.7731-.270984.789041 0 .071731.055791.103611.119552.103611.103612 0 .111582-.03188.167372-.239103.095642-.390536.239104-.860772.573848-.860772.207223 0 .255044.199253.255044.374595 0 .143462-.039851.294894-.103611.557908-.015941.063761-.135492.533997-.167373.645579l-.294894 1.195517c-.03188.119551-.079701.318804-.079701.350685 0 .183312.151432.247073.255044.247073.143462 0 .263013-.095641.318804-.191283.02391-.04782.087671-.318804.127522-.486176z" transform="translate(141.178739 75.940458)"/><path d="m5.826152-2.654047c.119552 0 .278954 0 .278954-.183313s-.191283-.183312-.310835-.183312h-5.0132c-.119552 0-.310834 0-.310834.183312s.159402.183313.278954.183313zm-.031881 1.689663c.119552 0 .310835 0 .310835-.183312s-.159402-.183313-.278954-.183313h-5.076961c-.119552 0-.278954 0-.278954.183313s.191282.183312.310834.183312z" transform="translate(146.316941 75.940458)"/><path d="m2.502615-5.076961c0-.215193-.01594-.223164-.231133-.223164-.326775.318805-.749191.510088-1.506351.510088v.263013c.215193 0 .645579 0 1.107845-.215193v4.088668c0 .294894-.02391.390535-.781071.390535h-.278954v.263014c.326775-.02391 1.012205-.02391 1.37086-.02391s1.052055 0 1.378829.02391v-.263014h-.278954c-.75716 0-.781071-.095641-.781071-.390535z" transform="translate(152.903448 75.940458)"/><use x="157.137631" xlink:href="#h" y="73.267118"/><use x="164.061648" xlink:href="#c" y="75.940458"/><use x="168.423313" xlink:href="#i" y="77.346304"/><use x="172.996404" xlink:href="#a" y="75.940458"/><use x="176.289657" xlink:href="#e" y="75.940458"/><use x="181.056556" xlink:href="#j" y="76.936722"/><use x="186.155462" xlink:href="#b" y="75.940458"/></svg>