<svg height="18.339343pt" viewBox="70.734745 57.783309 143.853139 18.339343" width="143.853139pt" xmlns="http://www.w3.org/2000/svg" xmlns:xlink="http://www.w3.org/1999/xlink"><defs><path id="a" d="m5.571108-1.809215c.127522 0 .302865 0 .302865-.183313s-.175343-.183313-.302865-.183313h-4.566874c-.127522 0-.302864 0-.302864.183313s.175342.183313.302864.183313z"/><path id="b" d="m3.21594-1.117808h-.22117c-.011956.083686-.071731.478207-.161395.54396-.041843.035865-.526028.035865-.609714.035865h-1.117808l.765131-.621668c.203238-.161395.735243-.54396.920548-.723288.179327-.179328.424408-.484184.424408-.908593 0-.747198-.675467-1.183561-1.476463-1.183561-.771108 0-1.309091.508094-1.309091 1.069987 0 .304857.257036.340722.32279.340722.149439 0 .322789-.107596.322789-.322789 0-.131507-.077708-.32279-.340722-.32279.137484-.304856.502117-.532005.91457-.532005.627647 0 .962391.466252.962391.950436 0 .424409-.280946.860772-.699377 1.243338l-1.416688 1.297135c-.059775.059776-.065753.065754-.065753.251059h2.600249z"/><path id="c" d="m4.375592-2.909091c.143462 0 .199252 0 .294894-.063761.087671-.071731.119551-.183312.119551-.239103 0-.223163-.199252-.223163-.334744-.223163h-1.960648c-1.227397 0-2.16787 1.259277-2.16787 2.223661 0 .781071.557907 1.291158 1.299128 1.291158 1.004234 0 2.096139-.964383 2.096139-2.15193 0-.430386-.151432-.68543-.239103-.836862zm-2.741719 2.765629c-.398506 0-.749191-.263014-.749191-.844832 0-.334745.199253-1.920797 1.482441-1.920797.773101 0 .773101.589788.773101.757161 0 .820921-.565878 2.008468-1.506351 2.008468z"/><path id="d" d="m2.247572-1.625903c.127521-.119552.462266-.382565.589788-.494147.494147-.454296.964383-.892652.964383-1.617933 0-.948443-.797011-1.562142-1.793275-1.562142-.956413 0-1.586052.725281-1.586052 1.434621 0 .390535.310834.446326.422416.446326.167372 0 .414446-.119552.414446-.422416 0-.414446-.398506-.414446-.494147-.414446.231133-.581818.765131-.781071 1.155666-.781071.74122 0 1.123786.629639 1.123786 1.299128 0 .828892-.581818 1.434621-1.522292 2.399004l-1.004234 1.036115c-.095641.087671-.095641.103611-.095641.302864h3.148194l.231133-1.42665h-.247073c-.02391.159402-.087671.557908-.183313.70934-.04782.063761-.653549.063761-.781071.063761h-1.41868z"/></defs><path d="m8.290907-7.581816c0-.032727-.021818-.109091-.12-.109091-.032727 0-.043637.010909-.163637.130909l-.763636.84c-.098181-.152727-.599999-.970909-1.810908-.970909-2.432727 0-4.887272 2.410908-4.887272 4.941817 0 1.734545 1.210909 2.98909 2.978181 2.98909.48 0 .970909-.098182 1.363636-.261818.545455-.218182.752727-.447273.949091-.665455.098182.272728.381818.676364.490909.676364.054545 0 .076364-.032727.076364-.043636.021818-.021819.130909-.436364.185454-.665455l.207273-.84c.043636-.185454.098182-.370909.141818-.556363.12-.490909.130909-.512727.752727-.523636.054545 0 .174545-.010909.174545-.218182 0-.076364-.054545-.12-.141818-.12-.250909 0-.894545.032727-1.145454.032727-.338182 0-1.189091-.032727-1.527272-.032727-.098182 0-.229091 0-.229091.218182 0 .12.087273.12.327272.12.01091 0 .327273 0 .578182.021818.283636.032727.338182.065454.338182.207273 0 .098181-.12.58909-.229091.992727-.305454 1.199999-1.723636 1.319999-2.105454 1.319999-1.047272 0-2.192727-.621818-2.192727-2.290908 0-.338182.109091-2.138181 1.254545-3.556363.589091-.741818 1.647273-1.407272 2.727272-1.407272 1.112727 0 1.756364.84 1.756364 2.105454 0 .436363-.032728.447272-.032728.556363s.12.109091.163637.109091c.141818 0 .141818-.021818.196363-.218182z" transform="translate(70.734745 69.866617)"/><path d="m3.610908 2.618181c0-.032727 0-.054545-.185454-.24-1.363636-1.374545-1.712727-3.436363-1.712727-5.105453 0-1.898181.414545-3.796363 1.756363-5.159999.141818-.130909.141818-.152727.141818-.185454 0-.076364-.043636-.109091-.109091-.109091-.109091 0-1.090909.741818-1.734545 2.127272-.556363 1.2-.687272 2.410909-.687272 3.327272 0 .850909.12 2.170909.719999 3.403635.654546 1.341818 1.592727 2.050909 1.701818 2.050909.065455 0 .109091-.032727.109091-.109091z" transform="translate(79.312006 69.866617)"/><path d="m5.290908-4.483635-.916364-2.170909c-.032727-.087272-.054545-.130909-.054545-.141818 0-.065454.185454-.272727.643636-.316363.109091-.010909.218182-.021818.218182-.207273 0-.130909-.130909-.130909-.163637-.130909-.447272 0-.916363.032727-1.374545.032727-.272727 0-.94909-.032727-1.221817-.032727-.065455 0-.196364 0-.196364.218182 0 .12.109091.12.250909.12.654545 0 .72.109091.818182.349091l1.287272 3.043635-2.301818 2.476363-.141818.12c-.534545.578182-1.047272.752727-1.603636.785454-.141818.010909-.24.010909-.24.218182 0 .010909 0 .12.141819.12.327272 0 .687272-.032727 1.025454-.032727.403636 0 .82909.032727 1.221818.032727.065454 0 .196363 0 .196363-.218182 0-.109091-.109091-.12-.130909-.12-.098182-.010909-.436363-.032727-.436363-.338181 0-.174546.163636-.349091.294545-.490909l1.112727-1.178182.981818-1.069091 1.101818 2.607272c.043636.12.054545.13091.054545.152728 0 .087272-.207272.272727-.632727.316363-.12.010909-.218182.021818-.218182.207273 0 .130909.12.130909.163637.130909.305454 0 1.06909-.032727 1.374545-.032727.272727 0 .938181.032727 1.210908.032727.076364 0 .207273 0 .207273-.207273 0-.130909-.109091-.130909-.196363-.130909-.730909-.010909-.752728-.043636-.938182-.48-.425454-1.014545-1.156363-2.716362-1.407272-3.370908.741818-.763636 1.887272-2.061817 2.236363-2.367272.316363-.261818.730909-.523636 1.385454-.556363.141818-.010909.24-.010909.24-.218182 0-.010909 0-.12-.141818-.12-.327273 0-.687273.032727-1.025455.032727-.403636 0-.818181-.032727-1.210908-.032727-.065455 0-.207273 0-.207273.218182 0 .076363.054545.109091.130909.12.098182.010909.436364.032727.436364.338181 0 .152728-.12.294546-.207273.392728z" transform="translate(83.554444 69.866617)"/><path d="m1.734545-7.789089c0-.196363 0-.392727-.218182-.392727s-.218182.196364-.218182.392727v10.123634c0 .196363 0 .392727.218182.392727s.218182-.196364.218182-.392727z" transform="translate(93.448383 69.866617)"/><path d="m2.519999-3.82909c.054546-.229091.163637-.643636.163637-.698181 0-.185455-.130909-.294546-.316364-.294546-.032727 0-.338182.010909-.436363.392727l-1.570909 6.316362c-.032727.130909-.032727.152727-.032727.174546 0 .163636.12.294545.305454.294545.229091 0 .36-.196364.381818-.229091.043637-.098182.185455-.665454.6-2.345454.349091.294546.84.338182 1.058182.338182.763636 0 1.18909-.490909 1.450908-.796363.098182.490909.501818.796363.981818.796363.381818 0 .632727-.250909.807273-.6.185454-.392727.327272-1.058181.327272-1.08 0-.10909-.098182-.10909-.130909-.10909-.109091 0-.12.043636-.152727.196363-.185455.709091-.381818 1.352727-.829091 1.352727-.294545 0-.327272-.283636-.327272-.501818 0-.24.130909-.752727.218181-1.134545l.305455-1.178182c.032727-.163636.141818-.578181.185454-.741818.054546-.250909.163637-.665454.163637-.730908 0-.196364-.152728-.294546-.316364-.294546-.054545 0-.338182.010909-.425454.381818l-.512727 2.04c-.130909.545454-.250909 1.003636-.283637 1.112727-.010909.054545-.534545 1.047272-1.418181 1.047272-.545455 0-.807273-.36-.807273-.949091 0-.316363.076364-.621818.152728-.927272z" transform="translate(96.478694 69.866617)"/><path d="m2.214545-.010909c0-.72-.272727-1.145454-.698182-1.145454-.36 0-.578181.272727-.578181.578181 0 .294546.218181.578182.578181.578182.130909 0 .272727-.043636.381818-.141818.032728-.021818.043637-.032727.054546-.032727s.021818.010909.021818.163636c0 .807272-.381818 1.461818-.741818 1.821818-.12.12-.12.141818-.12.174545 0 .076364.054545.12.109091.12.12 0 .992727-.84.992727-2.116363z" transform="translate(103.05196 69.866617)"/><path d="m5.650908-4.06909c.141818 0 .534545 0 .534545-.370909 0-.261818-.229091-.261818-.425455-.261818h-2.487272c-1.647272 0-2.858181 1.8-2.858181 3.098181 0 .96.643637 1.723636 1.636364 1.723636 1.287272 0 2.738181-1.32 2.738181-2.999999 0-.185455 0-.709091-.338182-1.189091zm-3.58909 3.94909c-.534546 0-.970909-.392727-.970909-1.178181 0-.327273.130909-1.221818.512727-1.865454.458182-.752728 1.112727-.905455 1.483636-.905455.916363 0 1.003636.72 1.003636 1.058182 0 .512727-.218182 1.407272-.589091 1.963636-.425454.643636-1.014545.927272-1.439999.927272z" transform="translate(107.90042 69.866617)"/><path d="m3.152726-2.727272c0-.850909-.12-2.170908-.719999-3.403635-.654546-1.341818-1.592727-2.050909-1.701818-2.050909-.065455 0-.109091.043636-.109091.109091 0 .032727 0 .054545.207273.250909 1.06909 1.08 1.690908 2.814545 1.690908 5.094544 0 1.865454-.403636 3.785454-1.756363 5.159999-.141818.130909-.141818.152727-.141818.185454 0 .065455.043636.109091.109091.109091.109091 0 1.090909-.741818 1.734545-2.127272.556363-1.2.687272-2.410909.687272-3.327272z" transform="translate(114.525426 69.866617)"/><path d="m7.494543-3.567272c.163637 0 .370909 0 .370909-.218181s-.207272-.218182-.36-.218182h-6.534543c-.152727 0-.36 0-.36.218182s.207273.218181.370909.218181zm.010909 2.116363c.152728 0 .36 0 .36-.218181s-.207272-.218182-.370909-.218182h-6.512725c-.163636 0-.370909 0-.370909.218182s.207273.218181.36.218181z" transform="translate(121.798111 69.866617)"/><path d="m2.502615-5.076961c0-.215193-.01594-.223164-.231133-.223164-.326775.318805-.749191.510088-1.506351.510088v.263013c.215193 0 .645579 0 1.107845-.215193v4.088668c0 .294894-.02391.390535-.781071.390535h-.278954v.263014c.326775-.02391 1.012205-.02391 1.37086-.02391s1.052055 0 1.378829.02391v-.263014h-.278954c-.75716 0-.781071-.095641-.781071-.390535z" transform="translate(143.174297 65.571368)"/><path d="m134.508749 66.92118h21.565264v.436352h-21.565264z"/><use x="134.508749" xlink:href="#c" y="75.10924"/><path d="m3.283686 6.734745-1.506351-3.092404c-.039851-.087671-.071731-.127522-.135492-.127522-.03188 0-.047821.007971-.127522.063761l-.812951.565878c-.111582.071731-.111582.111582-.111582.135492 0 .047821.039851.111582.111582.111582.03188 0 .047821 0 .143462-.079701.103611-.063761.263014-.183313.398505-.278954l1.673724 3.435118c.071731.143462.103611.143462.183313.143462.135492 0 .159402-.039851.223163-.167372l3.849564-7.467995c.063761-.111582.063761-.127522.063761-.159403 0-.095641-.079701-.183312-.183313-.183312s-.135492.063761-.191282.167372z" transform="translate(139.634045 68.511195)"/><path d="m146.691016 68.15254h9.382996v.358656h-9.382996z"/><use x="146.691016" xlink:href="#d" y="75.10924"/><path d="m2.263512-2.909091h.916563c-.167373.72528-.310835 1.315069-.310835 1.904857 0 .055791 0 .398505.087672.68543.103611.334744.183312.398505.326774.398505.175343 0 .358655-.151432.358655-.342715 0-.05579-.00797-.071731-.03985-.143462-.167373-.366625-.286924-.74919-.286924-1.402739 0-.183313 0-.518058.119551-1.099876h.964384c.127522 0 .215193 0 .294894-.063761.095641-.087671.119552-.191282.119552-.239103 0-.223163-.199253-.223163-.334745-.223163h-2.87721c-.167373 0-.470237 0-.860773.382565-.286924.286924-.510087.653549-.510087.70934 0 .071731.055791.095641.119552.095641.079701 0 .095641-.02391.143462-.087671.390535-.573848.860772-.573848 1.044085-.573848h.462266c-.231133.844832-.653549 1.809216-.948443 2.391034-.055791.119551-.135492.278954-.135492.350685 0 .167372.135492.247073.263014.247073.302864 0 .382565-.302864.549937-.956413z" transform="translate(150.925199 75.10924)"/><path d="m2.039999-2.519999c.316364 0 1.123636-.021818 1.669091-.250909.763636-.327273.818181-.970909.818181-1.123636 0-.48-.414545-.927273-1.167272-.927273-1.210909 0-2.858181 1.058182-2.858181 2.967272 0 1.112727.643636 1.974545 1.712727 1.974545 1.559999 0 2.476363-1.156363 2.476363-1.287272 0-.065455-.065455-.141819-.130909-.141819-.054546 0-.076364.021819-.141818.109091-.861818 1.08-2.050909 1.08-2.181818 1.08-.850909 0-.949091-.916363-.949091-1.265454 0-.130909.010909-.469091.174546-1.134545zm-.512727-.24c.425455-1.658182 1.549091-1.821818 1.832727-1.821818.512727 0 .807273.316364.807273.687273 0 1.134545-1.745454 1.134545-2.192727 1.134545z" transform="translate(157.269526 69.866617)"/><use x="162.349089" xlink:href="#a" y="65.230377"/><path d="m2.654047 1.992528c.063761 0 .159403 0 .159403-.095641 0-.031881-.007971-.039851-.111582-.143462-1.091905-1.028145-1.362889-2.510586-1.362889-3.745953 0-2.295392.948443-3.371357 1.354919-3.737983.111581-.103611.119552-.111581.119552-.151432s-.031881-.095641-.111582-.095641c-.127522 0-.526027.406476-.589788.478207-1.067995 1.115815-1.291158 2.550436-1.291158 3.506849 0 1.785305.74919 3.219925 1.833125 3.985056z" transform="translate(168.935595 65.230377)"/><path d="m3.993026-3.180075c-.350685.087672-.366625.398506-.366625.430386 0 .175343.135492.294894.310834.294894s.446327-.135491.446327-.478206c0-.454297-.502117-.581818-.797012-.581818-.374595 0-.677459.263013-.860772.573848-.175342-.422416-.589788-.573848-.916563-.573848-.868742 0-1.354919.996264-1.354919 1.219427 0 .071731.055791.103611.119552.103611.095641 0 .111582-.03985.135492-.135492.183313-.581818.661519-.964383 1.075965-.964383.310834 0 .462267.223163.462267.510087 0 .159402-.095642.526027-.159403.781071-.05579.231133-.231133.940473-.270983 1.091905-.111582.430386-.398506.765131-.757161.765131-.031881 0-.239103 0-.406476-.111582.366625-.087671.366625-.422416.366625-.430386 0-.183312-.143462-.294894-.318804-.294894-.215193 0-.446326.183313-.446326.486177 0 .366625.390535.573848.797011.573848.422416 0 .71731-.318804.860772-.573848.175342.390536.541968.573848.924533.573848.868742 0 1.346949-.996264 1.346949-1.219427 0-.079701-.063761-.103611-.119552-.103611-.095641 0-.111581.05579-.135492.135491-.159402.533998-.613698.964384-1.075965.964384-.263014 0-.454296-.175342-.454296-.510087 0-.159402.04782-.342715.159402-.789041.055791-.239104.231133-.940474.270984-1.091906.111581-.414445.390535-.75716.74919-.75716.039851 0 .247074 0 .414446.111581z" transform="translate(172.228849 65.230377)"/><use x="176.995748" xlink:href="#a" y="65.230377"/><path d="m1.928767-2.81345c.039851-.151432.103612-.414445.103612-.454296 0-.167372-.127522-.247073-.263014-.247073-.270984 0-.334745.263013-.366625.374595l-1.107846 4.423412c-.03188.127522-.03188.167372-.03188.183313 0 .199252.159402.247073.255043.247073.039851 0 .223163-.00797.326775-.215193.02391-.063761.255043-1.012204.414446-1.649813.135492.103611.406475.231133.812951.231133.653549 0 1.083935-.533997 1.107846-.565878.143462.549938.685429.565878.781071.565878.366625 0 .549937-.302864.613698-.438356.159403-.286924.270984-.749191.270984-.781071 0-.047821-.03188-.103611-.127522-.103611s-.111581.04782-.159402.247073c-.111581.438356-.263014.852802-.573848.852802-.183313 0-.255044-.151432-.255044-.374595 0-.135492.087672-.478207.143462-.70934l.207223-.812952c.047821-.207223.087672-.374595.151433-.613698.03985-.175343.119551-.486177.119551-.533998 0-.199253-.159402-.247073-.255043-.247073-.278954 0-.326775.199252-.414446.557908l-.167373.661519-.247073.996264-.079701.318804c-.01594.047821-.231133.350685-.414446.502117-.135492.103612-.366625.255044-.661519.255044-.374596 0-.629639-.199253-.629639-.6934 0-.207223.063761-.446326.111581-.637609z" transform="translate(183.582254 65.230377)"/><path d="m2.462765-1.992528c0-.757161-.127522-1.665753-.621669-2.606227-.390536-.73325-1.115816-1.378829-1.259278-1.378829-.079701 0-.103611.055791-.103611.095641 0 .031881 0 .047821.095641.143462 1.115816 1.060025 1.370859 2.518556 1.370859 3.745953 0 2.287422-.948443 3.371357-1.354919 3.737983-.103611.103611-.111581.111581-.111581.151432s.02391.095641.103611.095641c.127522 0 .526028-.406476.589788-.478207 1.067995-1.115815 1.291159-2.550436 1.291159-3.506849z" transform="translate(188.67663 65.230377)"/><use x="191.969883" xlink:href="#b" y="61.715755"/><path d="m4.77818-7.767271c.054546-.141818.054546-.174545.054546-.196363 0-.12-.098182-.218182-.218182-.218182-.152727 0-.196363.109091-.229091.218182l-3.719999 10.276361c-.054545.141818-.054545.174545-.054545.196363 0 .12.098182.218182.218182.218182.152727 0 .196363-.109091.229091-.218182z" transform="translate(196.120928 65.965125)"/><use x="201.575479" xlink:href="#d" y="65.230377"/><use x="205.809662" xlink:href="#c" y="65.230377"/><use x="210.934958" xlink:href="#b" y="62.417591"/></svg>