<svg height="6.81818pt" viewBox="70.734745 64.045251 11.194881 6.81818" width="11.194881pt" xmlns="http://www.w3.org/2000/svg"><path d="m2.519999-3.82909c.054546-.229091.163637-.643636.163637-.698181 0-.185455-.130909-.294546-.316364-.294546-.032727 0-.338182.010909-.436363.392727l-1.570909 6.316362c-.032727.130909-.032727.152727-.032727.174546 0 .163636.12.294545.305454.294545.229091 0 .36-.196364.381818-.229091.043637-.098182.185455-.665454.6-2.345454.349091.294546.84.338182 1.058182.338182.763636 0 1.18909-.490909 1.450908-.796363.098182.490909.501818.796363.981818.796363.381818 0 .632727-.250909.807273-.6.185454-.392727.327272-1.058181.327272-1.08 0-.10909-.098182-.10909-.130909-.10909-.109091 0-.12.043636-.152727.196363-.185455.709091-.381818 1.352727-.829091 1.352727-.294545 0-.327272-.283636-.327272-.501818 0-.24.130909-.752727.218181-1.134545l.305455-1.178182c.032727-.163636.141818-.578181.185454-.741818.054546-.250909.163637-.665454.163637-.730908 0-.196364-.152728-.294546-.316364-.294546-.054545 0-.338182.010909-.425454.381818l-.512727 2.04c-.130909.545454-.250909 1.003636-.283637 1.112727-.010909.054545-.534545 1.047272-1.418181 1.047272-.545455 0-.807273-.36-.807273-.949091 0-.316363.076364-.621818.152728-.927272z" transform="translate(70.734745 68.742217)"/><path d="m2.327273-5.292154c.00797-.015941.03188-.119552.03188-.127522 0-.039851-.03188-.111582-.127522-.111582-.03188 0-.278954.023911-.462266.039851l-.446326.03188c-.175343.01594-.255044.023911-.255044.167373 0 .111581.111582.111581.207223.111581.382565 0 .382565.047821.382565.119552 0 .02391 0 .03985-.03985.183312l-1.131756 4.534994c-.031881.119552-.031881.167373-.031881.175343 0 .135492.111582.247073.263014.247073.270984 0 .334745-.255043.366625-.366625.079701-.334745.286924-1.179577.374596-1.514321.438356.04782.972353.199252.972353.653549 0 .03985 0 .079701-.01594.159402-.02391.103612-.039851.215193-.039851.255044 0 .470236.350685.812951.812952.812951.334745 0 .541967-.247073.645579-.398505.191283-.294895.318804-.773101.318804-.820922 0-.079701-.063761-.103611-.119551-.103611-.095642 0-.111582.04782-.143462.191282-.103612.374595-.310835.908593-.68543.908593-.207223 0-.255044-.175342-.255044-.390536 0-.103611.007971-.199252.047821-.382565.00797-.03188.039851-.159402.039851-.247073 0-.65355-.820922-.797012-1.227398-.852802.294895-.175343.565878-.446327.66152-.549938.438356-.430386.797011-.72528 1.179576-.72528.103612 0 .199253.02391.263014.103611-.430386.055791-.430386.430386-.430386.438356 0 .175343.135492.294894.310834.294894.215193 0 .454297-.175342.454297-.502117 0-.270983-.191283-.557907-.589789-.557907-.462266 0-.876712.350685-1.331008.804981-.462267.454296-.66152.541968-.789041.597758z" transform="translate(77.308011 70.519457)"/></svg>