<svg height="6.474206pt" viewBox="70.734745 64.045251 10.840094 6.474206" width="10.840094pt" xmlns="http://www.w3.org/2000/svg"><path d="m2.890908-4.06909h1.232727c-.36 1.614545-.458181 2.083636-.458181 2.814545 0 .163636 0 .458182.087272.829091.109091.479999.229091.545454.392727.545454.218182 0 .447273-.196364.447273-.414545 0-.065455 0-.087273-.065455-.24-.316363-.785455-.316363-1.494545-.316363-1.8 0-.578181.076364-1.167272.196363-1.734545h1.243637c.141818 0 .534545 0 .534545-.370909 0-.261818-.229091-.261818-.436364-.261818h-3.654544c-.24 0-.654545 0-1.134545.512727-.381818.425455-.665455.927273-.665455.981818 0 .010909 0 .109091.130909.109091.087273 0 .109091-.043636.174546-.130909.534545-.84 1.167272-.84 1.385454-.84h.621818c-.349091 1.32-.938182 2.639999-1.396363 3.632726-.087273.163637-.087273.185455-.087273.261819 0 .207272.174545.294545.316364.294545.327272 0 .414545-.305454.545454-.709091.152727-.501818.152727-.523636.294545-1.06909z" transform="translate(70.734745 68.742217)"/><path d="m2.327273-5.292154c.00797-.015941.03188-.119552.03188-.127522 0-.039851-.03188-.111582-.127522-.111582-.03188 0-.278954.023911-.462266.039851l-.446326.03188c-.175343.01594-.255044.023911-.255044.167373 0 .111581.111582.111581.207223.111581.382565 0 .382565.047821.382565.119552 0 .02391 0 .03985-.03985.183312l-1.131756 4.534994c-.031881.119552-.031881.167373-.031881.175343 0 .135492.111582.247073.263014.247073.270984 0 .334745-.255043.366625-.366625.079701-.334745.286924-1.179577.374596-1.514321.438356.04782.972353.199252.972353.653549 0 .03985 0 .079701-.01594.159402-.02391.103612-.039851.215193-.039851.255044 0 .470236.350685.812951.812952.812951.334745 0 .541967-.247073.645579-.398505.191283-.294895.318804-.773101.318804-.820922 0-.079701-.063761-.103611-.119551-.103611-.095642 0-.111582.04782-.143462.191282-.103612.374595-.310835.908593-.68543.908593-.207223 0-.255044-.175342-.255044-.390536 0-.103611.007971-.199252.047821-.382565.00797-.03188.039851-.159402.039851-.247073 0-.65355-.820922-.797012-1.227398-.852802.294895-.175343.565878-.446327.66152-.549938.438356-.430386.797011-.72528 1.179576-.72528.103612 0 .199253.02391.263014.103611-.430386.055791-.430386.430386-.430386.438356 0 .175343.135492.294894.310834.294894.215193 0 .454297-.175342.454297-.502117 0-.270983-.191283-.557907-.589789-.557907-.462266 0-.876712.350685-1.331008.804981-.462267.454296-.66152.541968-.789041.597758z" transform="translate(76.953223 70.519457)"/></svg>