<svg height="6.81818pt" viewBox="70.734745 64.045251 10.269585 6.81818" width="10.269585pt" xmlns="http://www.w3.org/2000/svg"><path d="m.447273-2.770908c.425454-1.254545 1.614545-1.265455 1.734545-1.265455 1.647272 0 1.767272 1.909091 1.767272 2.770909 0 .665454-.054546.850909-.130909 1.06909-.24.796364-.567273 2.061818-.567273 2.345454 0 .12.054546.196364.141818.196364.141818 0 .229091-.24.349091-.654545.250909-.916364.36-1.538182.403636-1.876363.021819-.141819.043637-.283637.087273-.425455.349091-1.08 1.047273-2.705454 1.483636-3.567272.076364-.130909.207273-.370909.207273-.414545 0-.109091-.109091-.109091-.130909-.109091-.032728 0-.098182 0-.130909.076364-.567273 1.036363-1.003636 2.127272-1.44 3.22909-.010909-.338182-.021818-1.167273-.447273-2.225454-.261818-.665455-.698181-1.2-1.450908-1.2-1.363636 0-2.127272 1.658182-2.127272 1.996363 0 .109091.098181.109091.207272.109091z" transform="translate(70.734745 68.742217)"/><path d="m2.327273-5.292154c.00797-.015941.03188-.119552.03188-.127522 0-.039851-.03188-.111582-.127522-.111582-.03188 0-.278954.023911-.462266.039851l-.446326.03188c-.175343.01594-.255044.023911-.255044.167373 0 .111581.111582.111581.207223.111581.382565 0 .382565.047821.382565.119552 0 .02391 0 .03985-.03985.183312l-1.131756 4.534994c-.031881.119552-.031881.167373-.031881.175343 0 .135492.111582.247073.263014.247073.270984 0 .334745-.255043.366625-.366625.079701-.334745.286924-1.179577.374596-1.514321.438356.04782.972353.199252.972353.653549 0 .03985 0 .079701-.01594.159402-.02391.103612-.039851.215193-.039851.255044 0 .470236.350685.812951.812952.812951.334745 0 .541967-.247073.645579-.398505.191283-.294895.318804-.773101.318804-.820922 0-.079701-.063761-.103611-.119551-.103611-.095642 0-.111582.04782-.143462.191282-.103612.374595-.310835.908593-.68543.908593-.207223 0-.255044-.175342-.255044-.390536 0-.103611.007971-.199252.047821-.382565.00797-.03188.039851-.159402.039851-.247073 0-.65355-.820922-.797012-1.227398-.852802.294895-.175343.565878-.446327.66152-.549938.438356-.430386.797011-.72528 1.179576-.72528.103612 0 .199253.02391.263014.103611-.430386.055791-.430386.430386-.430386.438356 0 .175343.135492.294894.310834.294894.215193 0 .454297-.175342.454297-.502117 0-.270983-.191283-.557907-.589789-.557907-.462266 0-.876712.350685-1.331008.804981-.462267.454296-.66152.541968-.789041.597758z" transform="translate(76.382715 70.519457)"/></svg>