<svg height="6.333316pt" viewBox="70.734745 64.045251 9.117994 6.333316" width="9.117994pt" xmlns="http://www.w3.org/2000/svg"><path d="m3.643635-3.294545c.065455-.283636.316364-1.287272 1.08-1.287272.054545 0 .316364 0 .545454.141818-.305454.054546-.523636.327273-.523636.589091 0 .174545.12.381818.414546.381818.239999 0 .58909-.196364.58909-.632727 0-.567273-.643636-.72-1.014545-.72-.632727 0-1.014545.578182-1.145454.829091-.272727-.72-.861818-.829091-1.178182-.829091-1.134545 0-1.756363 1.407272-1.756363 1.68 0 .109091.109091.109091.130909.109091.087273 0 .12-.021819.141818-.12.370909-1.156364 1.090909-1.429091 1.461818-1.429091.207273 0 .589091.098182.589091.730909 0 .338182-.185455 1.069091-.589091 2.596363-.174545.676363-.556363 1.134545-1.036363 1.134545-.065455 0-.316364 0-.545454-.141818.272727-.054546.512727-.283636.512727-.589091 0-.294545-.24-.381818-.403637-.381818-.327272 0-.599999.283636-.599999.632727 0 .501818.545454.72 1.025454.72.72 0 1.112727-.763636 1.145454-.829091.130909.403637.523636.829091 1.178182.829091 1.123636 0 1.745454-1.407272 1.745454-1.68 0-.10909-.098182-.10909-.130909-.10909-.098182 0-.12.043636-.141819.12-.36 1.167272-1.101817 1.42909-1.450908 1.42909-.425455 0-.6-.349091-.6-.72 0-.24.065454-.48.185454-.959999z" transform="translate(70.734745 68.742217)"/><path d="m2.375093-4.97335c0-.175342-.127521-.302864-.310834-.302864-.207223 0-.438356.191282-.438356.430386 0 .175342.127522.302864.310834.302864.207223 0 .438356-.191283.438356-.430386zm-1.163636 2.925031-.430386 1.099876c-.039851.119551-.079701.215193-.079701.350685 0 .390535.302864.677459.72528.677459.773101 0 1.099876-1.115816 1.099876-1.219427 0-.079701-.063761-.103611-.119552-.103611-.095641 0-.111582.05579-.135492.135491-.183313.637609-.510087.964384-.828892.964384-.095641 0-.191282-.039851-.191282-.255044 0-.191282.05579-.334744.159402-.581818.079701-.215193.159402-.430386.247073-.645579l.247074-.645579c.071731-.183313.167372-.430386.167372-.565878 0-.398506-.318804-.677459-.72528-.677459-.773101 0-1.107846 1.115815-1.107846 1.219427 0 .071731.055791.103611.119552.103611.103612 0 .111582-.04782.135492-.127522.223163-.75716.589788-.972353.828892-.972353.111581 0 .191282.03985.191282.263013 0 .079702-.00797.191283-.087671.430386z" transform="translate(76.969599 70.378567)"/></svg>