<svg height="4.696966pt" viewBox="70.734745 64.045251 6.609887 4.696966" width="6.609887pt" xmlns="http://www.w3.org/2000/svg"><path d="m2.890908-4.06909h1.232727c-.36 1.614545-.458181 2.083636-.458181 2.814545 0 .163636 0 .458182.087272.829091.109091.479999.229091.545454.392727.545454.218182 0 .447273-.196364.447273-.414545 0-.065455 0-.087273-.065455-.24-.316363-.785455-.316363-1.494545-.316363-1.8 0-.578181.076364-1.167272.196363-1.734545h1.243637c.141818 0 .534545 0 .534545-.370909 0-.261818-.229091-.261818-.436364-.261818h-3.654544c-.24 0-.654545 0-1.134545.512727-.381818.425455-.665455.927273-.665455.981818 0 .010909 0 .109091.130909.109091.087273 0 .109091-.043636.174546-.130909.534545-.84 1.167272-.84 1.385454-.84h.621818c-.349091 1.32-.938182 2.639999-1.396363 3.632726-.087273.163637-.087273.185455-.087273.261819 0 .207272.174545.294545.316364.294545.327272 0 .414545-.305454.545454-.709091.152727-.501818.152727-.523636.294545-1.06909z" transform="translate(70.734745 68.742217)"/></svg>