<svg height="6.81818pt" viewBox="70.734745 64.045251 6.573266 6.81818" width="6.573266pt" xmlns="http://www.w3.org/2000/svg"><path d="m2.519999-3.82909c.054546-.229091.163637-.643636.163637-.698181 0-.185455-.130909-.294546-.316364-.294546-.032727 0-.338182.010909-.436363.392727l-1.570909 6.316362c-.032727.130909-.032727.152727-.032727.174546 0 .163636.12.294545.305454.294545.229091 0 .36-.196364.381818-.229091.043637-.098182.185455-.665454.6-2.345454.349091.294546.84.338182 1.058182.338182.763636 0 1.18909-.490909 1.450908-.796363.098182.490909.501818.796363.981818.796363.381818 0 .632727-.250909.807273-.6.185454-.392727.327272-1.058181.327272-1.08 0-.10909-.098182-.10909-.130909-.10909-.109091 0-.12.043636-.152727.196363-.185455.709091-.381818 1.352727-.829091 1.352727-.294545 0-.327272-.283636-.327272-.501818 0-.24.130909-.752727.218181-1.134545l.305455-1.178182c.032727-.163636.141818-.578181.185454-.741818.054546-.250909.163637-.665454.163637-.730908 0-.196364-.152728-.294546-.316364-.294546-.054545 0-.338182.010909-.425454.381818l-.512727 2.04c-.130909.545454-.250909 1.003636-.283637 1.112727-.010909.054545-.534545 1.047272-1.418181 1.047272-.545455 0-.807273-.36-.807273-.949091 0-.316363.076364-.621818.152728-.927272z" transform="translate(70.734745 68.742217)"/></svg>