<svg height="21.4739pt" viewBox="70.7347 57.7986 87.3226 21.4739" width="87.3226pt" xmlns="http://www.w3.org/2000/svg" xmlns:xlink="http://www.w3.org/1999/xlink"><defs><path id="a" d="m4.12055 4.12852c.09564-.10361.09564-.11955.09564-.14346 0-.00797 0-.04782-.06376-.12753l-2.72578-3.490905h3.31557c1.0122 0 1.6259.119552 1.99252.239104.64558.215193 1.25131.685431 1.48245 1.307101h.24707l-.72528-1.91283h-7.02167c-.239103 0-.247073.00797011-.247073.286924l3.076463 3.953176-2.996762 3.49091c-.071731.08767-.079701.08767-.079701.12752 0 .11158.103611.11158.247073.11158h7.02167l.72528-2.03238h-.24707c-.19129.54994-.73325 1.13176-1.69764 1.37883-.56588.14346-1.13972.16738-1.72154.16738h-3.55467z"/><path id="b" d="m2.14595-3.79577c0-.17932-.02391-.17932-.20324-.17932-.39452.38256-1.004229.38256-1.219422.38256v.23313c.155417 0 .549942 0 .908592-.16737v3.018675c0 .197261 0 .274969-.61569.274969h-.257037v.233126c.328767-.0239103.795017-.0239103 1.129767-.0239103s.80099 0 1.12976.0239103v-.233126h-.25704c-.61569 0-.61569-.077708-.61569-.274969z"/><path id="c" d="m4.88966-2.0264c.08369 0 .22117 0 .22117-.15542s-.16139-.15542-.25105-.15542h-4.136492c-.089664 0-.251059 0-.251059.15542s.137485.15542.221171.15542zm-.02988 1.374843c.08966 0 .25105 0 .25105-.155417s-.13748-.155417-.22117-.155417h-4.19626c-.083686 0-.221171 0-.221171.155417s.161395.155417.251059.155417z"/><path id="d" d="m3.26775-1.28319c-.09565-.98032-.49415-1.6259-.50212-1.63387-.17534-.27098-.47024-.59776-.99627-.59776-1.03611 0-1.625898 1.15567-1.625898 1.43462 0 .07173.063761.09564.119552.09564.079701 0 .103611-.02391.127521-.08767.239104-.71731 1.028145-.82092 1.267245-.82092 1.28319 0 1.37883 1.3868 1.37883 2.056288 0 .438356-.02391.510087-.0797.6934-.17534.565878-.41444 1.450562-.41444 1.681692 0 .01594.00797.17534.13549.17534.08767 0 .1594-.11955.22316-.3188.23113-.741221.30287-1.267248.35069-1.625903.02391-.167373.47023-1.498377 1.21145-2.893147.09564-.17535.09564-.19129.09564-.2152 0-.00797 0-.09564-.11955-.09564-.03188 0-.06376.00797-.08767.03188-.03188.02391-.66152 1.19552-1.06002 2.29539z"/><path id="e" d="m3.99303-3.18007c-.35069.08767-.36663.3985-.36663.43038 0 .17534.13549.2949.31084.2949s.44632-.1355.44632-.47821c0-.4543-.50212-.58182-.79701-.58182-.37459 0-.67746.26301-.86077.57385-.17534-.42242-.58979-.57385-.91656-.57385-.868747 0-1.354924.99626-1.354924 1.21943 0 .07173.055791.10361.119552.10361.095641 0 .111582-.03985.135492-.13549.183313-.58182.66152-.96439 1.07597-.96439.31083 0 .46226.22317.46226.51009 0 .1594-.09564.52603-.1594.78107-.05579.23114-.23113.94048-.27098 1.091907-.11159.430386-.39851.765131-.75717.765131-.03188 0-.239098 0-.406471-.111582.366621-.087671.366621-.422416.366621-.430386 0-.183312-.143458-.294894-.3188-.294894-.215193 0-.446326.183313-.446326.486177 0 .366625.390535.5738481.797006.5738481.42242 0 .71731-.3188041.86078-.5738481.17534.390536.54196.5738481.92453.5738481.86874 0 1.34695-.9962641 1.34695-1.2194311 0-.0797-.06376-.10361-.11955-.10361-.09564 0-.11158.05579-.13549.13549-.15941.534002-.6137.964388-1.07597.964388-.26301 0-.4543-.175342-.4543-.510087 0-.159402.04782-.342715.15941-.789041.05579-.2391.23113-.94047.27098-1.09191.11158-.41444.39054-.75716.74919-.75716.03985 0 .24707 0 .41445.11159z"/><path id="f" d="m2.65405 1.99253c.06376 0 .1594 0 .1594-.09564 0-.03188-.00797-.03985-.11158-.14347-1.09191-1.02814-1.36289-2.510581-1.36289-3.74595 0-2.29539.94844-3.37136 1.35492-3.73798.11158-.10361.11955-.11158.11955-.15143s-.03188-.09564-.11158-.09564c-.12752 0-.52603.40647-.58979.4782-1.068 1.11582-1.291158 2.55044-1.291158 3.50685 0 1.785307.749188 3.21993 1.833128 3.98506z"/><path id="g" d="m2.46276-1.99253c0-.75716-.12752-1.66575-.62166-2.60622-.39054-.73325-1.11582-1.37883-1.259282-1.37883-.079701 0-.103611.05579-.103611.09564 0 .03188 0 .04782.095641.14346 1.115812 1.06002 1.370862 2.51855 1.370862 3.74595 0 2.287424-.948446 3.37136-1.354922 3.73798-.103611.10362-.111581.11159-.111581.15144s.02391.09564.103611.09564c.127522 0 .526032-.40648.589792-.47821 1.06799-1.115814 1.29115-2.55043 1.29115-3.50685z"/><path id="h" d="m5.26027-3.42516c.06576-.25105.18531-.40049.63961-.41843.03586 0 .1315-.00597.1315-.14346 0-.05977-.03586-.09564-.09564-.09564-.14346 0-.49614.02391-.6396.02391l-.32877-.00598c-.10759 0-.23312-.01793-.33474-.01793s-.13151.07771-.13151.14944c0 .08966.09564.08966.14346.08966.28095.00598.39452.08369.39452.23911 0 .02391-.00597.05977-.01195.09564l-.65754 2.624158-1.63188-3.090408c-.05977-.10162-.06575-.1076-.20921-.1076h-.86077c-.11358 0-.20324 0-.20324.14944 0 .08966.08368.08966.22117.08966.03586 0 .2391 0 .38256.02989l-.78904 3.150188c-.05977.227148-.14944.406476-.645576.424409-.077709 0-.131507.041843-.131507.1554168.005978.0239104.011955.0836862.101619.0836862.143462 0 .496144-.0239103.639604-.0239103l.32876.0059775c.1076 0 .23313.0179328.33475.0179328.12553 0 .13151-.125529.13151-.155417-.01794-.083686-.07771-.083686-.14944-.083686-.27497-.005978-.39452-.083687-.39452-.239104 0-.035865.00597-.059776.02391-.125529l.76513-3.054544 1.87696 3.556661c.04184.0836862.0538.101619.13748.101619.10162 0 .11358-.0298879.13749-.137484z"/><path id="i" d="m1.98456-3.96912c.00598-.02391.01793-.05977.01793-.08966 0-.09564-.11955-.08966-.19128-.08369l-.66949.0538c-.10162.00598-.179329.01196-.179329.15542 0 .08966.077709.08966.173349.08966.17335 0 .21519.01794.2929.04185 0 .07173 0 .08368-.02391.17932l-.83686 3.341474c-.02391.095641-.02391.125529-.02391.137484 0 .14943958.119552.2032378.209216.2032378.059775 0 .167372-.0239103.245081-.1374844.041843-.0777084.280943-1.0699914.322793-1.2612714.40049.02989.83088.12553.83088.478208 0 .029888 0 .059776-.01793.125529-.01794.089664-.01794.125529-.01794.17335 0 .394521.33475.6216688.67547.6216688.57983 0 .78904-.8727268.78904-.9205478 0-.011955-.00597-.083686-.11357-.083686-.08369 0-.09564.035865-.12553.137484-.05978.215193-.22715.66949-.53201.66949-.22714 0-.22714-.257037-.22714-.32279 0-.095641 0-.101619.02988-.221171 0-.005977.02989-.125529.02989-.19726 0-.460275-.52005-.603735-.98032-.645575.14346-.08967.26899-.18531.50809-.39452.29888-.26302.60972-.52005.93848-.52005.07771 0 .14944.01793.20324.0777-.20921.04185-.29888.20922-.29888.33475 0 .19128.15542.23312.23911.23312.1315 0 .3467-.09564.3467-.39452 0-.25703-.19129-.44831-.48419-.44831-.37659 0-.72926.28692-1.00423.52602-.31084.26899-.49614.42441-.71731.5081z"/><path id="j" d="m1.75143-2.06824c-.02989-.4543-.44832-.56787-.67546-.56787s-.38257.13748-.490167.32876c-.149439.24508-.22117.5619-.22117.58581 0 .06575.053798.08966.107596.08966.095641 0 .101619-.04184.131507-.13748.119552-.47821.263014-.66949.454294-.66949.2152 0 .2152.24508.2152.30485 0 .09564-.05978.33475-.10162.50212-.04185.16139-.10162.40648-.13151.53798-.041843.149442-.077709.304859-.119552.454299-.041843.167372-.113574.466251-.113574.502117 0 .13150642.101619.1972598.209216.1972598s.20921-.071731.25704-.1613948c.01195-.035865.06575-.245081.09564-.364633l.1315-.537978c.04185-.15542.06576-.26302.10162-.4005.0538-.20324.26302-.52005.48419-.74122.11955-.11358.37658-.2929.69937-.2929.38257 0 .38257.30485.38257.41843 0 .35267-.25704.99228-.36463 1.261267-.03587.101619-.07771.19726-.07771.298879 0 .304857.27497.5200498.60373.5200498.60374 0 .90262-.7890408.90262-.9205478 0-.011955-.00598-.083686-.11357-.083686-.08369 0-.08967.029888-.12553.143462-.09565.316812-.34073.663512-.64558.663512-.11358 0-.1614-.089664-.1614-.215193 0-.119552.04185-.221171.09564-.3467.08967-.233126.35866-.908593.35866-1.243333 0-.49017-.37061-.6934-.82491-.6934-.29888 0-.68144.09564-1.06401.56787z"/></defs><path d="m2.52-3.82909c.05454-.22909.16364-.64364.16364-.69818 0-.18546-.13091-.29455-.31637-.29455-.03273 0-.33818.01091-.43636.39273l-1.57091 6.31636c-.032727.13091-.032727.15273-.032727.17455 0 .16363.12.29454.305454.29454.229091 0 .36-.19636.381823-.22909.04363-.09818.18545-.66545.6-2.345452.34909.2945456.83999.338182 1.05818.338182.76363 0 1.18909-.490909 1.45091-.796363.09818.490909.50181.796363.98181.796363.38182 0 .63273-.250909.80728-.6.18545-.392727.32727-1.05818.32727-1.08 0-.10909-.09818-.10909-.13091-.10909-.10909 0-.12.04364-.15273.19636-.18545.709094-.38182 1.35273-.82909 1.35273-.29454 0-.32727-.283636-.32727-.501818 0-.24.13091-.752732.21818-1.134542l.30545-1.17818c.03273-.16364.14182-.57819.18546-.74182.05454-.25091.16364-.66546.16364-.73091 0-.19637-.15273-.29455-.31637-.29455-.05454 0-.33818.01091-.42545.38182l-.51273 2.04c-.13091.54546-.25091 1.00364-.28364 1.11273-.0109.05454-.53454 1.04727-1.41818 1.04727-.54545 0-.80727-.36-.80727-.94909 0-.31636.07636-.62182.15273-.92727z" transform="translate(70.7347 71.2552)"/><path d="m2.32727-5.29215c.00797-.01594.03188-.11956.03188-.12753 0-.03985-.03188-.11158-.12752-.11158-.03188 0-.27895.02391-.46227.03985l-.44632.03188c-.17534.01594-.25504.02391-.25504.16738 0 .11158.11158.11158.20722.11158.38256 0 .38256.04782.38256.11955 0 .02391 0 .03985-.03985.18331l-1.131753 4.534995c-.031881.119552-.031881.167373-.031881.175343 0 .1354916.111582.2470731.263014.2470731.270984 0 .33474-.2550431.36663-.3666251.0797-.334745.28692-1.179576.37459-1.514326.43836.04783.97235.19926.97235.65355 0 .03985 0 .0797-.01594.159406-.02391.103612-.03985.215193-.03985.255044 0 .470236.35069.8129511.81295.8129511.33475 0 .54197-.2470731.64558-.3985051.19129-.294895.31881-.773106.31881-.820926 0-.0797-.06376-.10361-.11955-.10361-.09564 0-.11158.04782-.14347.19129-.10361.37459-.31083.908588-.68542.908588-.20723 0-.25505-.175342-.25505-.390536 0-.103611.00797-.199252.04782-.382565.00797-.03188.03985-.159407.03985-.247077 0-.65355-.82092-.79701-1.22739-.8528.29489-.17534.56587-.44632.66151-.54994.43836-.43038.79702-.72528 1.17958-.72528.10361 0 .19925.02391.26302.10362-.43039.05579-.43039.43038-.43039.43835 0 .17534.13549.2949.31083.2949.2152 0 .4543-.17535.4543-.50212 0-.27099-.19128-.55791-.58979-.55791-.46227 0-.87671.35069-1.33101.80498-.46226.4543-.66152.54197-.78904.59776z" transform="translate(77.2835 73.0324)"/><path d="m7.49454-3.56727c.16364 0 .37091 0 .37091-.21818s-.20727-.21819-.36-.21819h-6.534541c-.152727 0-.36 0-.36.21819s.207273.21818.370909.21818zm.01091 2.11636c.15273 0 .36 0 .36-.21818s-.20727-.21818-.37091-.21818h-6.512722c-.163636 0-.370909 0-.370909.21818s.207273.21818.36.21818z" transform="translate(85.4334 71.2552)"/><use x="98.1124" xlink:href="#a" y="59.405"/><use x="107.051" xlink:href="#h" y="61.868"/><use x="107.051" xlink:href="#j" y="67.8734"/><use x="111.635" xlink:href="#c" y="67.8734"/><use x="117.204" xlink:href="#b" y="67.8734"/><use x="122.805" xlink:href="#d" y="65.3827"/><use x="127.15" xlink:href="#i" y="66.7885"/><use x="131.723" xlink:href="#f" y="65.3827"/><use x="135.004" xlink:href="#e" y="65.3827"/><use x="139.753" xlink:href="#j" y="66.3789"/><use x="144.852" xlink:href="#g" y="65.3827"/><use x="148.133" xlink:href="#e" y="65.3827"/><use x="152.882" xlink:href="#j" y="66.3789"/><path d="m98.1124 68.3097h59.945v.436352h-59.945z"/><use x="103.045" xlink:href="#a" y="70.8042"/><use x="111.984" xlink:href="#h" y="73.2671"/><use x="111.984" xlink:href="#j" y="79.2725"/><use x="116.568" xlink:href="#c" y="79.2725"/><use x="122.137" xlink:href="#b" y="79.2725"/><use x="127.737" xlink:href="#d" y="76.7818"/><use x="132.083" xlink:href="#i" y="78.1876"/><use x="136.656" xlink:href="#f" y="76.7818"/><use x="139.937" xlink:href="#e" y="76.7818"/><use x="144.686" xlink:href="#j" y="77.778"/><use x="149.785" xlink:href="#g" y="76.7818"/></svg>