<svg height="18.739008pt" viewBox="70.734745 59.275915 252.007485 18.739008" width="252.007485pt" xmlns="http://www.w3.org/2000/svg" xmlns:xlink="http://www.w3.org/1999/xlink"><defs><path id="a" d="m1.354919-5.67472c0-.127522 0-.302864-.183313-.302864s-.183312.175342-.183312.302864v7.364384c0 .127522 0 .302864.183312.302864s.183313-.175342.183313-.302864z"/><path id="b" d="m3.610908 2.618181c0-.032727 0-.054545-.185454-.24-1.363636-1.374545-1.712727-3.436363-1.712727-5.105453 0-1.898181.414545-3.796363 1.756363-5.159999.141818-.130909.141818-.152727.141818-.185454 0-.076364-.043636-.109091-.109091-.109091-.109091 0-1.090909.741818-1.734545 2.127272-.556363 1.2-.687272 2.410909-.687272 3.327272 0 .850909.12 2.170909.719999 3.403635.654546 1.341818 1.592727 2.050909 1.701818 2.050909.065455 0 .109091-.032727.109091-.109091z"/><path id="c" d="m3.152726-2.727272c0-.850909-.12-2.170908-.719999-3.403635-.654546-1.341818-1.592727-2.050909-1.701818-2.050909-.065455 0-.109091.043636-.109091.109091 0 .032727 0 .054545.207273.250909 1.06909 1.08 1.690908 2.814545 1.690908 5.094544 0 1.865454-.403636 3.785454-1.756363 5.159999-.141818.130909-.141818.152727-.141818.185454 0 .065455.043636.109091.109091.109091.109091 0 1.090909-.741818 1.734545-2.127272.556363-1.2.687272-2.410909.687272-3.327272z"/><path id="d" d="m2.519999-3.82909c.054546-.229091.163637-.643636.163637-.698181 0-.185455-.130909-.294546-.316364-.294546-.032727 0-.338182.010909-.436363.392727l-1.570909 6.316362c-.032727.130909-.032727.152727-.032727.174546 0 .163636.12.294545.305454.294545.229091 0 .36-.196364.381818-.229091.043637-.098182.185455-.665454.6-2.345454.349091.294546.84.338182 1.058182.338182.763636 0 1.18909-.490909 1.450908-.796363.098182.490909.501818.796363.981818.796363.381818 0 .632727-.250909.807273-.6.185454-.392727.327272-1.058181.327272-1.08 0-.10909-.098182-.10909-.130909-.10909-.109091 0-.12.043636-.152727.196363-.185455.709091-.381818 1.352727-.829091 1.352727-.294545 0-.327272-.283636-.327272-.501818 0-.24.130909-.752727.218181-1.134545l.305455-1.178182c.032727-.163636.141818-.578181.185454-.741818.054546-.250909.163637-.665454.163637-.730908 0-.196364-.152728-.294546-.316364-.294546-.054545 0-.338182.010909-.425454.381818l-.512727 2.04c-.130909.545454-.250909 1.003636-.283637 1.112727-.010909.054545-.534545 1.047272-1.418181 1.047272-.545455 0-.807273-.36-.807273-.949091 0-.316363.076364-.621818.152728-.927272z"/><path id="e" d="m5.290908-4.483635-.916364-2.170909c-.032727-.087272-.054545-.130909-.054545-.141818 0-.065454.185454-.272727.643636-.316363.109091-.010909.218182-.021818.218182-.207273 0-.130909-.130909-.130909-.163637-.130909-.447272 0-.916363.032727-1.374545.032727-.272727 0-.94909-.032727-1.221817-.032727-.065455 0-.196364 0-.196364.218182 0 .12.109091.12.250909.12.654545 0 .72.109091.818182.349091l1.287272 3.043635-2.301818 2.476363-.141818.12c-.534545.578182-1.047272.752727-1.603636.785454-.141818.010909-.24.010909-.24.218182 0 .010909 0 .12.141819.12.327272 0 .687272-.032727 1.025454-.032727.403636 0 .82909.032727 1.221818.032727.065454 0 .196363 0 .196363-.218182 0-.109091-.109091-.12-.130909-.12-.098182-.010909-.436363-.032727-.436363-.338181 0-.174546.163636-.349091.294545-.490909l1.112727-1.178182.981818-1.069091 1.101818 2.607272c.043636.12.054545.13091.054545.152728 0 .087272-.207272.272727-.632727.316363-.12.010909-.218182.021818-.218182.207273 0 .130909.12.130909.163637.130909.305454 0 1.06909-.032727 1.374545-.032727.272727 0 .938181.032727 1.210908.032727.076364 0 .207273 0 .207273-.207273 0-.130909-.109091-.130909-.196363-.130909-.730909-.010909-.752728-.043636-.938182-.48-.425454-1.014545-1.156363-2.716362-1.407272-3.370908.741818-.763636 1.887272-2.061817 2.236363-2.367272.316363-.261818.730909-.523636 1.385454-.556363.141818-.010909.24-.010909.24-.218182 0-.010909 0-.12-.141818-.12-.327273 0-.687273.032727-1.025455.032727-.403636 0-.818181-.032727-1.210908-.032727-.065455 0-.207273 0-.207273.218182 0 .076363.054545.109091.130909.12.098182.010909.436364.032727.436364.338181 0 .152728-.12.294546-.207273.392728z"/><path id="f" d="m2.502615-5.076961c0-.215193-.01594-.223164-.231133-.223164-.326775.318805-.749191.510088-1.506351.510088v.263013c.215193 0 .645579 0 1.107845-.215193v4.088668c0 .294894-.02391.390535-.781071.390535h-.278954v.263014c.326775-.02391 1.012205-.02391 1.37086-.02391s1.052055 0 1.378829.02391v-.263014h-.278954c-.75716 0-.781071-.095641-.781071-.390535z"/><path id="g" d="m2.247572-1.625903c.127521-.119552.462266-.382565.589788-.494147.494147-.454296.964383-.892652.964383-1.617933 0-.948443-.797011-1.562142-1.793275-1.562142-.956413 0-1.586052.725281-1.586052 1.434621 0 .390535.310834.446326.422416.446326.167372 0 .414446-.119552.414446-.422416 0-.414446-.398506-.414446-.494147-.414446.231133-.581818.765131-.781071 1.155666-.781071.74122 0 1.123786.629639 1.123786 1.299128 0 .828892-.581818 1.434621-1.522292 2.399004l-1.004234 1.036115c-.095641.087671-.095641.103611-.095641.302864h3.148194l.231133-1.42665h-.247073c-.02391.159402-.087671.557908-.183313.70934-.04782.063761-.653549.063761-.781071.063761h-1.41868z"/><path id="h" d="m7.189089-2.50909c.185454 0 .381818 0 .381818-.218182s-.196364-.218182-.381818-.218182h-5.901817c-.185454 0-.381818 0-.381818.218182s.196364.218182.381818.218182z"/></defs><path d="m8.290907-7.581816c0-.032727-.021818-.109091-.12-.109091-.032727 0-.043637.010909-.163637.130909l-.763636.84c-.098181-.152727-.599999-.970909-1.810908-.970909-2.432727 0-4.887272 2.410908-4.887272 4.941817 0 1.734545 1.210909 2.98909 2.978181 2.98909.48 0 .970909-.098182 1.363636-.261818.545455-.218182.752727-.447273.949091-.665455.098182.272728.381818.676364.490909.676364.054545 0 .076364-.032727.076364-.043636.021818-.021819.130909-.436364.185454-.665455l.207273-.84c.043636-.185454.098182-.370909.141818-.556363.12-.490909.130909-.512727.752727-.523636.054545 0 .174545-.010909.174545-.218182 0-.076364-.054545-.12-.141818-.12-.250909 0-.894545.032727-1.145454.032727-.338182 0-1.189091-.032727-1.527272-.032727-.098182 0-.229091 0-.229091.218182 0 .12.087273.12.327272.12.01091 0 .327273 0 .578182.021818.283636.032727.338182.065454.338182.207273 0 .098181-.12.58909-.229091.992727-.305454 1.199999-1.723636 1.319999-2.105454 1.319999-1.047272 0-2.192727-.621818-2.192727-2.290908 0-.338182.109091-2.138181 1.254545-3.556363.589091-.741818 1.647273-1.407272 2.727272-1.407272 1.112727 0 1.756364.84 1.756364 2.105454 0 .436363-.032728.447272-.032728.556363s.12.109091.163637.109091c.141818 0 .141818-.021818.196363-.218182z" transform="translate(70.734745 68.742217)"/><use x="79.312006" xlink:href="#b" y="68.742217"/><use x="83.554444" xlink:href="#e" y="68.742217"/><path d="m1.734545-7.789089c0-.196363 0-.392727-.218182-.392727s-.218182.196364-.218182.392727v10.123634c0 .196363 0 .392727.218182.392727s.218182-.196364.218182-.392727z" transform="translate(93.448383 68.742217)"/><use x="96.478694" xlink:href="#d" y="68.742217"/><path d="m2.214545-.010909c0-.72-.272727-1.145454-.698182-1.145454-.36 0-.578181.272727-.578181.578181 0 .294546.218181.578182.578181.578182.130909 0 .272727-.043636.381818-.141818.032728-.021818.043637-.032727.054546-.032727s.021818.010909.021818.163636c0 .807272-.381818 1.461818-.741818 1.821818-.12.12-.12.141818-.12.174545 0 .076364.054545.12.109091.12.12 0 .992727-.84.992727-2.116363z" transform="translate(103.05196 68.742217)"/><path d="m4.058181-3.556363c.098181-.109091.098181-.152727.098181-.174545 0-.054545-.043636-.109091-.076363-.152727l-2.236363-3.22909h2.519999c1.843636 0 2.38909.392727 2.618181 2.116363h.272727l-.305454-2.454545h-6.054544c-.261818 0-.283636 0-.283636.250909l2.716363 3.94909-2.596363 2.956363c-.109091.12-.109091.141818-.109091.174545 0 .12.109091.12.272727.12h6.054544l.305454-2.574545h-.272727c-.196363 1.821818-.938181 2.116363-2.650908 2.116363h-3.010908z" transform="translate(107.90042 68.742217)"/><use x="115.779228" xlink:href="#c" y="68.742217"/><path d="m7.494543-3.567272c.163637 0 .370909 0 .370909-.218181s-.207272-.218182-.36-.218182h-6.534543c-.152727 0-.36 0-.36.218182s.207273.218181.370909.218181zm.010909 2.116363c.152728 0 .36 0 .36-.218181s-.207272-.218182-.370909-.218182h-6.512725c-.163636 0-.370909 0-.370909.218182s.207273.218181.36.218181z" transform="translate(123.051913 68.742217)"/><use x="152.053693" xlink:href="#f" y="64.446968"/><path d="m135.76255 65.79678h36.816467v.436352h-36.816467z"/><path d="m4.243635 9.32727-1.919999-4.243635c-.076364-.174545-.130909-.174545-.163637-.174545-.010909 0-.065454 0-.185454.087272l-1.036363.785455c-.141819.10909-.141819.141818-.141819.174545 0 .054545.032728.12.109091.12.065455 0 .250909-.152727.370909-.24.065455-.054545.229091-.174545.349091-.261818l2.14909 4.723635c.076364.174545.130909.174545.229091.174545.163637 0 .196364-.065454.272727-.218181l4.952726-10.254543c.076364-.152727.076364-.196364.076364-.218182 0-.109091-.087273-.218182-.218182-.218182-.087273 0-.163636.054546-.250909.229091z" transform="translate(135.76255 67.542188)"/><path d="m144.853475 67.105836h27.725543v.436352h-27.725543z"/><path d="m2.654047 1.992528c.063761 0 .159403 0 .159403-.095641 0-.031881-.007971-.039851-.111582-.143462-1.091905-1.028145-1.362889-2.510586-1.362889-3.745953 0-2.295392.948443-3.371357 1.354919-3.737983.111581-.103611.119552-.111581.119552-.151432s-.031881-.095641-.111582-.095641c-.127522 0-.526027.406476-.589788.478207-1.067995 1.115815-1.291158 2.550436-1.291158 3.506849 0 1.785305.74919 3.219925 1.833125 3.985056z" transform="translate(144.853475 74.995242)"/><use x="148.146728" xlink:href="#g" y="74.995242"/><path d="m2.263512-2.909091h.916563c-.167373.72528-.310835 1.315069-.310835 1.904857 0 .055791 0 .398505.087672.68543.103611.334744.183312.398505.326774.398505.175343 0 .358655-.151432.358655-.342715 0-.05579-.00797-.071731-.03985-.143462-.167373-.366625-.286924-.74919-.286924-1.402739 0-.183313 0-.518058.119551-1.099876h.964384c.127522 0 .215193 0 .294894-.063761.095641-.087671.119552-.191282.119552-.239103 0-.223163-.199253-.223163-.334745-.223163h-2.87721c-.167373 0-.470237 0-.860773.382565-.286924.286924-.510087.653549-.510087.70934 0 .071731.055791.095641.119552.095641.079701 0 .095641-.02391.143462-.087671.390535-.573848.860772-.573848 1.044085-.573848h.462266c-.231133.844832-.653549 1.809216-.948443 2.391034-.055791.119551-.135492.278954-.135492.350685 0 .167372.135492.247073.263014.247073.302864 0 .382565-.302864.549937-.956413z" transform="translate(152.380911 74.995242)"/><path d="m2.462765-1.992528c0-.757161-.127522-1.665753-.621669-2.606227-.390536-.73325-1.115816-1.378829-1.259278-1.378829-.079701 0-.103611.055791-.103611.095641 0 .031881 0 .047821.095641.143462 1.115816 1.060025 1.370859 2.518556 1.370859 3.745953 0 2.287422-.948443 3.371357-1.354919 3.737983-.103611.103611-.111581.111581-.111581.151432s.02391.095641.103611.095641c.127522 0 .526028-.406476.589788-.478207 1.067995-1.115815 1.291159-2.550436 1.291159-3.506849z" transform="translate(157.529724 74.995242)"/><use x="160.822978" xlink:href="#a" y="74.995242"/><path d="m4.064757-2.566376c.079701-.071731.111582-.095641.111582-.167372 0-.023911-.00797-.071731-.079701-.159403l-1.888917-2.1599h1.689664c1.139726 0 1.960647.151432 2.1599 1.522291h.446326l-.263013-1.936737h-5.419676c-.151433 0-.278954 0-.278954.207223 0 .103611.00797.111582.079701.191283l2.375093 2.725778-2.343213 2.008468c-.079701.071731-.111581.095642-.111581.167373 0 .167372.167372.167372.278954.167372h5.419676l.263013-2.088169h-.446326c-.183312 1.386799-1.044085 1.522291-2.1599 1.522291h-2.167871z" transform="translate(163.175301 74.995242)"/><use x="170.226694" xlink:href="#a" y="74.995242"/><path d="m1.221818-2.74909c.065454-1.625454.981818-1.898181 1.352727-1.898181 1.123636 0 1.232727 1.472726 1.232727 1.898181zm-.010909.229091h3.043635c.24 0 .272727 0 .272727-.229091 0-1.08-.58909-2.138181-1.952726-2.138181-1.265454 0-2.269091 1.123636-2.269091 2.487272 0 1.461817 1.145455 2.519999 2.4 2.519999 1.330909 0 1.821817-1.210909 1.821817-1.418181 0-.109091-.087272-.13091-.141818-.13091-.098181 0-.12.065455-.141818.152728-.381818 1.123636-1.363636 1.123636-1.472727 1.123636-.545454 0-.981818-.327273-1.232727-.730909-.327272-.523636-.327272-1.243636-.327272-1.636363z" transform="translate(175.59268 68.742217)"/><path d="m3.130908-2.563636c.327273-.414545.741818-.94909 1.003636-1.232727.338182-.392727.785455-.556363 1.298182-.567272v-.338182c-.283637.021818-.610909.032727-.894545.032727-.327273 0-.905455-.021818-1.047273-.032727v.338182c.229091.021818.316364.163636.316364.338182s-.109091.316363-.163637.381818l-.676363.850909-.850909-1.101818c-.098182-.109091-.098182-.130909-.098182-.196364 0-.163636.163637-.261818.381818-.272727v-.338182c-.283636.010909-1.003636.032727-1.178181.032727-.229091 0-.741818-.010909-1.036364-.032727v.338182c.763637 0 .774546.010909 1.287273.665454l1.08 1.407273-1.025455 1.298181c-.523636.632727-1.167272.654545-1.396363.654545v.338182c.283636-.021818.621818-.032727.905454-.032727.316364 0 .774546.021818 1.036364.032727v-.338182c-.24-.032727-.316364-.174545-.316364-.338181 0-.24.316364-.6.981818-1.385455l.829091 1.090909c.087272.12.229091.294546.229091.36 0 .098182-.098182.261818-.392728.272727v.338182c.327273-.010909.938182-.032727 1.178182-.032727.294545 0 .72.010909 1.047272.032727v-.338182c-.58909 0-.785454-.021818-1.036363-.338181z" transform="translate(180.441176 68.742217)"/><path d="m1.876363-4.101817v-.72l-1.570909.12v.338182c.774546 0 .850909.065454.850909.545454v5.105453c0 .490909-.12.490909-.850909.490909v.338182c.370909-.010909.938182-.032727 1.221818-.032727.294546 0 .850909.021818 1.232727.032727v-.338182c-.730909 0-.850909 0-.850909-.490909v-1.832726-.098182c.054546.174545.512728.763636 1.341818.763636 1.298182 0 2.432727-1.069091 2.432727-2.476363 0-1.385454-1.058182-2.465454-2.28-2.465454-.850908 0-1.30909.48-1.527272.72zm.032727 2.858181v-2.432727c.316364-.556363.850909-.872727 1.407273-.872727.796363 0 1.461817.96 1.461817 2.192727 0 1.32-.763636 2.236363-1.570908 2.236363-.436364 0-.850909-.218182-1.145454-.665454-.152728-.229091-.152728-.24-.152728-.458182z" transform="translate(186.19878 68.742217)"/><path d="m4.505453 12.534542c0-.043636-.021818-.065455-.043636-.098182-.501818-.534545-1.243636-1.418181-1.701818-3.196363-.250909-.992727-.349091-2.116363-.349091-3.130908 0-2.86909.687273-4.876362 1.996363-6.294543.098182-.098182.098182-.12.098182-.141819 0-.109091-.087272-.109091-.130909-.109091-.163636 0-.752727.654546-.894545.818182-1.112727 1.32-1.821818 3.283636-1.821818 5.716362 0 1.549091.272728 3.741817 1.701818 5.585453.109091.130909.818182.96 1.014545.96.043637 0 .130909 0 .130909-.109091z" transform="translate(194.07753 59.905801)"/><use x="199.077548" xlink:href="#h" y="68.742217"/><use x="208.757938" xlink:href="#f" y="64.446968"/><path d="m208.757938 65.79678h4.234183v.436352h-4.234183z"/><use x="208.757938" xlink:href="#g" y="72.504111"/><use x="214.187635" xlink:href="#b" y="68.742217"/><use x="218.430073" xlink:href="#e" y="68.742217"/><use x="230.74821" xlink:href="#h" y="68.742217"/><use x="241.657284" xlink:href="#d" y="68.742217"/><use x="248.23055" xlink:href="#c" y="68.742217"/><path d="m3.602491-4.821918c.071731-.286924.079701-.302864.406475-.302864h.605729c.828892 0 .924533.263014.924533.661519 0 .199253-.047821.541968-.055791.581818-.01594.087672-.02391.159403-.02391.175343 0 .103611.071731.127522.119551.127522.087672 0 .119552-.047821.143462-.199253l.215193-1.498381c0-.111582-.095641-.111582-.239103-.111582h-4.694396c-.199253 0-.215193 0-.270984.167373l-.486177 1.378829c-.01594.039851-.03985.103611-.03985.151432 0 .063761.055791.111582.119552.111582.087671 0 .103611-.039851.151432-.175343.454296-1.275218.685429-1.370859 1.896886-1.370859h.310835c.239103 0 .247073.00797.247073.071731 0 .02391-.03188.183313-.03985.215193l-1.052055 4.184309c-.071731.302864-.095641.390535-.924533.390535-.255044 0-.334745 0-.334745.151432 0 .007971 0 .111582.135492.111582.215193 0 .765131-.02391.980324-.02391h.677459c.223164 0 .781071.02391 1.004235.02391.06376 0 .183312 0 .183312-.151432 0-.111582-.087671-.111582-.302864-.111582-.191283 0-.255044 0-.462267-.01594-.255043-.02391-.286924-.055791-.286924-.159402 0-.031881.00797-.063761.031881-.143462z" transform="translate(252.472988 64.783399)"/><path d="m5.236362-3.534544c.065455-.054546.130909-.109091.130909-.207273 0-.065455-.043636-.12-.076363-.163636l-2.487272-3.065454h2.225454c1.614545 0 2.574544.294545 2.814544 2.116363h.512727l-.338181-2.62909h-6.970908c-.218181 0-.34909 0-.34909.261818 0 .109091 0 .130909.109091.250909l3.10909 3.82909-3.087272 2.738181c-.065455.054545-.130909.109091-.130909.207272 0 .196364.185454.196364.34909.196364h6.970908l.338181-2.836363h-.512727c-.229091 1.887272-1.319999 2.116363-2.847272 2.116363h-2.934544z" transform="translate(259.077478 68.742217)"/><path d="m5.571108-1.809215c.127522 0 .302865 0 .302865-.183313s-.175343-.183313-.302865-.183313h-4.566874c-.127522 0-.302864 0-.302864.183313s.175342.183313.302864.183313z" transform="translate(268.138029 64.412217)"/><use x="274.724536" xlink:href="#f" y="64.412217"/><use x="279.456851" xlink:href="#b" y="68.742217"/><use x="283.699289" xlink:href="#e" y="68.742217"/><use x="296.017426" xlink:href="#h" y="68.742217"/><use x="306.9265" xlink:href="#d" y="68.742217"/><use x="313.499766" xlink:href="#c" y="68.742217"/><path d="m3.327272 6.109089c0-1.54909-.272727-3.741817-1.701818-5.585453-.109091-.130909-.818181-.96-1.014545-.96-.054546 0-.130909.021819-.130909.109091 0 .043637.021818.076364.065454.109091.523637.567273 1.232727 1.450909 1.68 3.185454.250909.992727.349091 2.116363.349091 3.130908 0 1.101818-.098182 2.214545-.381818 3.283636-.414546 1.527272-1.058182 2.399999-1.614545 3.010908-.098182.098182-.098182.12-.098182.141818 0 .087273.076363.109091.130909.109091.163636 0 .763636-.665455.894545-.818182 1.112727-1.319999 1.821818-3.283635 1.821818-5.716362z" transform="translate(317.742204 59.905801)"/></svg>