<svg height="14.235162pt" viewBox="70.734745 58.268949 98.577215 14.235162" width="98.577215pt" xmlns="http://www.w3.org/2000/svg" xmlns:xlink="http://www.w3.org/1999/xlink"><defs><path id="a" d="m2.502615-5.076961c0-.215193-.01594-.223164-.231133-.223164-.326775.318805-.749191.510088-1.506351.510088v.263013c.215193 0 .645579 0 1.107845-.215193v4.088668c0 .294894-.02391.390535-.781071.390535h-.278954v.263014c.326775-.02391 1.012205-.02391 1.37086-.02391s1.052055 0 1.378829.02391v-.263014h-.278954c-.75716 0-.781071-.095641-.781071-.390535z"/><path id="b" d="m6.312329-4.574844c.095641-.390536.270984-.581819.844832-.605729.079701 0 .143462-.047821.143462-.151432 0-.047821-.039851-.111582-.119552-.111582-.055791 0-.207223.023911-.797011.023911-.637609 0-.741221-.023911-.812952-.023911-.127521 0-.151432.087672-.151432.151433 0 .103611.103612.111581.175343.111581.486177.01594.486177.231133.486177.342715 0 .039851 0 .079701-.031881.207223l-.876712 3.490909-1.920797-4.160399c-.063761-.143462-.079701-.143462-.270984-.143462h-1.036115c-.143462 0-.247073 0-.247073.151433 0 .111581.095641.111581.263014.111581.06376 0 .302864 0 .486176.047821l-1.067995 4.27995c-.095641.398506-.302864.573848-.836861.589788-.047821 0-.143462.00797-.143462.151432 0 .047821.03985.111582.119551.111582.031881 0 .215193-.02391.789041-.02391.629639 0 .749191.02391.820922.02391.03188 0 .151432 0 .151432-.151432 0-.095641-.087671-.111582-.143462-.111582-.286924-.00797-.526027-.05579-.526027-.334744 0-.039851.02391-.151433.02391-.159403l1.044085-4.160398h.00797l2.215691 4.774097c.055791.127522.063761.143462.151432.143462.111582 0 .119552-.03188.151432-.167372z"/><path id="c" d="m2.327273-5.292154c.00797-.015941.03188-.119552.03188-.127522 0-.039851-.03188-.111582-.127522-.111582-.03188 0-.278954.023911-.462266.039851l-.446326.03188c-.175343.01594-.255044.023911-.255044.167373 0 .111581.111582.111581.207223.111581.382565 0 .382565.047821.382565.119552 0 .02391 0 .03985-.03985.183312l-1.131756 4.534994c-.031881.119552-.031881.167373-.031881.175343 0 .135492.111582.247073.263014.247073.270984 0 .334745-.255043.366625-.366625.079701-.334745.286924-1.179577.374596-1.514321.438356.04782.972353.199252.972353.653549 0 .03985 0 .079701-.01594.159402-.02391.103612-.039851.215193-.039851.255044 0 .470236.350685.812951.812952.812951.334745 0 .541967-.247073.645579-.398505.191283-.294895.318804-.773101.318804-.820922 0-.079701-.063761-.103611-.119551-.103611-.095642 0-.111582.04782-.143462.191282-.103612.374595-.310835.908593-.68543.908593-.207223 0-.255044-.175342-.255044-.390536 0-.103611.007971-.199252.047821-.382565.00797-.03188.039851-.159402.039851-.247073 0-.65355-.820922-.797012-1.227398-.852802.294895-.175343.565878-.446327.66152-.549938.438356-.430386.797011-.72528 1.179576-.72528.103612 0 .199253.02391.263014.103611-.430386.055791-.430386.430386-.430386.438356 0 .175343.135492.294894.310834.294894.215193 0 .454297-.175342.454297-.502117 0-.270983-.191283-.557907-.589789-.557907-.462266 0-.876712.350685-1.331008.804981-.462267.454296-.66152.541968-.789041.597758z"/><path id="d" d="m1.594022-1.307098c.023911-.119552.103612-.422416.127522-.541968.111582-.430386.111582-.438356.294894-.70137.263014-.390535.637609-.74122 1.171607-.74122.286924 0 .454296.167372.454296.541967 0 .438356-.334744 1.346949-.486177 1.737485-.103611.263013-.103611.310834-.103611.414446 0 .454296.374595.677459.71731.677459.781071 0 1.107846-1.115816 1.107846-1.219427 0-.079701-.063761-.103611-.119552-.103611-.095641 0-.111582.05579-.135492.135491-.191283.65355-.526027.964384-.828892.964384-.127521 0-.191282-.079701-.191282-.263014s.063761-.358655.143462-.557908c.119551-.302864.470236-1.219427.470236-1.665753 0-.597758-.414446-.884682-.988294-.884682-.645579 0-1.060025.390535-1.291158.693399-.055791-.438356-.406475-.693399-.812951-.693399-.286924 0-.486177.183312-.613699.430386-.191283.374595-.270984.7731-.270984.789041 0 .071731.055791.103611.119552.103611.103612 0 .111582-.03188.167372-.239103.095642-.390536.239104-.860772.573848-.860772.207223 0 .255044.199253.255044.374595 0 .143462-.039851.294894-.103611.557908-.015941.063761-.135492.533997-.167373.645579l-.294894 1.195517c-.03188.119551-.079701.318804-.079701.350685 0 .183312.151432.247073.255044.247073.143462 0 .263013-.095641.318804-.191283.02391-.04782.087671-.318804.127522-.486176z"/></defs><path d="m2.890908-4.06909h1.232727c-.36 1.614545-.458181 2.083636-.458181 2.814545 0 .163636 0 .458182.087272.829091.109091.479999.229091.545454.392727.545454.218182 0 .447273-.196364.447273-.414545 0-.065455 0-.087273-.065455-.24-.316363-.785455-.316363-1.494545-.316363-1.8 0-.578181.076364-1.167272.196363-1.734545h1.243637c.141818 0 .534545 0 .534545-.370909 0-.261818-.229091-.261818-.436364-.261818h-3.654544c-.24 0-.654545 0-1.134545.512727-.381818.425455-.665455.927273-.665455.981818 0 .010909 0 .109091.130909.109091.087273 0 .109091-.043636.174546-.130909.534545-.84 1.167272-.84 1.385454-.84h.621818c-.349091 1.32-.938182 2.639999-1.396363 3.632726-.087273.163637-.087273.185455-.087273.261819 0 .207272.174545.294545.316364.294545.327272 0 .414545-.305454.545454-.709091.152727-.501818.152727-.523636.294545-1.06909z" transform="translate(70.734745 68.742217)"/><use x="76.953223" xlink:href="#c" y="70.519457"/><path d="m7.494543-3.567272c.163637 0 .370909 0 .370909-.218181s-.207272-.218182-.36-.218182h-6.534543c-.152727 0-.36 0-.36.218182s.207273.218181.370909.218181zm.010909 2.116363c.152728 0 .36 0 .36-.218181s-.207272-.218182-.370909-.218182h-6.512725c-.163636 0-.370909 0-.370909.218182s.207273.218181.36.218181z" transform="translate(85.103218 68.742217)"/><use x="99.481916" xlink:href="#a" y="64.446968"/><path d="m97.813855 65.79678h7.570305v.436352h-7.570305z"/><use x="97.813855" xlink:href="#b" y="72.504111"/><path d="m4.592726 5.825453-3.872726 4.789089c-.087273.109091-.098182.13091-.098182.174546 0 .12.098182.12.294545.12h9.043634l.938182-2.716363h-.272727c-.272728.818182-1.003636 1.483636-1.930909 1.799999-.174545.054546-.927272.316364-2.530908.316364h-4.636363l3.785454-4.679999c.076363-.098181.098182-.130909.098182-.174545s-.01091-.054546-.076364-.152727l-3.545454-4.865453h4.319999c1.243636 0 3.752726.076363 4.516363 2.116363h.272727l-.938182-2.552727h-9.043634c-.294545 0-.305454.010909-.305454.349091z" transform="translate(108.397823 60.560344)"/><use x="119.913005" xlink:href="#b" y="63.715185"/><use x="119.913005" xlink:href="#d" y="71.9677"/><path d="m5.826152-2.654047c.119552 0 .278954 0 .278954-.183313s-.191283-.183312-.310835-.183312h-5.0132c-.119552 0-.310834 0-.310834.183312s.159402.183313.278954.183313zm-.031881 1.689663c.119552 0 .310835 0 .310835-.183312s-.159402-.183313-.278954-.183313h-5.076961c-.119552 0-.278954 0-.278954.183313s.191282.183312.310834.183312z" transform="translate(125.051208 71.9677)"/><use x="131.637715" xlink:href="#a" y="71.9677"/><path d="m.447273-2.770908c.425454-1.254545 1.614545-1.265455 1.734545-1.265455 1.647272 0 1.767272 1.909091 1.767272 2.770909 0 .665454-.054546.850909-.130909 1.06909-.24.796364-.567273 2.061818-.567273 2.345454 0 .12.054546.196364.141818.196364.141818 0 .229091-.24.349091-.654545.250909-.916364.36-1.538182.403636-1.876363.021819-.141819.043637-.283637.087273-.425455.349091-1.08 1.047273-2.705454 1.483636-3.567272.076364-.130909.207273-.370909.207273-.414545 0-.109091-.109091-.109091-.130909-.109091-.032728 0-.098182 0-.130909.076364-.567273 1.036363-1.003636 2.127272-1.44 3.22909-.010909-.338182-.021818-1.167273-.447273-2.225454-.261818-.665455-.698181-1.2-1.450908-1.2-1.363636 0-2.127272 1.658182-2.127272 1.996363 0 .109091.098181.109091.207272.109091z" transform="translate(138.188178 68.742217)"/><use x="143.836148" xlink:href="#c" y="70.519457"/><path d="m3.610908 2.618181c0-.032727 0-.054545-.185454-.24-1.363636-1.374545-1.712727-3.436363-1.712727-5.105453 0-1.898181.414545-3.796363 1.756363-5.159999.141818-.130909.141818-.152727.141818-.185454 0-.076364-.043636-.109091-.109091-.109091-.109091 0-1.090909.741818-1.734545 2.127272-.556363 1.2-.687272 2.410909-.687272 3.327272 0 .850909.12 2.170909.719999 3.403635.654546 1.341818 1.592727 2.050909 1.701818 2.050909.065455 0 .109091-.032727.109091-.109091z" transform="translate(148.955895 68.742217)"/><path d="m3.643635-3.294545c.065455-.283636.316364-1.287272 1.08-1.287272.054545 0 .316364 0 .545454.141818-.305454.054546-.523636.327273-.523636.589091 0 .174545.12.381818.414546.381818.239999 0 .58909-.196364.58909-.632727 0-.567273-.643636-.72-1.014545-.72-.632727 0-1.014545.578182-1.145454.829091-.272727-.72-.861818-.829091-1.178182-.829091-1.134545 0-1.756363 1.407272-1.756363 1.68 0 .109091.109091.109091.130909.109091.087273 0 .12-.021819.141818-.12.370909-1.156364 1.090909-1.429091 1.461818-1.429091.207273 0 .589091.098182.589091.730909 0 .338182-.185455 1.069091-.589091 2.596363-.174545.676363-.556363 1.134545-1.036363 1.134545-.065455 0-.316364 0-.545454-.141818.272727-.054546.512727-.283636.512727-.589091 0-.294545-.24-.381818-.403637-.381818-.327272 0-.599999.283636-.599999.632727 0 .501818.545454.72 1.025454.72.72 0 1.112727-.763636 1.145454-.829091.130909.403637.523636.829091 1.178182.829091 1.123636 0 1.745454-1.407272 1.745454-1.68 0-.10909-.098182-.10909-.130909-.10909-.098182 0-.12.043636-.141819.12-.36 1.167272-1.101817 1.42909-1.450908 1.42909-.425455 0-.6-.349091-.6-.72 0-.24.065454-.48.185454-.959999z" transform="translate(153.198333 68.742217)"/><use x="159.433187" xlink:href="#d" y="70.378567"/><path d="m3.152726-2.727272c0-.850909-.12-2.170908-.719999-3.403635-.654546-1.341818-1.592727-2.050909-1.701818-2.050909-.065455 0-.109091.043636-.109091.109091 0 .032727 0 .054545.207273.250909 1.06909 1.08 1.690908 2.814545 1.690908 5.094544 0 1.865454-.403636 3.785454-1.756363 5.159999-.141818.130909-.141818.152727-.141818.185454 0 .065455.043636.109091.109091.109091.109091 0 1.090909-.741818 1.734545-2.127272.556363-1.2.687272-2.410909.687272-3.327272z" transform="translate(165.069522 68.742217)"/></svg>