<svg height="13.6784pt" viewBox="70.7347 58.2893 138.236 13.6784" width="138.236pt" xmlns="http://www.w3.org/2000/svg" xmlns:xlink="http://www.w3.org/1999/xlink"><defs><path id="a" d="m3.61091 2.61818c0-.03273 0-.05454-.18546-.24-1.36363-1.37454-1.71272-3.43636-1.71272-5.10545 0-1.89818.41454-3.79636 1.75636-5.16.14182-.13091.14182-.15273.14182-.18546 0-.07636-.04364-.10909-.10909-.10909-.10909 0-1.09091.74182-1.73455 2.12728-.55636 1.2-.68727 2.4109-.68727 3.32727 0 .85091.12 2.170907.72 3.403633.65454 1.341817 1.59273 2.050907 1.70182 2.050907.06545 0 .10909-.03273.10909-.10909z"/><path id="b" d="m3.15273-2.72727c0-.85091-.12-2.17091-.72-3.40364-.65455-1.34182-1.59273-2.05091-1.701821-2.05091-.065455 0-.109091.04364-.109091.10909 0 .03273 0 .05455.207273.25091 1.069089 1.08 1.690909 2.81455 1.690909 5.09455 0 1.865452-.40364 3.78545-1.756364 5.16-.141818.13091-.141818.15272-.141818.18545 0 .06546.043636.10909.109091.10909.109091 0 1.090911-.74182 1.734541-2.12727.55637-1.2.68728-2.41091.68728-3.32727z"/><path id="c" d="m5.29091-4.48364-.91637-2.1709c-.03272-.08728-.05454-.13091-.05454-.14182 0-.06546.18545-.27273.64363-.31637.1091-.0109.21819-.02181.21819-.20727 0-.13091-.13091-.13091-.16364-.13091-.44727 0-.91636.03273-1.37454.03273-.27273 0-.9491-.03273-1.22182-.03273-.06546 0-.19637 0-.19637.21818 0 .12.10909.12.25091.12.65455 0 .72.1091.81818.3491l1.28728 3.04363-2.30182 2.47636-.14182.12c-.53454.578186-1.04727.752731-1.603635.785458-.141818.010909-.24.010909-.24.218182 0 .010909 0 .12.141819.12.327272 0 .687276-.0327273 1.025456-.0327273.40363 0 .82909.0327273 1.22182.0327273.06545 0 .19636 0 .19636-.218182 0-.109091-.10909-.12-.13091-.12-.09818-.010909-.43636-.032727-.43636-.338181 0-.174546.16363-.349087.29454-.490907l1.11273-1.17818.98182-1.06909 1.10181 2.607267c.04364.12.05455.13091.05455.152728 0 .087272-.20727.272727-.63273.316363-.12.010909-.21818.021818-.21818.207273 0 .130909.12.130909.16364.130909.30545 0 1.06909-.0327273 1.37454-.0327273.27273 0 .93818.0327273 1.21091.0327273.07637 0 .20727 0 .20727-.207273 0-.130909-.10909-.130909-.19636-.130909-.73091-.010909-.75273-.043636-.93818-.48-.42546-1.014548-1.15636-2.716358-1.40727-3.370908.74181-.76364 1.88727-2.06182 2.23636-2.36727.31636-.26182.73091-.52364 1.38545-.55637.14182-.0109.24-.0109.24-.21818 0-.01091 0-.12-.14181-.12-.32728 0-.68728.03273-1.02546.03273-.40363 0-.81818-.03273-1.21091-.03273-.06545 0-.20727 0-.20727.21818 0 .07637.05455.1091.13091.12.09818.01091.43636.03273.43636.33819 0 .15272-.12.29454-.20727.39272z"/><path id="d" d="m2.32727-5.29215c.00797-.01594.03188-.11956.03188-.12753 0-.03985-.03188-.11158-.12752-.11158-.03188 0-.27895.02391-.46227.03985l-.44632.03188c-.17534.01594-.25504.02391-.25504.16738 0 .11158.11158.11158.20722.11158.38256 0 .38256.04782.38256.11955 0 .02391 0 .03985-.03985.18331l-1.131753 4.534995c-.031881.119552-.031881.167373-.031881.175343 0 .1354916.111582.2470731.263014.2470731.270984 0 .33474-.2550431.36663-.3666251.0797-.334745.28692-1.179576.37459-1.514326.43836.04783.97235.19926.97235.65355 0 .03985 0 .0797-.01594.159406-.02391.103612-.03985.215193-.03985.255044 0 .470236.35069.8129511.81295.8129511.33475 0 .54197-.2470731.64558-.3985051.19129-.294895.31881-.773106.31881-.820926 0-.0797-.06376-.10361-.11955-.10361-.09564 0-.11158.04782-.14347.19129-.10361.37459-.31083.908588-.68542.908588-.20723 0-.25505-.175342-.25505-.390536 0-.103611.00797-.199252.04782-.382565.00797-.03188.03985-.159407.03985-.247077 0-.65355-.82092-.79701-1.22739-.8528.29489-.17534.56587-.44632.66151-.54994.43836-.43038.79702-.72528 1.17958-.72528.10361 0 .19925.02391.26302.10362-.43039.05579-.43039.43038-.43039.43835 0 .17534.13549.2949.31083.2949.2152 0 .4543-.17535.4543-.50212 0-.27099-.19128-.55791-.58979-.55791-.46227 0-.87671.35069-1.33101.80498-.46226.4543-.66152.54197-.78904.59776z"/></defs><path d="m.490909 1.33091c-.087273.37091-.109091.44727-.5890908.44727-.1309092 0-.2509092 0-.2509092.20727 0 .08728.054546.13091.141818.13091.2945457 0 .610909-.03272.916364-.03272.359999 0 .730909.03272 1.079999.03272.05455 0 .19636 0 .19636-.21818 0-.12-.10909-.12-.26181-.12-.54546 0-.54546-.07636-.54546-.17454 0-.13091.45818-1.909094.53455-2.181822.14181.316364.44727.698182 1.00363.698182 1.26546 0 2.62909-1.59273 2.62909-3.19636 0-1.02546-.62181-1.74546-1.45091-1.74546-.54545 0-1.06909.39273-1.42909.81818-.10909-.58909-.57818-.81818-.98181-.81818-.501822 0-.709095.42546-.807277.62182-.196363.37091-.338181 1.02546-.338181 1.05818 0 .10909.109091.10909.130909.10909.109091 0 .12-.01091.185454-.25091.185455-.77454.403635-1.29818.796365-1.29818.18545 0 .33818.08728.33818.50182 0 .25091-.03273.37091-.07636.55636zm1.920001-4.73455c.07636-.29454.37091-.6.56727-.76363.38182-.33818.69818-.41455.88364-.41455.43636 0 .69818.38182.69818 1.02546s-.36 1.89818-.55636 2.31272c-.37091.76364-.89455 1.12364-1.29819 1.12364-.72 0-.86181-.90545-.86181-.97091 0-.02182 0-.04364.03272-.17454z" transform="translate(70.7347 68.7422)"/><use x="76.2029" xlink:href="#a" y="68.7422"/><use x="80.4295" xlink:href="#c" y="68.7422"/><use x="90.2896" xlink:href="#b" y="68.7422"/><path d="m7.49454-3.56727c.16364 0 .37091 0 .37091-.21818s-.20727-.21819-.36-.21819h-6.534541c-.152727 0-.36 0-.36.21819s.207273.21818.370909.21818zm.01091 2.11636c.15273 0 .36 0 .36-.21818s-.20727-.21818-.37091-.21818h-6.512722c-.163636 0-.370909 0-.370909.21818s.207273.21818.36.21818z" transform="translate(97.5465 68.7422)"/><path d="m4.59273 5.82545-3.87273 4.78905c-.087273.1091-.098182.131-.098182.1746 0 .12.098182.12.294545.12h9.043637l.9382-2.71638h-.2727c-.2728.81819-1.00368 1.48364-1.93096 1.8-.17454.05458-.92727.31638-2.53091.31638h-4.63636l3.78546-4.68001c.07636-.09818.09818-.13091.09818-.17455s-.01091-.05454-.07637-.15272l-3.54545-4.865456h4.32c1.24364 0 3.75273.076363 4.51641 2.116366h.2727l-.9382-2.55273h-9.043637c-.294545 0-.305454.0109091-.305454.349091z" transform="translate(109.03 60.5603)"/><path d="m4.27995-3.20399c-.00797-.01594-.04782-.09564-.04782-.10361 0-.01594.13549-.11158.21519-.16737.62964-.46227 1.49041-1.08393 1.75343-1.25131.40647-.25504.70137-.42241 1.06002-.45429.06376-.00797.17534-.01594.17534-.15941-.00797-.05579-.05579-.10361-.11158-.10361-.00797 0-.23113.02391-.28692.02391h-.31881c-.13549 0-.33474 0-.40647-.00797-.05579 0-.36663-.01594-.42242-.01594s-.16737 0-.16737.15144c0 .00797.00797.10361.12752.11158.06376.00797.19128.02391.19128.11955 0 .12752-.1594.26301-.17534.27098l-.06376.05579c-.02391.02391-.05579.05579-.09564.0797l-3.25181 2.35916.62964-2.52653c.07173-.28692.08767-.35865.66949-.35865.15941 0 .25505 0 .25505-.15143 0-.00798-.00797-.11159-.1355-.11159-.15143 0-.34271.01594-.49414.02391h-.50212c-.76513 0-.97235-.02391-1.02814-.02391-.03985 0-.15941 0-.15941.15144 0 .11158.09565.11158.23114.11158.26301 0 .49414 0 .49414.12752 0 .03188-.00797.03985-.03188.14346l-1.06799 4.279951c-.07173.302864-.08767.366625-.677461.366625-.151432 0-.247074 0-.247074.151432 0 .0318809.023911.111582.127522.111582.151432 0 .342715-.0159402.494143-.0239103h1.02815c.12752.0079701.39053.0239103.51009.0239103.03985 0 .1594 0 .1594-.143462 0-.119552-.09564-.119552-.23114-.119552-.05579 0-.16737 0-.30286-.01594-.16737-.01594-.19128-.03188-.19128-.111581 0-.047821.05579-.247074.0797-.374596l.30286-1.203489 1.28319-.92453.95641 1.968617c.03189.063761.11956.239103.15144.310834.04782.079701.04782.095642.04782.127522 0 .215193-.2949.223163-.38257.223163-.0797 0-.19128 0-.19128.151432 0 .007971.00797.111582.13549.111582.0797 0 .38257-.0159402.4543-.0239103h.46226c.73325 0 .70934.0239103.81296.0239103.03188 0 .15143 0 .15143-.151432 0-.111582-.11158-.111582-.1594-.111582-.31084-.00797-.41445-.063761-.54197-.334744z" transform="translate(120.545 63.7152)"/><use x="120.545" xlink:href="#d" y="71.9677"/><path d="m5.82615-2.65405c.11955 0 .27896 0 .27896-.18331s-.19129-.18331-.31084-.18331h-5.013199c-.119552 0-.310834 0-.310834.18331s.159402.18331.278954.18331zm-.03188 1.689666c.11955 0 .31084 0 .31084-.183316s-.15941-.18331-.27896-.18331h-5.076959c-.119552 0-.278954 0-.278954.18331s.191282.183316.310834.183316z" transform="translate(125.15 71.9677)"/><path d="m2.50262-5.07696c0-.21519-.01595-.22316-.23114-.22316-.32677.3188-.74919.51008-1.506349.51008v.26302c.215193 0 .645579 0 1.107849-.2152v4.088671c0 .294894-.02391.390535-.78107.390535h-.278959v.263014c.326779-.0239103 1.012209-.0239103 1.370859-.0239103s1.05206 0 1.37883.0239103v-.263014h-.27895c-.75716 0-.78107-.095641-.78107-.390535z" transform="translate(131.712 71.9677)"/><path d="m2.89091-4.06909h1.23273c-.36 1.61455-.45819 2.08364-.45819 2.81454 0 .16364 0 .458187.08728.829096.10909.4799994.22909.545454.39272.545454.21819 0 .44728-.1963636.44728-.414545 0-.065455 0-.087273-.06546-.24-.31636-.785455-.31636-1.494545-.31636-1.799995 0-.57819.07636-1.16728.19636-1.73455h1.24364c.14182 0 .53454 0 .53454-.37091 0-.26182-.22909-.26182-.43636-.26182h-3.65455c-.24 0-.65454 0-1.13454.51273-.381818.42545-.665455.92727-.665455.98182 0 .01091 0 .10909.130909.10909.087273 0 .109091-.04364.174546-.13091.53455-.84 1.16727-.84 1.38545-.84h.62182c-.34909 1.32-.93818 2.64-1.39636 3.632726-.08727.163637-.08727.185455-.08727.261819 0 .2072723.17454.294545.31636.294545.32727 0 .41454-.305454.54545-.709091.15273-.501819.15273-.523639.29455-1.069089z" transform="translate(138.304 68.7422)"/><use x="144.499" xlink:href="#d" y="70.5195"/><path d="m8.29091-7.58182c0-.03272-.02182-.10909-.12-.10909-.03273 0-.04364.01091-.16364.13091l-.76364.84c-.09818-.15273-.6-.97091-1.8109-.97091-2.43273 0-4.887276 2.41091-4.887276 4.94182 0 1.73454 1.210906 2.98909 2.978186 2.98909.48 0 .9709-.098182 1.36363-.2618182.54546-.2181818.75273-.4472728.94909-.6654548.09818.272728.38182.6763639.49091.6763639.05455 0 .07636-.0327273.07636-.0436363.02182-.0218182.13091-.4363636.18546-.6654546l.20727-.84c.04364-.18545.09818-.37091.14182-.55636.12-.49091.13091-.51273.75273-.52364.05454 0 .17454-.01091.17454-.21818 0-.07636-.05454-.12-.14182-.12-.2509 0-.89454.03273-1.14545.03273-.33818 0-1.18909-.03273-1.52727-.03273-.09818 0-.22909 0-.22909.21818 0 .12.08727.12.32727.12.01091 0 .32727 0 .57818.02182.28364.03273.33818.06545.33818.20727 0 .09818-.12.58909-.22909.99273-.30545 1.199998-1.72363 1.3199982-2.10545 1.3199982-1.04727 0-2.19273-.6218182-2.19273-2.2909082 0-.33818.10909-2.13818 1.25455-3.55636.58909-.74182 1.64727-1.40728 2.72727-1.40728 1.11273 0 1.75636.84 1.75636 2.10546 0 .43636-.03273.44727-.03273.55636s.12.10909.16364.10909c.14182 0 .14182-.02182.19636-.21818z" transform="translate(149.619 68.7422)"/><use x="158.164" xlink:href="#a" y="68.7422"/><use x="162.39" xlink:href="#c" y="68.7422"/><path d="m1.73454-7.78909c0-.19636 0-.39273-.21818-.39273s-.21818.19637-.21818.39273v10.12363c0 .19637 0 .39273.21818.39273s.21818-.19636.21818-.39273z" transform="translate(172.251 68.7422)"/><path d="m2.52-3.82909c.05454-.22909.16364-.64364.16364-.69818 0-.18546-.13091-.29455-.31637-.29455-.03273 0-.33818.01091-.43636.39273l-1.57091 6.31636c-.032727.13091-.032727.15273-.032727.17455 0 .16363.12.29454.305454.29454.229091 0 .36-.19636.381823-.22909.04363-.09818.18545-.66545.6-2.345452.34909.2945456.83999.338182 1.05818.338182.76363 0 1.18909-.490909 1.45091-.796363.09818.490909.50181.796363.98181.796363.38182 0 .63273-.250909.80728-.6.18545-.392727.32727-1.05818.32727-1.08 0-.10909-.09818-.10909-.13091-.10909-.10909 0-.12.04364-.15273.19636-.18545.709094-.38182 1.35273-.82909 1.35273-.29454 0-.32727-.283636-.32727-.501818 0-.24.13091-.752732.21818-1.134542l.30545-1.17818c.03273-.16364.14182-.57819.18546-.74182.05454-.25091.16364-.66546.16364-.73091 0-.19637-.15273-.29455-.31637-.29455-.05454 0-.33818.01091-.42545.38182l-.51273 2.04c-.13091.54546-.25091 1.00364-.28364 1.11273-.0109.05454-.53454 1.04727-1.41818 1.04727-.54545 0-.80727-.36-.80727-.94909 0-.31636.07636-.62182.15273-.92727z" transform="translate(175.27 68.7422)"/><use x="181.818" xlink:href="#d" y="70.5195"/><path d="m2.21454-.0109091c0-.7199999-.27272-1.1454509-.69818-1.1454509-.36 0-.578178.272724-.578178.578178 0 .294546.218178.578182.578178.578182.13091 0 .27273-.0436364.38182-.141818.03273-.021818.04364-.032727.05455-.032727s.02181.010909.02181.1636359c0 .8072721-.38181 1.4618191-.74181 1.8218191-.12.12-.12.14182-.12.17454 0 .07637.05454.12.10909.12.12 0 .99272-.84.99272-2.1163591z" transform="translate(186.938 68.7422)"/><path d="m4.05818-3.55636c.09818-.10909.09818-.15273.09818-.17455 0-.05454-.04363-.10909-.07636-.15273l-2.23636-3.22909h2.52c1.84363 0 2.38909.39273 2.61818 2.11637h.27272l-.30545-2.45455h-6.054545c-.261818 0-.283636 0-.283636.25091l2.716361 3.94909-2.596361 2.956365c-.109091.12-.109091.141818-.109091.174545 0 .12.109091.12.272727.12h6.054545l.30545-2.57454h-.27272c-.19637 1.821813-.93819 2.116358-2.65091 2.116358h-3.01091z" transform="translate(191.775 68.7422)"/><use x="199.625" xlink:href="#d" y="70.5195"/><use x="204.744" xlink:href="#b" y="68.7422"/></svg>