<svg height="10.909088pt" viewBox="70.734745 60.560401 29.146532 10.909088" width="29.146532pt" xmlns="http://www.w3.org/2000/svg"><path d="m.447273-2.770908c.425454-1.254545 1.614545-1.265455 1.734545-1.265455 1.647272 0 1.767272 1.909091 1.767272 2.770909 0 .665454-.054546.850909-.130909 1.06909-.24.796364-.567273 2.061818-.567273 2.345454 0 .12.054546.196364.141818.196364.141818 0 .229091-.24.349091-.654545.250909-.916364.36-1.538182.403636-1.876363.021819-.141819.043637-.283637.087273-.425455.349091-1.08 1.047273-2.705454 1.483636-3.567272.076364-.130909.207273-.370909.207273-.414545 0-.109091-.109091-.109091-.130909-.109091-.032728 0-.098182 0-.130909.076364-.567273 1.036363-1.003636 2.127272-1.44 3.22909-.010909-.338182-.021818-1.167273-.447273-2.225454-.261818-.665455-.698181-1.2-1.450908-1.2-1.363636 0-2.127272 1.658182-2.127272 1.996363 0 .109091.098181.109091.207272.109091z" transform="translate(70.734745 68.742217)"/><path d="m2.327273-5.292154c.00797-.015941.03188-.119552.03188-.127522 0-.039851-.03188-.111582-.127522-.111582-.03188 0-.278954.023911-.462266.039851l-.446326.03188c-.175343.01594-.255044.023911-.255044.167373 0 .111581.111582.111581.207223.111581.382565 0 .382565.047821.382565.119552 0 .02391 0 .03985-.03985.183312l-1.131756 4.534994c-.031881.119552-.031881.167373-.031881.175343 0 .135492.111582.247073.263014.247073.270984 0 .334745-.255043.366625-.366625.079701-.334745.286924-1.179577.374596-1.514321.438356.04782.972353.199252.972353.653549 0 .03985 0 .079701-.01594.159402-.02391.103612-.039851.215193-.039851.255044 0 .470236.350685.812951.812952.812951.334745 0 .541967-.247073.645579-.398505.191283-.294895.318804-.773101.318804-.820922 0-.079701-.063761-.103611-.119551-.103611-.095642 0-.111582.04782-.143462.191282-.103612.374595-.310835.908593-.68543.908593-.207223 0-.255044-.175342-.255044-.390536 0-.103611.007971-.199252.047821-.382565.00797-.03188.039851-.159402.039851-.247073 0-.65355-.820922-.797012-1.227398-.852802.294895-.175343.565878-.446327.66152-.549938.438356-.430386.797011-.72528 1.179576-.72528.103612 0 .199253.02391.263014.103611-.430386.055791-.430386.430386-.430386.438356 0 .175343.135492.294894.310834.294894.215193 0 .454297-.175342.454297-.502117 0-.270983-.191283-.557907-.589789-.557907-.462266 0-.876712.350685-1.331008.804981-.462267.454296-.66152.541968-.789041.597758z" transform="translate(76.382715 70.519457)"/><path d="m3.610908 2.618181c0-.032727 0-.054545-.185454-.24-1.363636-1.374545-1.712727-3.436363-1.712727-5.105453 0-1.898181.414545-3.796363 1.756363-5.159999.141818-.130909.141818-.152727.141818-.185454 0-.076364-.043636-.109091-.109091-.109091-.109091 0-1.090909.741818-1.734545 2.127272-.556363 1.2-.687272 2.410909-.687272 3.327272 0 .850909.12 2.170909.719999 3.403635.654546 1.341818 1.592727 2.050909 1.701818 2.050909.065455 0 .109091-.032727.109091-.109091z" transform="translate(81.502462 68.742217)"/><path d="m5.290908-4.483635-.916364-2.170909c-.032727-.087272-.054545-.130909-.054545-.141818 0-.065454.185454-.272727.643636-.316363.109091-.010909.218182-.021818.218182-.207273 0-.130909-.130909-.130909-.163637-.130909-.447272 0-.916363.032727-1.374545.032727-.272727 0-.94909-.032727-1.221817-.032727-.065455 0-.196364 0-.196364.218182 0 .12.109091.12.250909.12.654545 0 .72.109091.818182.349091l1.287272 3.043635-2.301818 2.476363-.141818.12c-.534545.578182-1.047272.752727-1.603636.785454-.141818.010909-.24.010909-.24.218182 0 .010909 0 .12.141819.12.327272 0 .687272-.032727 1.025454-.032727.403636 0 .82909.032727 1.221818.032727.065454 0 .196363 0 .196363-.218182 0-.109091-.109091-.12-.130909-.12-.098182-.010909-.436363-.032727-.436363-.338181 0-.174546.163636-.349091.294545-.490909l1.112727-1.178182.981818-1.069091 1.101818 2.607272c.043636.12.054545.13091.054545.152728 0 .087272-.207272.272727-.632727.316363-.12.010909-.218182.021818-.218182.207273 0 .130909.12.130909.163637.130909.305454 0 1.06909-.032727 1.374545-.032727.272727 0 .938181.032727 1.210908.032727.076364 0 .207273 0 .207273-.207273 0-.130909-.109091-.130909-.196363-.130909-.730909-.010909-.752728-.043636-.938182-.48-.425454-1.014545-1.156363-2.716362-1.407272-3.370908.741818-.763636 1.887272-2.061817 2.236363-2.367272.316363-.261818.730909-.523636 1.385454-.556363.141818-.010909.24-.010909.24-.218182 0-.010909 0-.12-.141818-.12-.327273 0-.687273.032727-1.025455.032727-.403636 0-.818181-.032727-1.210908-.032727-.065455 0-.207273 0-.207273.218182 0 .076363.054545.109091.130909.12.098182.010909.436364.032727.436364.338181 0 .152728-.12.294546-.207273.392728z" transform="translate(85.7449 68.742217)"/><path d="m3.152726-2.727272c0-.850909-.12-2.170908-.719999-3.403635-.654546-1.341818-1.592727-2.050909-1.701818-2.050909-.065455 0-.109091.043636-.109091.109091 0 .032727 0 .054545.207273.250909 1.06909 1.08 1.690908 2.814545 1.690908 5.094544 0 1.865454-.403636 3.785454-1.756363 5.159999-.141818.130909-.141818.152727-.141818.185454 0 .065455.043636.109091.109091.109091.109091 0 1.090909-.741818 1.734545-2.127272.556363-1.2.687272-2.410909.687272-3.327272z" transform="translate(95.638839 68.742217)"/></svg>