<svg height="9.231774pt" viewBox="70.734745 61.287683 12.500423 9.231774" width="12.500423pt" xmlns="http://www.w3.org/2000/svg"><path d="m4.058181-3.556363c.098181-.109091.098181-.152727.098181-.174545 0-.054545-.043636-.109091-.076363-.152727l-2.236363-3.22909h2.519999c1.843636 0 2.38909.392727 2.618181 2.116363h.272727l-.305454-2.454545h-6.054544c-.261818 0-.283636 0-.283636.250909l2.716363 3.94909-2.596363 2.956363c-.109091.12-.109091.141818-.109091.174545 0 .12.109091.12.272727.12h6.054544l.305454-2.574545h-.272727c-.196363 1.821818-.938181 2.116363-2.650908 2.116363h-3.010908z" transform="translate(70.734745 68.742217)"/><path d="m2.327273-5.292154c.00797-.015941.03188-.119552.03188-.127522 0-.039851-.03188-.111582-.127522-.111582-.03188 0-.278954.023911-.462266.039851l-.446326.03188c-.175343.01594-.255044.023911-.255044.167373 0 .111581.111582.111581.207223.111581.382565 0 .382565.047821.382565.119552 0 .02391 0 .03985-.03985.183312l-1.131756 4.534994c-.031881.119552-.031881.167373-.031881.175343 0 .135492.111582.247073.263014.247073.270984 0 .334745-.255043.366625-.366625.079701-.334745.286924-1.179577.374596-1.514321.438356.04782.972353.199252.972353.653549 0 .03985 0 .079701-.01594.159402-.02391.103612-.039851.215193-.039851.255044 0 .470236.350685.812951.812952.812951.334745 0 .541967-.247073.645579-.398505.191283-.294895.318804-.773101.318804-.820922 0-.079701-.063761-.103611-.119551-.103611-.095642 0-.111582.04782-.143462.191282-.103612.374595-.310835.908593-.68543.908593-.207223 0-.255044-.175342-.255044-.390536 0-.103611.007971-.199252.047821-.382565.00797-.03188.039851-.159402.039851-.247073 0-.65355-.820922-.797012-1.227398-.852802.294895-.175343.565878-.446327.66152-.549938.438356-.430386.797011-.72528 1.179576-.72528.103612 0 .199253.02391.263014.103611-.430386.055791-.430386.430386-.430386.438356 0 .175343.135492.294894.310834.294894.215193 0 .454297-.175342.454297-.502117 0-.270983-.191283-.557907-.589789-.557907-.462266 0-.876712.350685-1.331008.804981-.462267.454296-.66152.541968-.789041.597758z" transform="translate(78.613552 70.519457)"/></svg>