<svg height="39.651512pt" viewBox="53.798257 60.560401 151.731788 39.651512" width="151.731788pt" xmlns="http://www.w3.org/2000/svg" xmlns:xlink="http://www.w3.org/1999/xlink"><defs><path id="a" d="m2.502615-5.076961c0-.215193-.01594-.223164-.231133-.223164-.326775.318805-.749191.510088-1.506351.510088v.263013c.215193 0 .645579 0 1.107845-.215193v4.088668c0 .294894-.02391.390535-.781071.390535h-.278954v.263014c.326775-.02391 1.012205-.02391 1.37086-.02391s1.052055 0 1.378829.02391v-.263014h-.278954c-.75716 0-.781071-.095641-.781071-.390535z"/><path id="b" d="m5.826152-2.654047c.119552 0 .278954 0 .278954-.183313s-.191283-.183312-.310835-.183312h-5.0132c-.119552 0-.310834 0-.310834.183312s.159402.183313.278954.183313zm-.031881 1.689663c.119552 0 .310835 0 .310835-.183312s-.159402-.183313-.278954-.183313h-5.076961c-.119552 0-.278954 0-.278954.183313s.191282.183312.310834.183312z"/><path id="c" d="m6.312329-4.574844c.095641-.390536.270984-.581819.844832-.605729.079701 0 .143462-.047821.143462-.151432 0-.047821-.039851-.111582-.119552-.111582-.055791 0-.207223.023911-.797011.023911-.637609 0-.741221-.023911-.812952-.023911-.127521 0-.151432.087672-.151432.151433 0 .103611.103612.111581.175343.111581.486177.01594.486177.231133.486177.342715 0 .039851 0 .079701-.031881.207223l-.876712 3.490909-1.920797-4.160399c-.063761-.143462-.079701-.143462-.270984-.143462h-1.036115c-.143462 0-.247073 0-.247073.151433 0 .111581.095641.111581.263014.111581.06376 0 .302864 0 .486176.047821l-1.067995 4.27995c-.095641.398506-.302864.573848-.836861.589788-.047821 0-.143462.00797-.143462.151432 0 .047821.03985.111582.119551.111582.031881 0 .215193-.02391.789041-.02391.629639 0 .749191.02391.820922.02391.03188 0 .151432 0 .151432-.151432 0-.095641-.087671-.111582-.143462-.111582-.286924-.00797-.526027-.05579-.526027-.334744 0-.039851.02391-.151433.02391-.159403l1.044085-4.160398h.00797l2.215691 4.774097c.055791.127522.063761.143462.151432.143462.111582 0 .119552-.03188.151432-.167372z"/><path id="d" d="m2.375093-4.97335c0-.175342-.127521-.302864-.310834-.302864-.207223 0-.438356.191282-.438356.430386 0 .175342.127522.302864.310834.302864.207223 0 .438356-.191283.438356-.430386zm-1.163636 2.925031-.430386 1.099876c-.039851.119551-.079701.215193-.079701.350685 0 .390535.302864.677459.72528.677459.773101 0 1.099876-1.115816 1.099876-1.219427 0-.079701-.063761-.103611-.119552-.103611-.095641 0-.111582.05579-.135492.135491-.183313.637609-.510087.964384-.828892.964384-.095641 0-.191282-.039851-.191282-.255044 0-.191282.05579-.334744.159402-.581818.079701-.215193.159402-.430386.247073-.645579l.247074-.645579c.071731-.183313.167372-.430386.167372-.565878 0-.398506-.318804-.677459-.72528-.677459-.773101 0-1.107846 1.115815-1.107846 1.219427 0 .071731.055791.103611.119552.103611.103612 0 .111582-.04782.135492-.127522.223163-.75716.589788-.972353.828892-.972353.111581 0 .191282.03985.191282.263013 0 .079702-.00797.191283-.087671.430386z"/><path id="e" d="m2.327273-5.292154c.00797-.015941.03188-.119552.03188-.127522 0-.039851-.03188-.111582-.127522-.111582-.03188 0-.278954.023911-.462266.039851l-.446326.03188c-.175343.01594-.255044.023911-.255044.167373 0 .111581.111582.111581.207223.111581.382565 0 .382565.047821.382565.119552 0 .02391 0 .03985-.03985.183312l-1.131756 4.534994c-.031881.119552-.031881.167373-.031881.175343 0 .135492.111582.247073.263014.247073.270984 0 .334745-.255043.366625-.366625.079701-.334745.286924-1.179577.374596-1.514321.438356.04782.972353.199252.972353.653549 0 .03985 0 .079701-.01594.159402-.02391.103612-.039851.215193-.039851.255044 0 .470236.350685.812951.812952.812951.334745 0 .541967-.247073.645579-.398505.191283-.294895.318804-.773101.318804-.820922 0-.079701-.063761-.103611-.119551-.103611-.095642 0-.111582.04782-.143462.191282-.103612.374595-.310835.908593-.68543.908593-.207223 0-.255044-.175342-.255044-.390536 0-.103611.007971-.199252.047821-.382565.00797-.03188.039851-.159402.039851-.247073 0-.65355-.820922-.797012-1.227398-.852802.294895-.175343.565878-.446327.66152-.549938.438356-.430386.797011-.72528 1.179576-.72528.103612 0 .199253.02391.263014.103611-.430386.055791-.430386.430386-.430386.438356 0 .175343.135492.294894.310834.294894.215193 0 .454297-.175342.454297-.502117 0-.270983-.191283-.557907-.589789-.557907-.462266 0-.876712.350685-1.331008.804981-.462267.454296-.66152.541968-.789041.597758z"/><path id="f" d="m4.592726 5.825453-3.872726 4.789089c-.087273.109091-.098182.13091-.098182.174546 0 .12.098182.12.294545.12h9.043634l.938182-2.716363h-.272727c-.272728.818182-1.003636 1.483636-1.930909 1.799999-.174545.054546-.927272.316364-2.530908.316364h-4.636363l3.785454-4.679999c.076363-.098181.098182-.130909.098182-.174545s-.01091-.054546-.076364-.152727l-3.545454-4.865453h4.319999c1.243636 0 3.752726.076363 4.516363 2.116363h.272727l-.938182-2.552727h-9.043634c-.294545 0-.305454.010909-.305454.349091z"/><path id="g" d="m1.734545-7.789089c0-.196363 0-.392727-.218182-.392727s-.218182.196364-.218182.392727v10.123634c0 .196363 0 .392727.218182.392727s.218182-.196364.218182-.392727z"/><path id="h" d="m4.058181-3.556363c.098181-.109091.098181-.152727.098181-.174545 0-.054545-.043636-.109091-.076363-.152727l-2.236363-3.22909h2.519999c1.843636 0 2.38909.392727 2.618181 2.116363h.272727l-.305454-2.454545h-6.054544c-.261818 0-.283636 0-.283636.250909l2.716363 3.94909-2.596363 2.956363c-.109091.12-.109091.141818-.109091.174545 0 .12.109091.12.272727.12h6.054544l.305454-2.574545h-.272727c-.196363 1.821818-.938181 2.116363-2.650908 2.116363h-3.010908z"/><path id="i" d="m3.610908 2.618181c0-.032727 0-.054545-.185454-.24-1.363636-1.374545-1.712727-3.436363-1.712727-5.105453 0-1.898181.414545-3.796363 1.756363-5.159999.141818-.130909.141818-.152727.141818-.185454 0-.076364-.043636-.109091-.109091-.109091-.109091 0-1.090909.741818-1.734545 2.127272-.556363 1.2-.687272 2.410909-.687272 3.327272 0 .850909.12 2.170909.719999 3.403635.654546 1.341818 1.592727 2.050909 1.701818 2.050909.065455 0 .109091-.032727.109091-.109091z"/><path id="j" d="m3.152726-2.727272c0-.850909-.12-2.170908-.719999-3.403635-.654546-1.341818-1.592727-2.050909-1.701818-2.050909-.065455 0-.109091.043636-.109091.109091 0 .032727 0 .054545.207273.250909 1.06909 1.08 1.690908 2.814545 1.690908 5.094544 0 1.865454-.403636 3.785454-1.756363 5.159999-.141818.130909-.141818.152727-.141818.185454 0 .065455.043636.109091.109091.109091.109091 0 1.090909-.741818 1.734545-2.127272.556363-1.2.687272-2.410909.687272-3.327272z"/><path id="k" d="m7.494543-3.567272c.163637 0 .370909 0 .370909-.218181s-.207272-.218182-.36-.218182h-6.534543c-.152727 0-.36 0-.36.218182s.207273.218181.370909.218181zm.010909 2.116363c.152728 0 .36 0 .36-.218181s-.207272-.218182-.370909-.218182h-6.512725c-.163636 0-.370909 0-.370909.218182s.207273.218181.36.218181z"/><path id="l" d="m2.519999-3.82909c.054546-.229091.163637-.643636.163637-.698181 0-.185455-.130909-.294546-.316364-.294546-.032727 0-.338182.010909-.436363.392727l-1.570909 6.316362c-.032727.130909-.032727.152727-.032727.174546 0 .163636.12.294545.305454.294545.229091 0 .36-.196364.381818-.229091.043637-.098182.185455-.665454.6-2.345454.349091.294546.84.338182 1.058182.338182.763636 0 1.18909-.490909 1.450908-.796363.098182.490909.501818.796363.981818.796363.381818 0 .632727-.250909.807273-.6.185454-.392727.327272-1.058181.327272-1.08 0-.10909-.098182-.10909-.130909-.10909-.109091 0-.12.043636-.152727.196363-.185455.709091-.381818 1.352727-.829091 1.352727-.294545 0-.327272-.283636-.327272-.501818 0-.24.130909-.752727.218181-1.134545l.305455-1.178182c.032727-.163636.141818-.578181.185454-.741818.054546-.250909.163637-.665454.163637-.730908 0-.196364-.152728-.294546-.316364-.294546-.054545 0-.338182.010909-.425454.381818l-.512727 2.04c-.130909.545454-.250909 1.003636-.283637 1.112727-.010909.054545-.534545 1.047272-1.418181 1.047272-.545455 0-.807273-.36-.807273-.949091 0-.316363.076364-.621818.152728-.927272z"/><path id="m" d="m2.890908-4.06909h1.232727c-.36 1.614545-.458181 2.083636-.458181 2.814545 0 .163636 0 .458182.087272.829091.109091.479999.229091.545454.392727.545454.218182 0 .447273-.196364.447273-.414545 0-.065455 0-.087273-.065455-.24-.316363-.785455-.316363-1.494545-.316363-1.8 0-.578181.076364-1.167272.196363-1.734545h1.243637c.141818 0 .534545 0 .534545-.370909 0-.261818-.229091-.261818-.436364-.261818h-3.654544c-.24 0-.654545 0-1.134545.512727-.381818.425455-.665455.927273-.665455.981818 0 .010909 0 .109091.130909.109091.087273 0 .109091-.043636.174546-.130909.534545-.84 1.167272-.84 1.385454-.84h.621818c-.349091 1.32-.938182 2.639999-1.396363 3.632726-.087273.163637-.087273.185455-.087273.261819 0 .207272.174545.294545.316364.294545.327272 0 .414545-.305454.545454-.709091.152727-.501818.152727-.523636.294545-1.06909z"/><path id="n" d="m2.214545-.010909c0-.72-.272727-1.145454-.698182-1.145454-.36 0-.578181.272727-.578181.578181 0 .294546.218181.578182.578181.578182.130909 0 .272727-.043636.381818-.141818.032728-.021818.043637-.032727.054546-.032727s.021818.010909.021818.163636c0 .807272-.381818 1.461818-.741818 1.821818-.12.12-.12.141818-.12.174545 0 .076364.054545.12.109091.12.12 0 .992727-.84.992727-2.116363z"/><path id="o" d="m5.290908-4.483635-.916364-2.170909c-.032727-.087272-.054545-.130909-.054545-.141818 0-.065454.185454-.272727.643636-.316363.109091-.010909.218182-.021818.218182-.207273 0-.130909-.130909-.130909-.163637-.130909-.447272 0-.916363.032727-1.374545.032727-.272727 0-.94909-.032727-1.221817-.032727-.065455 0-.196364 0-.196364.218182 0 .12.109091.12.250909.12.654545 0 .72.109091.818182.349091l1.287272 3.043635-2.301818 2.476363-.141818.12c-.534545.578182-1.047272.752727-1.603636.785454-.141818.010909-.24.010909-.24.218182 0 .010909 0 .12.141819.12.327272 0 .687272-.032727 1.025454-.032727.403636 0 .82909.032727 1.221818.032727.065454 0 .196363 0 .196363-.218182 0-.109091-.109091-.12-.130909-.12-.098182-.010909-.436363-.032727-.436363-.338181 0-.174546.163636-.349091.294545-.490909l1.112727-1.178182.981818-1.069091 1.101818 2.607272c.043636.12.054545.13091.054545.152728 0 .087272-.207272.272727-.632727.316363-.12.010909-.218182.021818-.218182.207273 0 .130909.12.130909.163637.130909.305454 0 1.06909-.032727 1.374545-.032727.272727 0 .938181.032727 1.210908.032727.076364 0 .207273 0 .207273-.207273 0-.130909-.109091-.130909-.196363-.130909-.730909-.010909-.752728-.043636-.938182-.48-.425454-1.014545-1.156363-2.716362-1.407272-3.370908.741818-.763636 1.887272-2.061817 2.236363-2.367272.316363-.261818.730909-.523636 1.385454-.556363.141818-.010909.24-.010909.24-.218182 0-.010909 0-.12-.141818-.12-.327273 0-.687273.032727-1.025455.032727-.403636 0-.818181-.032727-1.210908-.032727-.065455 0-.207273 0-.207273.218182 0 .076363.054545.109091.130909.12.098182.010909.436364.032727.436364.338181 0 .152728-.12.294546-.207273.392728z"/><path id="p" d="m2.814545-7.450907c0-.010909 0-.12-.141818-.12-.250909 0-1.047273.087273-1.330909.109091-.087273.010909-.207273.021818-.207273.229091 0 .12.109091.12.272727.12.523637 0 .534546.098182.534546.185454l-.032728.218182-1.374545 5.454544c-.032727.12-.054545.196363-.054545.370909 0 .621818.48 1.003636.992727 1.003636.36 0 .632727-.218182.818181-.610909.196364-.414545.327273-1.047272.327273-1.069091 0-.10909-.098182-.10909-.130909-.10909-.109091 0-.12.043636-.152727.196363-.185455.709091-.392727 1.352727-.829091 1.352727-.327273 0-.327273-.349091-.327273-.501818 0-.261818.01091-.316364.065455-.523636z"/><path id="q" d="m.96-.643636c-.032728.163636-.098182.414545-.098182.469091 0 .196363.152727.294545.316363.294545.13091 0 .327273-.087273.403637-.305454.010909-.021819.141818-.534546.207272-.807273l.24-.981818c.065455-.24.130909-.48.185455-.730909.043636-.185454.130909-.501818.141818-.545454.163636-.338182.741818-1.330909 1.778181-1.330909.490909 0 .589091.403636.589091.763636 0 .676364-.534545 2.072727-.709091 2.541818-.098181.250909-.109091.381818-.109091.501818 0 .512727.381819.894545.894546.894545 1.025454 0 1.42909-1.592727 1.42909-1.68 0-.10909-.098182-.10909-.130909-.10909-.109091 0-.109091.032727-.163636.196363-.218182.741818-.578182 1.352727-1.112727 1.352727-.185455 0-.261818-.109091-.261818-.36 0-.272727.098182-.534545.196363-.774545.207273-.578182.665455-1.778181.665455-2.399999 0-.730909-.469091-1.167273-1.254545-1.167273-.981818 0-1.516364.698182-1.701818.949091-.054546-.610909-.501818-.949091-1.003636-.949091s-.709091.425455-.818182.621818c-.174545.370909-.327272 1.014545-.327272 1.058182 0 .109091.10909.109091.130909.109091.10909 0 .12-.01091.185454-.250909.185455-.774546.403636-1.298182.796364-1.298182.218181 0 .338181.141818.338181.501818 0 .229091-.032727.349091-.174545.916364z"/><path id="r" d="m.490909 1.330909c-.087273.370909-.109091.447272-.589091.447272-.130909 0-.250909 0-.250909.207273 0 .087273.054546.130909.141818.130909.294546 0 .610909-.032727.916364-.032727.36 0 .730909.032727 1.079999.032727.054546 0 .196364 0 .196364-.218182 0-.12-.109091-.12-.261818-.12-.545455 0-.545455-.076363-.545455-.174545 0-.130909.458182-1.90909.534546-2.181818.141818.316364.447272.698182 1.003636.698182 1.265454 0 2.62909-1.592727 2.62909-3.196363 0-1.025454-.621818-1.745454-1.450909-1.745454-.545454 0-1.06909.392727-1.42909.818182-.109091-.589091-.578182-.818182-.981818-.818182-.501818 0-.709091.425455-.807273.621818-.196363.370909-.338181 1.025454-.338181 1.058182 0 .109091.109091.109091.130909.109091.109091 0 .12-.01091.185454-.250909.185455-.774546.403637-1.298182.796364-1.298182.185454 0 .338181.087273.338181.501818 0 .250909-.032727.370909-.076363.556364zm1.919999-4.734544c.076364-.294546.370909-.6.567273-.763637.381818-.338181.698182-.414545.883636-.414545.436364 0 .698182.381818.698182 1.025454s-.36 1.898182-.556364 2.312727c-.370909.763636-.894545 1.123636-1.298181 1.123636-.72 0-.861818-.905454-.861818-.970909 0-.021818 0-.043636.032727-.174545z"/></defs><use x="70.734745" xlink:href="#p" y="68.742217"/><use x="74.204462" xlink:href="#q" y="68.742217"/><use x="87.839077" xlink:href="#r" y="68.742217"/><use x="93.327725" xlink:href="#i" y="68.742217"/><use x="97.570163" xlink:href="#o" y="68.742217"/><use x="107.464102" xlink:href="#g" y="68.742217"/><use x="110.494413" xlink:href="#l" y="68.742217"/><use x="117.067679" xlink:href="#n" y="68.742217"/><use x="121.916139" xlink:href="#h" y="68.742217"/><use x="129.794947" xlink:href="#n" y="68.742217"/><use x="134.643407" xlink:href="#m" y="68.742217"/><use x="141.253285" xlink:href="#j" y="68.742217"/><use x="53.798257" xlink:href="#k" y="82.291413"/><use x="65.31338" xlink:href="#f" y="74.10954"/><use x="76.828563" xlink:href="#c" y="77.264381"/><use x="76.828563" xlink:href="#d" y="85.516897"/><use x="79.711703" xlink:href="#b" y="85.516897"/><use x="86.298209" xlink:href="#a" y="85.516897"/><use x="92.848672" xlink:href="#r" y="82.291413"/><use x="98.33732" xlink:href="#i" y="82.291413"/><use x="102.579758" xlink:href="#o" y="82.291413"/><use x="111.617654" xlink:href="#d" y="83.927764"/><use x="114.998926" xlink:href="#j" y="82.291413"/><use x="53.798257" xlink:href="#k" y="96.986429"/><use x="65.31338" xlink:href="#f" y="88.804556"/><use x="76.828563" xlink:href="#c" y="91.959397"/><use x="76.828563" xlink:href="#d" y="100.211913"/><use x="79.711703" xlink:href="#b" y="100.211913"/><use x="86.298209" xlink:href="#a" y="100.211913"/><use x="92.848672" xlink:href="#p" y="96.986429"/><use x="96.318389" xlink:href="#q" y="96.986429"/><use x="102.866406" xlink:href="#f" y="88.804556"/><path d="m4.27995-3.203985c-.00797-.01594-.04782-.095641-.04782-.103612 0-.01594.135491-.111581.215193-.167372.629638-.462266 1.49041-1.083935 1.753424-1.251307.406476-.255044.70137-.422416 1.060025-.454297.063761-.00797.175343-.01594.175343-.159402-.007971-.055791-.055791-.103612-.111582-.103612-.00797 0-.231133.023911-.286924.023911h-.318805c-.135491 0-.334744 0-.406475-.00797-.055791 0-.366625-.015941-.422416-.015941s-.167373 0-.167373.151433c0 .00797.007971.103611.127522.111581.063761.00797.191283.02391.191283.119552 0 .127522-.159402.263014-.175343.270984l-.06376.05579c-.023911.023911-.055791.055791-.095642.079702l-3.251805 2.359153.629638-2.526526c.071731-.286924.087672-.358655.66949-.358655.159402 0 .255043 0 .255043-.151432 0-.00797-.00797-.111582-.135492-.111582-.151432 0-.342714.015941-.494146.023911h-.502118c-.76513 0-.972353-.023911-1.028144-.023911-.039851 0-.159402 0-.159402.151433 0 .111581.095641.111581.231133.111581.263014 0 .494147 0 .494147.127522 0 .03188-.00797.039851-.03188.143462l-1.067996 4.27995c-.071731.302864-.087671.366625-.677459.366625-.151432 0-.247074 0-.247074.151432 0 .031881.023911.111582.127522.111582.151432 0 .342715-.01594.494147-.02391h1.028145c.127521.00797.390535.02391.510087.02391.03985 0 .159402 0 .159402-.143462 0-.119552-.095641-.119552-.231133-.119552-.055791 0-.167372 0-.302864-.01594-.167373-.01594-.191283-.03188-.191283-.111581 0-.047821.055791-.247074.079701-.374596l.302864-1.203487 1.283188-.924533.956414 1.968618c.03188.063761.119551.239103.151432.310834.047821.079701.047821.095642.047821.127522 0 .215193-.294895.223163-.382566.223163-.079701 0-.191282 0-.191282.151432 0 .007971.00797.111582.135491.111582.079702 0 .382566-.01594.454297-.02391h.462266c.733251 0 .70934.02391.812952.02391.03188 0 .151432 0 .151432-.151432 0-.111582-.111582-.111582-.159402-.111582-.310835-.00797-.414446-.063761-.541968-.334744z" transform="translate(114.381588 91.959397)"/><use x="114.381588" xlink:href="#e" y="100.211913"/><use x="119.003204" xlink:href="#b" y="100.211913"/><use x="125.589711" xlink:href="#a" y="100.211913"/><use x="132.140174" xlink:href="#m" y="96.986429"/><use x="138.358652" xlink:href="#e" y="98.763669"/><path d="m8.290907-7.581816c0-.032727-.021818-.109091-.12-.109091-.032727 0-.043637.010909-.163637.130909l-.763636.84c-.098181-.152727-.599999-.970909-1.810908-.970909-2.432727 0-4.887272 2.410908-4.887272 4.941817 0 1.734545 1.210909 2.98909 2.978181 2.98909.48 0 .970909-.098182 1.363636-.261818.545455-.218182.752727-.447273.949091-.665455.098182.272728.381818.676364.490909.676364.054545 0 .076364-.032727.076364-.043636.021818-.021819.130909-.436364.185454-.665455l.207273-.84c.043636-.185454.098182-.370909.141818-.556363.12-.490909.130909-.512727.752727-.523636.054545 0 .174545-.010909.174545-.218182 0-.076364-.054545-.12-.141818-.12-.250909 0-.894545.032727-1.145454.032727-.338182 0-1.189091-.032727-1.527272-.032727-.098182 0-.229091 0-.229091.218182 0 .12.087273.12.327272.12.01091 0 .327273 0 .578182.021818.283636.032727.338182.065454.338182.207273 0 .098181-.12.58909-.229091.992727-.305454 1.199999-1.723636 1.319999-2.105454 1.319999-1.047272 0-2.192727-.621818-2.192727-2.290908 0-.338182.109091-2.138181 1.254545-3.556363.589091-.741818 1.647273-1.407272 2.727272-1.407272 1.112727 0 1.756364.84 1.756364 2.105454 0 .436363-.032728.447272-.032728.556363s.12.109091.163637.109091c.141818 0 .141818-.021818.196363-.218182z" transform="translate(143.4784 96.986429)"/><use x="152.055661" xlink:href="#i" y="96.986429"/><use x="156.298099" xlink:href="#o" y="96.986429"/><use x="165.335995" xlink:href="#d" y="98.622779"/><use x="168.717267" xlink:href="#g" y="96.986429"/><use x="171.747578" xlink:href="#l" y="96.986429"/><use x="178.320844" xlink:href="#e" y="98.763669"/><use x="183.440592" xlink:href="#n" y="96.986429"/><use x="188.289052" xlink:href="#h" y="96.986429"/><use x="196.167859" xlink:href="#e" y="98.763669"/><use x="201.287607" xlink:href="#j" y="96.986429"/></svg>