<svg height="6.056583pt" viewBox="70.734745 64.045251 10.452661 6.056583" width="10.452661pt" xmlns="http://www.w3.org/2000/svg"><path d="m2.890908-4.06909h1.232727c-.36 1.614545-.458181 2.083636-.458181 2.814545 0 .163636 0 .458182.087272.829091.109091.479999.229091.545454.392727.545454.218182 0 .447273-.196364.447273-.414545 0-.065455 0-.087273-.065455-.24-.316363-.785455-.316363-1.494545-.316363-1.8 0-.578181.076364-1.167272.196363-1.734545h1.243637c.141818 0 .534545 0 .534545-.370909 0-.261818-.229091-.261818-.436364-.261818h-3.654544c-.24 0-.654545 0-1.134545.512727-.381818.425455-.665455.927273-.665455.981818 0 .010909 0 .109091.130909.109091.087273 0 .109091-.043636.174546-.130909.534545-.84 1.167272-.84 1.385454-.84h.621818c-.349091 1.32-.938182 2.639999-1.396363 3.632726-.087273.163637-.087273.185455-.087273.261819 0 .207272.174545.294545.316364.294545.327272 0 .414545-.305454.545454-.709091.152727-.501818.152727-.523636.294545-1.06909z" transform="translate(70.734745 68.742217)"/><path d="m3.291656-1.052055c.071731.047821.095642.047821.135492.047821.127522 0 .239104-.103612.239104-.247074 0-.151432-.079702-.183312-.199253-.239103-.533998-.247073-.72528-.334745-1.115816-.494147l.932503-.422416c.063761-.02391.215193-.095641.278954-.119552.079701-.04782.103612-.127521.103612-.199252 0-.095642-.047821-.247074-.286924-.247074l-1.147697.781071.111582-1.179576c.01594-.135492 0-.334745-.231133-.334745-.143462 0-.255044.119552-.231134.231133v.095641l.111582 1.187547-1.060025-.73325c-.071731-.047821-.095641-.047821-.135492-.047821-.127522 0-.239103.103612-.239103.247074 0 .151432.079701.183312.199253.239103.533997.247074.72528.334745 1.115815.494147l-.932503.422416c-.063761.02391-.215193.095641-.278954.119552-.079701.04782-.103611.127521-.103611.199252 0 .143462.111581.247074.239103.247074.063761 0 .079701 0 .278954-.143462l.916563-.637609-.119552 1.283188c0 .159402.135492.231133.239104.231133s.239103-.071731.239103-.231133c0-.079701-.03188-.334745-.03985-.430386-.031881-.270984-.055791-.573848-.079702-.852802z" transform="translate(76.953223 70.378567)"/></svg>