<svg height="14.373604pt" viewBox="123.69286 70.661107 218.367742 14.373604" width="218.367742pt" xmlns="http://www.w3.org/2000/svg" xmlns:xlink="http://www.w3.org/1999/xlink"><defs><path id="a" d="m3.291656-1.052055c.071731.047821.095642.047821.135492.047821.127522 0 .239104-.103612.239104-.247074 0-.151432-.079702-.183312-.199253-.239103-.533998-.247073-.72528-.334745-1.115816-.494147l.932503-.422416c.063761-.02391.215193-.095641.278954-.119552.079701-.04782.103612-.127521.103612-.199252 0-.095642-.047821-.247074-.286924-.247074l-1.147697.781071.111582-1.179576c.01594-.135492 0-.334745-.231133-.334745-.143462 0-.255044.119552-.231134.231133v.095641l.111582 1.187547-1.060025-.73325c-.071731-.047821-.095641-.047821-.135492-.047821-.127522 0-.239103.103612-.239103.247074 0 .151432.079701.183312.199253.239103.533997.247074.72528.334745 1.115815.494147l-.932503.422416c-.063761.02391-.215193.095641-.278954.119552-.079701.04782-.103611.127521-.103611.199252 0 .143462.111581.247074.239103.247074.063761 0 .079701 0 .278954-.143462l.916563-.637609-.119552 1.283188c0 .159402.135492.231133.239104.231133s.239103-.071731.239103-.231133c0-.079701-.03188-.334745-.03985-.430386-.031881-.270984-.055791-.573848-.079702-.852802z"/><path id="b" d="m7.189089-2.50909c.185454 0 .381818 0 .381818-.218182s-.196364-.218182-.381818-.218182h-5.901817c-.185454 0-.381818 0-.381818.218182s.196364.218182.381818.218182z"/><path id="c" d="m2.094545-2.727272c0-.316364-.261818-.578182-.578182-.578182s-.578181.261818-.578181.578182.261818.578182.578181.578182.578182-.261818.578182-.578182z"/><path id="d" d="m9.098179-2.50909c-.6.458181-.894545.905454-.981818 1.047272-.490909.752727-.578181 1.44-.578181 1.450909 0 .130909.130909.130909.218181.130909.185455 0 .196364-.021818.24-.218182.250909-1.06909.894546-1.985454 2.127273-2.487272.130909-.043636.163636-.065454.163636-.141818s-.065455-.109091-.087273-.12c-.48-.185454-1.799999-.730909-2.214545-2.563636-.032727-.130909-.043636-.163636-.229091-.163636-.087272 0-.218181 0-.218181.130909 0 .021818.098182.709091.556363 1.44.218182.327272.534546.70909 1.003636 1.058181h-8.105452c-.196364 0-.392727 0-.392727.218182s.196363.218182.392727.218182z"/><path id="e" d="m5.515318-2.072229h-.247074c-.207223 1.195517-.374595 1.809215-1.809215 1.809215h-1.187547c-.366625 0-.382565-.05579-.382565-.326774v-2.09614h.7731c.789042 0 .900623.239104.900623.932503h.247074v-2.12802h-.247074c0 .6934-.111581.932504-.900623.932504h-.7731v-1.880947c0-.270984.01594-.326775.382565-.326775h1.131756c1.323038 0 1.490411.478207 1.633873 1.546202h.247073l-.231133-1.809215h-4.702366v.263013h.175342c.613699 0 .629639.087672.629639.382566v4.128518c0 .294894-.01594.382565-.629639.382565h-.175342v.263014h4.813948z"/><path id="f" d="m1.888917-4.798007c0-.302865.02391-.382566.653549-.382566h.191282v-.263014c-.637609.023911-.653549.023911-1.211457.023911s-.573848 0-1.211457-.023911v.263014h.191283c.629639 0 .653549.079701.653549.382566v4.152428c0 .302864-.02391.382565-.653549.382565h-.191283v.263014c.637609-.02391.65355-.02391 1.211457-.02391s.573848 0 1.211457.02391v-.263014h-.191282c-.629639 0-.653549-.079701-.653549-.382565z"/><path id="g" d="m2.263512-2.909091h.916563c-.167373.72528-.310835 1.315069-.310835 1.904857 0 .055791 0 .398505.087672.68543.103611.334744.183312.398505.326774.398505.175343 0 .358655-.151432.358655-.342715 0-.05579-.00797-.071731-.03985-.143462-.167373-.366625-.286924-.74919-.286924-1.402739 0-.183313 0-.518058.119551-1.099876h.964384c.127522 0 .215193 0 .294894-.063761.095641-.087671.119552-.191282.119552-.239103 0-.223163-.199253-.223163-.334745-.223163h-2.87721c-.167373 0-.470237 0-.860773.382565-.286924.286924-.510087.653549-.510087.70934 0 .071731.055791.095641.119552.095641.079701 0 .095641-.02391.143462-.087671.390535-.573848.860772-.573848 1.044085-.573848h.462266c-.231133.844832-.653549 1.809216-.948443 2.391034-.055791.119551-.135492.278954-.135492.350685 0 .167372.135492.247073.263014.247073.302864 0 .382565-.302864.549937-.956413z"/><path id="h" d="m2.890908-4.06909h1.232727c-.36 1.614545-.458181 2.083636-.458181 2.814545 0 .163636 0 .458182.087272.829091.109091.479999.229091.545454.392727.545454.218182 0 .447273-.196364.447273-.414545 0-.065455 0-.087273-.065455-.24-.316363-.785455-.316363-1.494545-.316363-1.8 0-.578181.076364-1.167272.196363-1.734545h1.243637c.141818 0 .534545 0 .534545-.370909 0-.261818-.229091-.261818-.436364-.261818h-3.654544c-.24 0-.654545 0-1.134545.512727-.381818.425455-.665455.927273-.665455.981818 0 .010909 0 .109091.130909.109091.087273 0 .109091-.043636.174546-.130909.534545-.84 1.167272-.84 1.385454-.84h.621818c-.349091 1.32-.938182 2.639999-1.396363 3.632726-.087273.163637-.087273.185455-.087273.261819 0 .207272.174545.294545.316364.294545.327272 0 .414545-.305454.545454-.709091.152727-.501818.152727-.523636.294545-1.06909z"/><path id="i" d="m5.105453-4.058181c0-.58909-.283636-.763636-.48-.763636-.272727 0-.534545.283636-.534545.523636 0 .141819.054545.207273.174545.327273.229091.218182.370909.501818.370909.894545 0 .458182-.665454 2.956363-1.941817 2.956363-.556364 0-.807273-.381818-.807273-.949091 0-.610909.294546-1.407272.632727-2.312726.076364-.185455.130909-.338182.130909-.545455 0-.490909-.34909-.894545-.894545-.894545-1.025454 0-1.439999 1.581818-1.439999 1.68 0 .109091.10909.109091.130909.109091.10909 0 .12-.021819.174545-.196364.316364-1.101818.785454-1.352727 1.101818-1.352727.087273 0 .272727 0 .272727.349091 0 .272727-.109091.567272-.185454.763636-.48 1.265454-.621818 1.767272-.621818 2.236363 0 1.178182.959999 1.352727 1.461817 1.352727 1.832727 0 2.454545-3.610908 2.454545-4.178181z"/></defs><use x="123.69286" xlink:href="#h" y="82.291413"/><path d="m3.897385-2.542466c0-.852802-.087671-1.370859-.350685-1.880946-.350685-.70137-.996264-.876713-1.43462-.876713-1.004234 0-1.37086.749191-1.482441.972354-.286924.581818-.302864 1.370859-.302864 1.785305 0 .526028.02391 1.331009.406475 1.968618.366625.589788.956414.74122 1.37883.74122.382565 0 1.067995-.119551 1.4665-.908592.294894-.573848.318805-1.283188.318805-1.801246zm-1.785305 2.486675c-.270984 0-.820922-.127522-.988294-.964383-.087671-.454297-.087671-1.203487-.087671-1.617933 0-.549938 0-1.107846.087671-1.546202.167372-.812951.789041-.892652.988294-.892652.270984 0 .820921.135492.980323.860772.095642.438356.095642 1.036114.095642 1.578082 0 .470237 0 1.187547-.095642 1.633873-.167372.836862-.71731.948443-.980323.948443z" transform="translate(129.911338 83.927764)"/><use x="140.261456" xlink:href="#e" y="76.107343"/><use x="137.6739" xlink:href="#b" y="82.291413"/><use x="139.110332" xlink:href="#d" y="82.291413"/><use x="153.049697" xlink:href="#i" y="82.291413"/><use x="158.337595" xlink:href="#g" y="83.927764"/><path d="m3.287671-1.906849c0-.436364 0-2.068244-1.464508-2.068244s-1.464508 1.63188-1.464508 2.068244c0 .430386 0 2.032378 1.464508 2.032378s1.464508-1.601992 1.464508-2.032378zm-1.464508 1.841096c-.251058 0-.657534-.119552-.800996-.615692-.095641-.346699-.095641-.932503-.095641-1.303113 0-.400498 0-.860772.083686-1.183562.149439-.537982.603736-.615691.812951-.615691.274969 0 .66949.131507.800996.585804.089664.316811.095642.753175.095642 1.213449 0 .382565 0 .986301-.101619 1.321046-.167373.52005-.597759.597759-.795019.597759z" transform="translate(163.200447 85.034712)"/><use x="174.103971" xlink:href="#f" y="76.107343"/><use x="170.879871" xlink:href="#b" y="82.291413"/><use x="170.880053" xlink:href="#d" y="82.291413"/><use x="184.819419" xlink:href="#h" y="82.291413"/><path d="m2.502615-5.076961c0-.215193-.01594-.223164-.231133-.223164-.326775.318805-.749191.510088-1.506351.510088v.263013c.215193 0 .645579 0 1.107845-.215193v4.088668c0 .294894-.02391.390535-.781071.390535h-.278954v.263014c.326775-.02391 1.012205-.02391 1.37086-.02391s1.052055 0 1.378829.02391v-.263014h-.278954c-.75716 0-.781071-.095641-.781071-.390535z" transform="translate(191.037897 83.927764)"/><use x="201.388015" xlink:href="#e" y="76.107343"/><use x="198.800459" xlink:href="#b" y="82.291413"/><use x="200.236891" xlink:href="#d" y="82.291413"/><use x="214.176256" xlink:href="#i" y="82.291413"/><use x="219.464154" xlink:href="#g" y="83.927764"/><path d="m2.145953-3.795766c0-.179327-.023911-.179327-.203238-.179327-.394521.382565-1.004234.382565-1.219427.382565v.233126c.155417 0 .549937 0 .908592-.167373v3.01868c0 .197261 0 .274969-.615691.274969h-.257036v.233126c.328767-.02391.795019-.02391 1.129764-.02391s.800996 0 1.129763.02391v-.233126h-.257036c-.615691 0-.615691-.077708-.615691-.274969z" transform="translate(224.327006 85.034712)"/><use x="235.23053" xlink:href="#f" y="76.107343"/><use x="232.00643" xlink:href="#b" y="82.291413"/><use x="232.006612" xlink:href="#d" y="82.291413"/><use x="245.945978" xlink:href="#h" y="82.291413"/><path d="m2.247572-1.625903c.127521-.119552.462266-.382565.589788-.494147.494147-.454296.964383-.892652.964383-1.617933 0-.948443-.797011-1.562142-1.793275-1.562142-.956413 0-1.586052.725281-1.586052 1.434621 0 .390535.310834.446326.422416.446326.167372 0 .414446-.119552.414446-.422416 0-.414446-.398506-.414446-.494147-.414446.231133-.581818.765131-.781071 1.155666-.781071.74122 0 1.123786.629639 1.123786 1.299128 0 .828892-.581818 1.434621-1.522292 2.399004l-1.004234 1.036115c-.095641.087671-.095641.103611-.095641.302864h3.148194l.231133-1.42665h-.247073c-.02391.159402-.087671.557908-.183313.70934-.04782.063761-.653549.063761-.781071.063761h-1.41868z" transform="translate(252.164456 83.927764)"/><use x="262.514575" xlink:href="#e" y="76.107343"/><use x="259.927018" xlink:href="#b" y="82.291413"/><use x="261.36345" xlink:href="#d" y="82.291413"/><use x="273.484667" xlink:href="#c" y="82.291413"/><use x="278.333127" xlink:href="#c" y="82.291413"/><use x="283.181587" xlink:href="#c" y="82.291413"/><use x="292.466236" xlink:href="#f" y="76.107343"/><use x="289.242136" xlink:href="#b" y="82.291413"/><use x="289.242318" xlink:href="#d" y="82.291413"/><use x="303.181684" xlink:href="#h" y="82.291413"/><use x="309.400162" xlink:href="#a" y="83.927764"/><use x="319.75028" xlink:href="#e" y="76.107343"/><use x="317.162724" xlink:href="#b" y="82.291413"/><use x="318.599156" xlink:href="#d" y="82.291413"/><use x="332.538521" xlink:href="#i" y="82.291413"/><use x="337.826419" xlink:href="#a" y="83.927764"/></svg>