<svg height="6.81818pt" viewBox="70.734745 64.045251 6.254028 6.81818" width="6.254028pt" xmlns="http://www.w3.org/2000/svg"><path d="m.447273-2.770908c.425454-1.254545 1.614545-1.265455 1.734545-1.265455 1.647272 0 1.767272 1.909091 1.767272 2.770909 0 .665454-.054546.850909-.130909 1.06909-.24.796364-.567273 2.061818-.567273 2.345454 0 .12.054546.196364.141818.196364.141818 0 .229091-.24.349091-.654545.250909-.916364.36-1.538182.403636-1.876363.021819-.141819.043637-.283637.087273-.425455.349091-1.08 1.047273-2.705454 1.483636-3.567272.076364-.130909.207273-.370909.207273-.414545 0-.109091-.109091-.109091-.130909-.109091-.032728 0-.098182 0-.130909.076364-.567273 1.036363-1.003636 2.127272-1.44 3.22909-.010909-.338182-.021818-1.167273-.447273-2.225454-.261818-.665455-.698181-1.2-1.450908-1.2-1.363636 0-2.127272 1.658182-2.127272 1.996363 0 .109091.098181.109091.207272.109091z" transform="translate(70.734745 68.742217)"/></svg>