<svg height="26.41276pt" viewBox="133.314235 70.836812 199.623252 26.41276" width="199.623252pt" xmlns="http://www.w3.org/2000/svg" xmlns:xlink="http://www.w3.org/1999/xlink"><defs><path id="a" d="m2.11208-3.777833c.03985-.103612.071731-.159402.071731-.239103 0-.263014-.239104-.438357-.462267-.438357-.318804 0-.406476.278954-.438356.390536l-1.012204 3.435118c-.031881.095641-.031881.119552-.031881.127522 0 .071731.047821.087671.127522.111582.143462.06376.159402.06376.175343.06376.02391 0 .071731 0 .127521-.135492z"/><path id="b" d="m1.876961-2.809465c.041843-.089663.053799-.155417.053799-.191282 0-.185305-.167373-.340722-.364633-.340722-.239103 0-.310834.209215-.334745.292901l-.836861 2.558406c-.011956.035866-.029888.083686-.029888.107597 0 .101619.239103.149439.245081.149439.053798 0 .077708-.053798.101619-.101619z"/><path id="c" d="m3.610908 2.618181c0-.032727 0-.054545-.185454-.24-1.363636-1.374545-1.712727-3.436363-1.712727-5.105453 0-1.898181.414545-3.796363 1.756363-5.159999.141818-.130909.141818-.152727.141818-.185454 0-.076364-.043636-.109091-.109091-.109091-.109091 0-1.090909.741818-1.734545 2.127272-.556363 1.2-.687272 2.410909-.687272 3.327272 0 .850909.12 2.170909.719999 3.403635.654546 1.341818 1.592727 2.050909 1.701818 2.050909.065455 0 .109091-.032727.109091-.109091z"/><path id="d" d="m3.152726-2.727272c0-.850909-.12-2.170908-.719999-3.403635-.654546-1.341818-1.592727-2.050909-1.701818-2.050909-.065455 0-.109091.043636-.109091.109091 0 .032727 0 .054545.207273.250909 1.06909 1.08 1.690908 2.814545 1.690908 5.094544 0 1.865454-.403636 3.785454-1.756363 5.159999-.141818.130909-.141818.152727-.141818.185454 0 .065455.043636.109091.109091.109091.109091 0 1.090909-.741818 1.734545-2.127272.556363-1.2.687272-2.410909.687272-3.327272z"/><path id="e" d="m2.214545-.010909c0-.72-.272727-1.145454-.698182-1.145454-.36 0-.578181.272727-.578181.578181 0 .294546.218181.578182.578181.578182.130909 0 .272727-.043636.381818-.141818.032728-.021818.043637-.032727.054546-.032727s.021818.010909.021818.163636c0 .807272-.381818 1.461818-.741818 1.821818-.12.12-.12.141818-.12.174545 0 .076364.054545.12.109091.12.12 0 .992727-.84.992727-2.116363z"/><path id="f" d="m4.06909-4.123635c-.196364-.403636-.512727-.698182-1.003636-.698182-1.276364 0-2.62909 1.603636-2.62909 3.196363 0 1.025454.599999 1.745454 1.450908 1.745454.218182 0 .763636-.043636 1.418182-.818182.087272.458182.46909.818182.992727.818182.381818 0 .632727-.250909.807272-.6.185455-.392727.327273-1.058181.327273-1.08 0-.10909-.098182-.10909-.130909-.10909-.109091 0-.12.043636-.152728.196363-.185454.709091-.381818 1.352727-.82909 1.352727-.294546 0-.327273-.283636-.327273-.501818 0-.24.021818-.327273.141818-.807273.12-.458181.141818-.567272.24-.981817l.392727-1.527273c.076364-.305454.076364-.327272.076364-.370909 0-.185454-.130909-.294545-.316364-.294545-.261818 0-.425454.24-.458181.48zm-.709091 2.825454c-.054545.196363-.054545.218181-.218182.403636-.48.6-.927272.774545-1.232727.774545-.545454 0-.698181-.6-.698181-1.025454 0-.545455.349091-1.887272.6-2.38909.338181-.643637.82909-1.047273 1.265454-1.047273.70909 0 .861818.894545.861818.96s-.021818.130909-.032728.185454z"/><path id="g" d="m.96-.643636c-.032728.163636-.098182.414545-.098182.469091 0 .196363.152727.294545.316363.294545.13091 0 .327273-.087273.403637-.305454.021818-.043637.392727-1.527273.436363-1.723636.087273-.36.283637-1.123636.349091-1.418182.043636-.141818.349091-.654545.610909-.894545.087273-.076364.403636-.36.872727-.36.283636 0 .447273.130909.458182.130909-.327273.054546-.567273.316364-.567273.6 0 .174545.12.381818.414545.381818s.6-.250909.6-.643636c0-.381818-.349091-.709091-.905454-.709091-.709091 0-1.189091.534545-1.396363.84-.087273-.490909-.48-.84-.992727-.84-.501818 0-.709091.425455-.807273.621818-.196363.370909-.338181 1.025454-.338181 1.058182 0 .109091.10909.109091.130909.109091.10909 0 .12-.01091.185454-.250909.185455-.774546.403636-1.298182.796364-1.298182.185454 0 .338181.087273.338181.501818 0 .229091-.032727.349091-.174545.916364z"/><path id="h" d="m4.265453-4.079999c-.305454.010909-.523636.250909-.523636.490909 0 .152727.098182.316364.338182.316364s.501818-.185455.501818-.610909c0-.490909-.469091-.938182-1.298182-.938182-1.439999 0-1.843635 1.112727-1.843635 1.592727 0 .850909.807272 1.014545 1.123636 1.08.567272.109091 1.134545.229091 1.134545.82909 0 .283637-.250909 1.2-1.56 1.2-.152727 0-.992727 0-1.243636-.578182.414546.054546.687273-.272727.687273-.578181 0-.250909-.174546-.381818-.403637-.381818-.283636 0-.610908.22909-.610908.719999 0 .621818.621818 1.058182 1.559999 1.058182 1.767272 0 2.192727-1.32 2.192727-1.810909 0-.392727-.207273-.665454-.338182-.796363-.294545-.305454-.610909-.36-1.090909-.458182-.392727-.087272-.82909-.163636-.82909-.654545 0-.316364.261818-.981818 1.221817-.981818.272728 0 .818182.076364.981818.501818z"/></defs><path d="m2.890908-4.06909h1.232727c-.36 1.614545-.458181 2.083636-.458181 2.814545 0 .163636 0 .458182.087272.829091.109091.479999.229091.545454.392727.545454.218182 0 .447273-.196364.447273-.414545 0-.065455 0-.087273-.065455-.24-.316363-.785455-.316363-1.494545-.316363-1.8 0-.578181.076364-1.167272.196363-1.734545h1.243637c.141818 0 .534545 0 .534545-.370909 0-.261818-.229091-.261818-.436364-.261818h-3.654544c-.24 0-.654545 0-1.134545.512727-.381818.425455-.665455.927273-.665455.981818 0 .010909 0 .109091.130909.109091.087273 0 .109091-.043636.174546-.130909.534545-.84 1.167272-.84 1.385454-.84h.621818c-.349091 1.32-.938182 2.639999-1.396363 3.632726-.087273.163637-.087273.185455-.087273.261819 0 .207272.174545.294545.316364.294545.327272 0 .414545-.305454.545454-.709091.152727-.501818.152727-.523636.294545-1.06909z" transform="translate(133.314235 82.291413)"/><use x="139.924114" xlink:href="#c" y="82.291413"/><use x="144.166552" xlink:href="#h" y="82.291413"/><use x="149.280187" xlink:href="#d" y="82.291413"/><path d="m7.494543-3.567272c.163637 0 .370909 0 .370909-.218181s-.207272-.218182-.36-.218182h-6.534543c-.152727 0-.36 0-.36.218182s.207273.218181.370909.218181zm.010909 2.116363c.152728 0 .36 0 .36-.218181s-.207272-.218182-.370909-.218182h-6.512725c-.163636 0-.370909 0-.370909.218182s.207273.218181.36.218181z" transform="translate(156.552872 82.291413)"/><use x="168.067995" xlink:href="#f" y="82.291413"/><use x="173.834432" xlink:href="#g" y="82.291413"/><path d="m5.13818-4.112726c.010909-.065455.032728-.12.032728-.196364 0-.185454-.130909-.294545-.316364-.294545-.109091 0-.403636.076364-.447273.469091-.196363-.403637-.578181-.687273-1.014545-.687273-1.243636 0-2.596363 1.527272-2.596363 3.098181 0 1.08.665455 1.723636 1.450909 1.723636.643636 0 1.156363-.512727 1.265454-.632727l.010909.010909c-.22909.970909-.36 1.418181-.36 1.44-.043636.098181-.414545 1.178181-1.570908 1.178181-.207273 0-.567273-.010909-.872727-.109091.327272-.098182.447272-.381818.447272-.567272 0-.174546-.12-.381818-.414545-.381818-.24 0-.589091.196363-.589091.632727 0 .447272.403637.665454 1.450909.665454 1.363636 0 2.14909-.850909 2.312727-1.505454zm-1.418181 2.716363c-.065455.283636-.316364.556363-.556364.763636-.22909.196363-.567272.392727-.883636.392727-.545454 0-.70909-.567273-.70909-1.003636 0-.523636.316363-1.810909.610909-2.367272.294545-.534545.763636-.970909 1.221817-.970909.72 0 .872727.883636.872727.938182s-.021818.12-.032727.163636z" transform="translate(179.059203 82.291413)"/><path d="m1.2-3.752726v2.923635c0 .490909-.12.490909-.850909.490909v.338182c.381818-.010909.938181-.032727 1.232727-.032727.283636 0 .850909.021818 1.221818.032727v-.338182c-.730909 0-.850909 0-.850909-.490909v-2.007272c0-1.134545.774545-1.745454 1.472727-1.745454.687272 0 .807272.589091.807272 1.210909v2.541817c0 .490909-.12.490909-.850909.490909v.338182c.381818-.010909.938182-.032727 1.232727-.032727.283636 0 .850909.021818 1.221818.032727v-.338182c-.730909 0-.850909 0-.850909-.490909v-2.007272c0-1.134545.774545-1.745454 1.472727-1.745454.687273 0 .807273.589091.807273 1.210909v2.541817c0 .490909-.12.490909-.850909.490909v.338182c.381818-.010909.938181-.032727 1.232727-.032727.283636 0 .850908.021818 1.221817.032727v-.338182c-.567272 0-.839999 0-.850908-.327272v-2.083636c0-.938182 0-1.276363-.338182-1.669091-.152727-.185454-.512727-.403636-1.145454-.403636-.916364 0-1.396364.654545-1.581818 1.069091-.152727-.949091-.96-1.069091-1.450909-1.069091-.796363 0-1.30909.469091-1.614545 1.145454v-1.145454l-1.538181.12v.338182c.763636 0 .850909.076363.850909.610909z" transform="translate(186.472046 82.291413)"/><path d="m3.632726-.829091c.043637.436364.338182.894546.850909.894546.229091 0 .894545-.152728.894545-1.036364v-.610909h-.272727v.610909c0 .632727-.272727.698182-.392727.698182-.36 0-.403636-.490909-.403636-.545455v-2.181817c0-.458182 0-.883636-.392727-1.287273-.425455-.425454-.970909-.599999-1.494545-.599999-.894546 0-1.647273.512727-1.647273 1.232727 0 .327272.218182.512727.501818.512727.305455 0 .501818-.218182.501818-.501818 0-.130909-.054545-.490909-.556363-.501818.294545-.381818.829091-.501818 1.178181-.501818.534546 0 1.156364.425454 1.156364 1.396363v.403636c-.556364.032727-1.32.065455-2.007273.392727-.818181.370909-1.090908.938182-1.090908 1.418182 0 .883636 1.058181 1.156363 1.745454 1.156363.72 0 1.221818-.436364 1.42909-.949091zm-.076363-1.78909v1.090909c0 1.036363-.785455 1.407272-1.276364 1.407272-.534545 0-.981818-.381818-.981818-.927272 0-.6.458182-1.505455 2.258182-1.570909z" transform="translate(195.56298 82.291413)"/><path d="m3.130908-2.563636c.327273-.414545.741818-.94909 1.003636-1.232727.338182-.392727.785455-.556363 1.298182-.567272v-.338182c-.283637.021818-.610909.032727-.894545.032727-.327273 0-.905455-.021818-1.047273-.032727v.338182c.229091.021818.316364.163636.316364.338182s-.109091.316363-.163637.381818l-.676363.850909-.850909-1.101818c-.098182-.109091-.098182-.130909-.098182-.196364 0-.163636.163637-.261818.381818-.272727v-.338182c-.283636.010909-1.003636.032727-1.178181.032727-.229091 0-.741818-.010909-1.036364-.032727v.338182c.763637 0 .774546.010909 1.287273.665454l1.08 1.407273-1.025455 1.298181c-.523636.632727-1.167272.654545-1.396363.654545v.338182c.283636-.021818.621818-.032727.905454-.032727.316364 0 .774546.021818 1.036364.032727v-.338182c-.24-.032727-.316364-.174545-.316364-.338181 0-.24.316364-.6.981818-1.385455l.829091 1.090909c.087272.12.229091.294546.229091.36 0 .098182-.098182.261818-.392728.272727v.338182c.327273-.010909.938182-.032727 1.178182-.032727.294545 0 .72.010909 1.047272.032727v-.338182c-.58909 0-.785454-.021818-1.036363-.338181z" transform="translate(201.017545 82.291413)"/><path d="m3.124284-3.036613c-.071731-.135492-.302864-.478206-.789041-.478206-.948443 0-1.992528 1.107845-1.992528 2.287422 0 .828891.533997 1.307098 1.147696 1.307098.510087 0 .948443-.406476 1.091905-.565878.143462.549938.68543.565878.781071.565878.366625 0 .549938-.302864.613699-.438356.159402-.286924.270984-.749191.270984-.781071 0-.047821-.031881-.103611-.127522-.103611s-.111582.04782-.159402.247073c-.111582.438356-.263014.852802-.573848.852802-.183313 0-.255044-.151432-.255044-.374595 0-.135492.071731-.406476.119552-.605729s.167372-.677459.199253-.820921l.159402-.605729c.03985-.191283.127522-.526027.127522-.565878 0-.183312-.151433-.247073-.255044-.247073-.119552 0-.318805.079701-.358655.326774zm-.541968 2.175841c-.398505.549938-.812951.71731-1.067995.71731-.366625 0-.549937-.334745-.549937-.749191 0-.374595.215193-1.227397.390535-1.578082.231133-.486177.621669-.820921.988294-.820921.518057 0 .669489.581818.669489.677459 0 .031881-.199252.812952-.247073 1.020175-.103612.374595-.103612.390535-.183313.73325z" transform="translate(194.374586 88.83686)"/><path d="m13.810905 15.272723 1.32-3.490908h-.272727c-.425455 1.134545-1.581818 1.876363-2.836363 2.203636-.229091.054545-1.298182.338181-3.392726.338181h-6.57818l5.552725-6.512725c.076364-.087273.098182-.12.098182-.174545 0-.021819 0-.054546-.076364-.163637l-5.083635-6.949089h5.978181c1.461817 0 2.454544.152727 2.552726.174546.589091.087272 1.538182.272727 2.4.818181.272727.174546 1.014545.665455 1.385454 1.549091h.272727l-1.32-3.065454h-12.894542c-.250909 0-.261818.010909-.294545.076364-.010909.032727-.010909.24-.010909.36l5.770907 7.898179-5.650907 6.621816c-.109091.13091-.109091.185455-.109091.196364 0 .12.098182.12.294545.12z" transform="translate(208.593269 71.927735)"/><path d="m3.211955-2.996762c-.183312.03188-.350685.175342-.350685.374595 0 .143462.095642.247074.270984.247074.119552 0 .366625-.087672.366625-.446327 0-.494147-.518057-.693399-1.012204-.693399-1.067995 0-1.40274.75716-1.40274 1.163636 0 .079701 0 .366625.294894.589788.183313.143462.318805.167373.733251.247074.278954.05579.73325.135492.73325.549937 0 .207223-.151432.470237-.374595.621669-.294894.191283-.68543.199253-.812952.199253-.191282 0-.73325-.03188-.932503-.350685.406476-.01594.462267-.342715.462267-.438356 0-.239103-.215193-.294894-.310835-.294894-.127521 0-.454296.095641-.454296.533997 0 .470237.494147.773101 1.235367.773101 1.3868 0 1.681694-.980324 1.681694-1.315068 0-.71731-.781071-.868743-1.075965-.924533-.382566-.071731-.6934-.127522-.6934-.462267 0-.143462.135492-.669489.908593-.669489.302864 0 .613698.087671.73325.294894z" transform="translate(208.625284 95.699826)"/><use x="212.541203" xlink:href="#b" y="93.430565"/><path d="m1.490411-.119552c0 .518058-.111582.972354-.605729 1.466501-.03188.02391-.04782.039851-.04782.079701 0 .063761.063761.111582.119551.111582.095642 0 .757161-.629639.757161-1.562142 0-.510088-.191283-.860772-.541968-.860772-.278953 0-.438356.223163-.438356.438356 0 .223163.151432.446326.446327.446326.191282 0 .310834-.111582.310834-.119552z" transform="translate(215.225579 95.699826)"/><path d="m1.538232-1.099875c.087671-.342715.175342-.68543.255043-1.036115.00797-.01594.063761-.247074.071731-.286924.023911-.071731.223163-.398506.430386-.597758.255044-.231134.526028-.270984.66949-.270984.087671 0 .231133.00797.342715.103611-.342715.071731-.390536.366625-.390536.438356 0 .175343.135492.294894.310834.294894.215193 0 .454297-.175342.454297-.494146 0-.286925-.247074-.565878-.70137-.565878-.541968 0-.908593.358655-1.075965.573848-.159402-.573848-.70137-.573848-.781071-.573848-.286924 0-.486177.183312-.613699.430386-.183312.358655-.270984.76513-.270984.789041 0 .071731.055791.103611.119552.103611.103612 0 .111582-.03188.167372-.239103.095642-.390536.239104-.860772.573848-.860772.207223 0 .255044.199253.255044.374595 0 .143462-.039851.294894-.103611.557908-.015941.063761-.135492.533997-.167373.645579l-.294894 1.195517c-.03188.119551-.079701.318804-.079701.350685 0 .183312.151432.247073.255044.247073.278953 0 .334744-.223163.398505-.494147z" transform="translate(217.577903 95.699826)"/><use x="221.634498" xlink:href="#b" y="93.430565"/><path d="m.490909 1.330909c-.087273.370909-.109091.447272-.589091.447272-.130909 0-.250909 0-.250909.207273 0 .087273.054546.130909.141818.130909.294546 0 .610909-.032727.916364-.032727.36 0 .730909.032727 1.079999.032727.054546 0 .196364 0 .196364-.218182 0-.12-.109091-.12-.261818-.12-.545455 0-.545455-.076363-.545455-.174545 0-.130909.458182-1.90909.534546-2.181818.141818.316364.447272.698182 1.003636.698182 1.265454 0 2.62909-1.592727 2.62909-3.196363 0-1.025454-.621818-1.745454-1.450909-1.745454-.545454 0-1.06909.392727-1.42909.818182-.109091-.589091-.578182-.818182-.981818-.818182-.501818 0-.709091.425455-.807273.621818-.196363.370909-.338181 1.025454-.338181 1.058182 0 .109091.109091.109091.130909.109091.109091 0 .12-.01091.185454-.250909.185455-.774546.403637-1.298182.796364-1.298182.185454 0 .338181.087273.338181.501818 0 .250909-.032727.370909-.076363.556364zm1.919999-4.734544c.076364-.294546.370909-.6.567273-.763637.381818-.338181.698182-.414545.883636-.414545.436364 0 .698182.381818.698182 1.025454s-.36 1.898182-.556364 2.312727c-.370909.763636-.894545 1.123636-1.298181 1.123636-.72 0-.861818-.905454-.861818-.970909 0-.021818 0-.043636.032727-.174545z" transform="translate(226.169023 82.291413)"/><use x="231.65767" xlink:href="#c" y="82.291413"/><use x="235.900108" xlink:href="#h" y="82.291413"/><use x="241.013743" xlink:href="#a" y="77.78714"/><use x="243.808819" xlink:href="#e" y="82.291413"/><use x="248.657279" xlink:href="#g" y="82.291413"/><path d="m1.734545-7.789089c0-.196363 0-.392727-.218182-.392727s-.218182.196364-.218182.392727v10.123634c0 .196363 0 .392727.218182.392727s.218182-.196364.218182-.392727z" transform="translate(253.882049 82.291413)"/><use x="256.912361" xlink:href="#h" y="82.291413"/><use x="262.025996" xlink:href="#e" y="82.291413"/><use x="266.874456" xlink:href="#f" y="82.291413"/><use x="272.640892" xlink:href="#d" y="82.291413"/><path d="m2.781817 2.727272v-.436364h-1.058181v-10.03636h1.058181v-.436364h-1.494545v10.909088z" transform="translate(276.883331 82.291413)"/><use x="279.913642" xlink:href="#g" y="82.291413"/><path d="m4.461817-2.50909h3.043635c.152728 0 .36 0 .36-.218182s-.207272-.218182-.36-.218182h-3.043635v-3.054544c0-.152728 0-.36-.218182-.36s-.218182.207272-.218182.36v3.054544h-3.054544c-.152727 0-.36 0-.36.218182s.207273.218182.36.218182h3.054544v3.054544c0 .152728 0 .36.218182.36s.218182-.207272.218182-.36z" transform="translate(287.562611 82.291413)"/><path d="m.447273-2.770908c.425454-1.254545 1.614545-1.265455 1.734545-1.265455 1.647272 0 1.767272 1.909091 1.767272 2.770909 0 .665454-.054546.850909-.130909 1.06909-.24.796364-.567273 2.061818-.567273 2.345454 0 .12.054546.196364.141818.196364.141818 0 .229091-.24.349091-.654545.250909-.916364.36-1.538182.403636-1.876363.021819-.141819.043637-.283637.087273-.425455.349091-1.08 1.047273-2.705454 1.483636-3.567272.076364-.130909.207273-.370909.207273-.414545 0-.109091-.109091-.109091-.130909-.109091-.032728 0-.098182 0-.130909.076364-.567273 1.036363-1.003636 2.127272-1.44 3.22909-.010909-.338182-.021818-1.167273-.447273-2.225454-.261818-.665455-.698181-1.2-1.450908-1.2-1.363636 0-2.127272 1.658182-2.127272 1.996363 0 .109091.098181.109091.207272.109091z" transform="translate(298.471685 82.291413)"/><path d="m6.850907-6.207271c.534545-.850909.992727-.883636 1.396363-.905454.130909-.010909.141819-.196364.141819-.207273 0-.087273-.054546-.130909-.141819-.130909-.283636 0-.599999.032727-.894545.032727-.36 0-.730909-.032727-1.079999-.032727-.065455 0-.207273 0-.207273.207273 0 .12.098182.130909.174545.130909.294546.021818.501818.130909.501818.36 0 .163636-.163636.403636-.163636.414545l-3.34909 5.323635-.741818-5.770908c0-.185454.250909-.327272.752727-.327272.152727 0 .272727 0 .272727-.218182 0-.098182-.087272-.12-.152727-.12-.436363 0-.905454.032727-1.352727.032727-.196363 0-.403636-.010909-.6-.010909s-.403636-.021818-.58909-.021818c-.076364 0-.207273 0-.207273.207273 0 .130909.098182.130909.272727.130909.610909 0 .621818.098182.654545.370909l.861818 6.730907c.032728.218182.076364.250909.218182.250909.174545 0 .218182-.054546.305455-.196364z" transform="translate(304.725704 82.291413)"/><use x="313.513589" xlink:href="#c" y="82.291413"/><use x="317.756027" xlink:href="#h" y="82.291413"/><use x="322.869662" xlink:href="#a" y="77.78714"/><use x="325.664738" xlink:href="#d" y="82.291413"/><path d="m1.734545-8.181816h-1.494545v.436364h1.058181v10.03636h-1.058181v.436364h1.494545z" transform="translate(329.907176 82.291413)"/></svg>