<svg height="4.696966pt" viewBox="70.734745 64.045251 5.224778 4.696966" width="5.224778pt" xmlns="http://www.w3.org/2000/svg"><path d="m.96-.643636c-.032728.163636-.098182.414545-.098182.469091 0 .196363.152727.294545.316363.294545.13091 0 .327273-.087273.403637-.305454.021818-.043637.392727-1.527273.436363-1.723636.087273-.36.283637-1.123636.349091-1.418182.043636-.141818.349091-.654545.610909-.894545.087273-.076364.403636-.36.872727-.36.283636 0 .447273.130909.458182.130909-.327273.054546-.567273.316364-.567273.6 0 .174545.12.381818.414545.381818s.6-.250909.6-.643636c0-.381818-.349091-.709091-.905454-.709091-.709091 0-1.189091.534545-1.396363.84-.087273-.490909-.48-.84-.992727-.84-.501818 0-.709091.425455-.807273.621818-.196363.370909-.338181 1.025454-.338181 1.058182 0 .109091.10909.109091.130909.109091.10909 0 .12-.01091.185454-.250909.185455-.774546.403636-1.298182.796364-1.298182.185454 0 .338181.087273.338181.501818 0 .229091-.032727.349091-.174545.916364z" transform="translate(70.734745 68.742217)"/></svg>