<svg height="6.056583pt" viewBox="70.734745 64.045251 9.52208 6.056583" width="9.52208pt" xmlns="http://www.w3.org/2000/svg"><path d="m5.105453-4.058181c0-.58909-.283636-.763636-.48-.763636-.272727 0-.534545.283636-.534545.523636 0 .141819.054545.207273.174545.327273.229091.218182.370909.501818.370909.894545 0 .458182-.665454 2.956363-1.941817 2.956363-.556364 0-.807273-.381818-.807273-.949091 0-.610909.294546-1.407272.632727-2.312726.076364-.185455.130909-.338182.130909-.545455 0-.490909-.34909-.894545-.894545-.894545-1.025454 0-1.439999 1.581818-1.439999 1.68 0 .109091.10909.109091.130909.109091.10909 0 .12-.021819.174545-.196364.316364-1.101818.785454-1.352727 1.101818-1.352727.087273 0 .272727 0 .272727.349091 0 .272727-.109091.567272-.185454.763636-.48 1.265454-.621818 1.767272-.621818 2.236363 0 1.178182.959999 1.352727 1.461817 1.352727 1.832727 0 2.454545-3.610908 2.454545-4.178181z" transform="translate(70.734745 68.742217)"/><path d="m3.291656-1.052055c.071731.047821.095642.047821.135492.047821.127522 0 .239104-.103612.239104-.247074 0-.151432-.079702-.183312-.199253-.239103-.533998-.247073-.72528-.334745-1.115816-.494147l.932503-.422416c.063761-.02391.215193-.095641.278954-.119552.079701-.04782.103612-.127521.103612-.199252 0-.095642-.047821-.247074-.286924-.247074l-1.147697.781071.111582-1.179576c.01594-.135492 0-.334745-.231133-.334745-.143462 0-.255044.119552-.231134.231133v.095641l.111582 1.187547-1.060025-.73325c-.071731-.047821-.095641-.047821-.135492-.047821-.127522 0-.239103.103612-.239103.247074 0 .151432.079701.183312.199253.239103.533997.247074.72528.334745 1.115815.494147l-.932503.422416c-.063761.02391-.215193.095641-.278954.119552-.079701.04782-.103611.127521-.103611.199252 0 .143462.111581.247074.239103.247074.063761 0 .079701 0 .278954-.143462l.916563-.637609-.119552 1.283188c0 .159402.135492.231133.239104.231133s.239103-.071731.239103-.231133c0-.079701-.03188-.334745-.03985-.430386-.031881-.270984-.055791-.573848-.079702-.852802z" transform="translate(76.022642 70.378567)"/></svg>