<svg height="97pt" viewBox="0 0 368 97" width="368pt" xmlns="http://www.w3.org/2000/svg" xmlns:xlink="http://www.w3.org/1999/xlink"><symbol id="a" overflow="visible"><path d="m3.15625-3.296875h1.921875c1.515625 0 2.78125-.78125 2.78125-2.0625 0-1.1875-1.078125-2.125-2.890625-2.125h-4.546875v.515625h1.1875v6.453125h-1.1875v.515625c.421875-.03125 1.484375-.03125 1.953125-.03125s1.546875 0 1.953125.03125v-.515625h-1.171875zm1.390625-.4375h-1.453125v-3.234375h1.46875c1.625 0 1.625.828125 1.625 1.609375s0 1.625-1.640625 1.625zm0 0"/></symbol><symbol id="b" overflow="visible"><path d="m5.90625-2.375c0-1.46875-1-2.5625-2.78125-2.5625s-2.78125 1.109375-2.78125 2.5625c0 1.34375.96875 2.4375 2.78125 2.4375 1.84375 0 2.78125-1.09375 2.78125-2.4375zm-2.78125 2c-1.375 0-1.375-1.171875-1.375-2.125 0-.484375 0-1.046875.1875-1.421875.203125-.390625.65625-.625 1.1875-.625.46875 0 .921875.171875 1.15625.5625.234375.359375.234375.96875.234375 1.484375 0 .953125 0 2.125-1.390625 2.125zm0 0"/></symbol><symbol id="c" overflow="visible"><path d="m2.4375-7.5625-1.921875.078125v.515625c.671875 0 .75 0 .75.421875v6.03125h-.75v.515625c.34375-.015625.875-.03125 1.34375-.03125s.96875.015625 1.34375.03125v-.515625h-.765625zm0 0"/></symbol><symbol id="d" overflow="visible"><path d="m2.4375-4.90625-1.890625.078125v.515625c.640625 0 .71875 0 .71875.4375v3.359375h-.75v.515625c.328125-.015625.875-.03125 1.328125-.03125.328125 0 .875.015625 1.28125.03125v-.515625h-.6875zm.109375-1.828125c0-.46875-.390625-.84375-.84375-.84375-.46875 0-.859375.375-.859375.84375s.390625.859375.859375.859375c.453125 0 .84375-.375.84375-.859375zm0 0"/></symbol><symbol id="e" overflow="visible"><path d="m3.921875-4.4375c-.1875.171875-.21875.40625-.21875.5 0 .484375.390625.6875.6875.6875.328125 0 .6875-.234375.6875-.6875 0-.9375-1.265625-1-1.90625-1-1.953125 0-2.75 1.25-2.75 2.515625 0 1.453125 1.015625 2.484375 2.703125 2.484375 1.765625 0 2.09375-1.265625 2.09375-1.34375 0-.140625-.15625-.140625-.265625-.140625-.203125 0-.203125.015625-.265625.15625-.28125.6875-.8125.890625-1.359375.890625-1.515625 0-1.515625-1.59375-1.515625-2.09375 0-.625 0-2.03125 1.40625-2.03125.375 0 .5625.03125.703125.0625zm0 0"/></symbol><symbol id="f" overflow="visible"><path d="m5.515625-4.09375c.078125-.15625.109375-.234375.8125-.234375v-.515625c-.265625.015625-.59375.03125-.859375.03125-.28125 0-.765625-.015625-1-.03125v.515625c.03125 0 .515625 0 .515625.125 0 .015625-.046875.125-.0625.140625l-1.25 2.671875-1.375-2.9375h.578125v-.515625c-.359375.015625-1.34375.03125-1.34375.03125-.3125 0-.796875-.015625-1.25-.03125v.515625h.703125l2.03125 4.328125-.25.53125c-.234375.515625-.578125 1.25-1.359375 1.25-.15625 0-.171875 0-.265625-.03125.109375-.046875.359375-.203125.359375-.578125 0-.359375-.265625-.625-.640625-.625-.296875 0-.625.203125-.625.625 0 .5625.515625 1.015625 1.171875 1.015625.84375 0 1.46875-.6875 1.765625-1.296875zm0 0"/></symbol><symbol id="g" overflow="visible"><path d="m3.15625-6.96875h1.234375v-.515625c-.4375.03125-1.515625.03125-2.015625.03125s-1.5625 0-2.015625-.03125v.515625h1.25v6.453125h-1.25v.515625c.453125-.03125 1.515625-.03125 2.015625-.03125s1.578125 0 2.015625.03125v-.515625h-1.234375zm0 0"/></symbol><symbol id="h" overflow="visible"><path d="m1.125-4.328125v2.984375c0 1.171875.953125 1.40625 1.71875 1.40625.828125 0 1.328125-.625 1.328125-1.421875v-.578125h-.515625v.5625c0 .75-.359375 1-.65625 1-.640625 0-.640625-.6875-.640625-.9375v-3.015625h1.59375v-.515625h-1.59375v-2.078125h-.5c-.015625 1.09375-.546875 2.171875-1.625 2.203125v.390625zm0 0"/></symbol><symbol id="i" overflow="visible"><path d="m5.03125-2.375c.25 0 .359375 0 .359375-.296875 0-.34375-.0625-1.140625-.609375-1.6875-.40625-.390625-.984375-.578125-1.734375-.578125-1.75 0-2.703125 1.125-2.703125 2.484375 0 1.453125 1.09375 2.515625 2.859375 2.515625 1.71875 0 2.1875-1.15625 2.1875-1.34375s-.203125-.1875-.265625-.1875c-.1875 0-.203125.046875-.265625.21875-.234375.53125-.859375.875-1.5625.875-1.546875 0-1.546875-1.453125-1.546875-2zm-3.28125-.359375c.015625-.421875.03125-.890625.25-1.25.296875-.4375.71875-.5625 1.046875-.5625 1.265625 0 1.296875 1.421875 1.3125 1.8125zm0 0"/></symbol><symbol id="j" overflow="visible"><path d="m2.21875-3.671875v-1.234375l-1.8125.078125v.515625c.671875 0 .75 0 .75.4375v3.359375h-.75v.515625c.375-.015625.875-.03125 1.375-.03125.40625 0 1.109375 0 1.5.03125v-.515625h-.953125v-1.90625c0-.765625.28125-2.09375 1.375-2.09375-.015625.015625-.21875.1875-.21875.5 0 .453125.359375.671875.671875.671875s.671875-.234375.671875-.671875c0-.578125-.59375-.890625-1.15625-.890625-.765625 0-1.203125.546875-1.453125 1.234375zm0 0"/></symbol><symbol id="k" overflow="visible"><path d="m4.078125-.84375c0 .34375 0 .84375 1.140625.84375h.515625c.21875 0 .34375 0 .34375-.265625 0-.25-.140625-.25-.28125-.25-.65625-.015625-.65625-.15625-.65625-.40625v-2.34375c0-.96875-.78125-1.671875-2.40625-1.671875-.625 0-1.953125.046875-1.953125 1 0 .484375.390625.6875.6875.6875.328125 0 .6875-.234375.6875-.6875 0-.328125-.21875-.515625-.25-.53125.3125-.0625.65625-.078125.78125-.078125.828125 0 1.203125.453125 1.203125 1.28125v.375c-.765625.03125-3.546875.125-3.546875 1.71875 0 1.046875 1.359375 1.234375 2.109375 1.234375.875 0 1.390625-.4375 1.625-.90625zm-.1875-1.703125v1.03125c0 1.046875-1 1.1875-1.265625 1.1875-.5625 0-1-.375-1-.859375 0-1.171875 1.71875-1.328125 2.265625-1.359375zm0 0"/></symbol><symbol id="l" overflow="visible"><path d="m1.25-3.875v3.359375h-.765625v.515625c.3125-.015625.96875-.03125 1.375-.03125.4375 0 1.078125.015625 1.375.03125v-.515625h-.75v-2.28125c0-1.1875.9375-1.71875 1.625-1.71875.375 0 .609375.234375.609375 1.0625v2.9375h-.765625v.515625c.3125-.015625.96875-.03125 1.375-.03125.4375 0 1.078125.015625 1.375.03125v-.515625h-.75v-2.828125c0-1.140625-.59375-1.5625-1.671875-1.5625-1.046875 0-1.625.625-1.921875 1.171875v-1.171875l-1.875.078125v.515625c.6875 0 .765625 0 .765625.4375zm0 0"/></symbol><symbol id="m" overflow="visible"><path d="m8.078125-6.734375c.0625-.140625.09375-.234375.890625-.234375h.21875v-.515625c-.421875.015625-.9375.03125-1.234375.03125-.4375 0-1 0-1.4375-.03125v.515625c.109375 0 .96875 0 .96875.125 0 .046875-.03125.109375-.046875.140625l-2.203125 4.953125-2.328125-5.21875h1.03125v-.515625c-.421875.03125-1.46875.03125-1.9375.03125-.421875 0-1.328125 0-1.71875-.03125v.515625h1l3.015625 6.765625c.09375.203125.125.296875.4375.296875.171875 0 .3125 0 .4375-.265625zm0 0"/></symbol><symbol id="n" overflow="visible"><path d="m4.78125-.78125v.84375l1.921875-.0625v-.515625c-.671875 0-.75 0-.75-.421875v-3.96875l-2 .078125v.515625c.6875 0 .765625 0 .765625.4375v2.078125c0 .890625-.5625 1.46875-1.359375 1.46875-.84375 0-.875-.265625-.875-.859375v-3.71875l-2 .078125v.515625c.6875 0 .765625 0 .765625.4375v2.53125c0 1.171875.875 1.40625 1.953125 1.40625.28125 0 1.078125 0 1.578125-.84375zm0 0"/></symbol><symbol id="o" overflow="visible"><path d="m3.8125-4.234375-1.40625-.328125c-.671875-.171875-1.09375-.765625-1.09375-1.390625 0-.765625.578125-1.4375 1.4375-1.4375 1.8125 0 2.0625 1.796875 2.125 2.28125.015625.078125.015625.140625.125.140625.140625 0 .140625-.0625.140625-.265625v-2.1875c0-.1875 0-.265625-.109375-.265625-.078125 0-.09375.015625-.171875.140625l-.375.625c-.328125-.3125-.78125-.765625-1.75-.765625-1.203125 0-2.125.953125-2.125 2.109375 0 .90625.578125 1.703125 1.4375 2 .109375.046875.671875.171875 1.4375.359375.296875.078125.609375.15625.921875.5625.234375.28125.34375.640625.34375 1 0 .765625-.546875 1.5625-1.46875 1.5625-.3125 0-1.140625-.0625-1.71875-.59375-.640625-.59375-.671875-1.28125-.671875-1.671875-.015625-.109375-.109375-.109375-.140625-.109375-.140625 0-.140625.0625-.140625.265625v2.1875c0 .171875 0 .25.125.25.078125 0 .078125-.015625.15625-.140625 0 0 .03125-.046875.390625-.625.34375.375 1.046875.765625 2.015625.765625 1.265625 0 2.140625-1.0625 2.140625-2.265625 0-1.09375-.71875-1.984375-1.625-2.203125zm0 0"/></symbol><symbol id="p" overflow="visible"><path d="m1.890625-4.359375h1.5625v-.34375h-1.5625v-2h-.28125c0 .890625-.328125 2.0625-1.40625 2.09375v.25h.9375v3c0 1.34375 1.015625 1.484375 1.40625 1.484375.765625 0 1.078125-.78125 1.078125-1.484375v-.609375h-.28125v.59375c0 .8125-.328125 1.21875-.71875 1.21875-.734375 0-.734375-.984375-.734375-1.171875zm0 0"/></symbol><symbol id="q" overflow="visible"><path d="m3.625-.828125c.046875.4375.34375.890625.859375.890625.234375 0 .890625-.15625.890625-1.03125v-.609375h-.265625v.609375c0 .625-.28125.703125-.390625.703125-.359375 0-.40625-.5-.40625-.546875v-2.1875c0-.453125 0-.875-.390625-1.28125-.4375-.4375-.984375-.609375-1.5-.609375-.890625 0-1.640625.515625-1.640625 1.234375 0 .328125.21875.515625.5.515625.296875 0 .5-.21875.5-.5 0-.140625-.0625-.5-.5625-.5.296875-.390625.828125-.5 1.1875-.5.53125 0 1.15625.421875 1.15625 1.390625v.40625c-.5625.03125-1.328125.0625-2.015625.390625-.8125.375-1.09375.9375-1.09375 1.421875 0 .875 1.0625 1.15625 1.75 1.15625.71875 0 1.21875-.4375 1.421875-.953125zm-.0625-1.796875v1.09375c0 1.046875-.796875 1.40625-1.28125 1.40625-.53125 0-.984375-.375-.984375-.921875 0-.59375.453125-1.5 2.265625-1.578125zm0 0"/></symbol><symbol id="r" overflow="visible"><path d="m1.828125-3.625v-1.203125l-1.515625.125v.34375c.75 0 .84375.078125.84375.609375v2.921875c0 .484375-.125.484375-.84375.484375v.34375c.421875-.015625.9375-.03125 1.234375-.03125.4375 0 .953125 0 1.390625.03125v-.34375h-.234375c-.8125 0-.828125-.109375-.828125-.5v-1.6875c0-1.078125.453125-2.046875 1.28125-2.046875.078125 0 .109375 0 .125.015625-.03125 0-.25.140625-.25.421875 0 .296875.234375.46875.46875.46875.203125 0 .46875-.140625.46875-.484375s-.34375-.671875-.8125-.671875c-.796875 0-1.1875.734375-1.328125 1.203125zm0 0"/></symbol><symbol id="s" overflow="visible"><path d="m2.265625-2.109375c.25.03125 1.140625.21875 1.140625 1 0 .546875-.390625.984375-1.234375.984375-.921875 0-1.3125-.609375-1.515625-1.546875-.03125-.140625-.046875-.1875-.15625-.1875-.140625 0-.140625.078125-.140625.28125v1.4375c0 .1875 0 .265625.125.265625.046875 0 .0625-.015625.265625-.21875.03125-.03125.03125-.046875.21875-.25.484375.453125.96875.46875 1.203125.46875 1.25 0 1.75-.734375 1.75-1.515625 0-.578125-.328125-.90625-.453125-1.046875-.359375-.34375-.78125-.4375-1.25-.515625-.609375-.125-1.328125-.265625-1.328125-.890625 0-.390625.28125-.828125 1.21875-.828125 1.1875 0 1.25.96875 1.265625 1.3125.015625.09375.109375.09375.140625.09375.140625 0 .140625-.046875.140625-.25v-1.109375c0-.1875 0-.265625-.125-.265625-.046875 0-.078125 0-.21875.140625-.03125.03125-.140625.140625-.1875.171875-.40625-.3125-.859375-.3125-1.015625-.3125-1.328125 0-1.75.734375-1.75 1.34375 0 .390625.171875.6875.46875.921875.34375.296875.65625.359375 1.4375.515625zm0 0"/></symbol><symbol id="t" overflow="visible"><path d="m6.75-3.671875c.203125-.53125.53125-.6875.921875-.6875v-.34375c-.25.03125-.5625.03125-.796875.03125-.328125 0-.8125-.015625-1.015625-.03125v.34375c.390625 0 .625.203125.625.515625 0 .0625 0 .09375-.046875.234375l-1 2.796875-1.078125-3.046875c-.046875-.125-.046875-.15625-.046875-.203125 0-.296875.421875-.296875.640625-.296875v-.34375c-.3125.015625-.875.03125-1.140625.03125-.328125 0-.640625 0-.96875-.03125v.34375c.40625 0 .578125.015625.6875.15625.0625.0625.171875.390625.25.609375l-.9375 2.640625-1.03125-2.921875c-.0625-.125-.0625-.15625-.0625-.1875 0-.296875.4375-.296875.65625-.296875v-.34375c-.328125.015625-.9375.03125-1.203125.03125-.03125 0-.609375 0-1-.03125v.34375c.53125 0 .671875.03125.796875.375l1.375 3.859375c.0625.15625.09375.25.234375.25s.15625-.078125.21875-.21875l1.09375-3.09375 1.109375 3.09375c.046875.125.078125.21875.21875.21875.15625 0 .1875-.109375.21875-.21875zm0 0"/></symbol><symbol id="u" overflow="visible"><path d="m1.9375-4.828125-1.53125.125v.34375c.703125 0 .796875.0625.796875.59375v2.9375c0 .484375-.109375.484375-.84375.484375v.34375c.34375-.015625.9375-.03125 1.203125-.03125.375 0 .765625.015625 1.125.03125v-.34375c-.71875 0-.75-.046875-.75-.46875zm.03125-1.890625c0-.34375-.265625-.578125-.578125-.578125-.328125 0-.578125.296875-.578125.578125 0 .296875.25.578125.578125.578125.3125 0 .578125-.234375.578125-.578125zm0 0"/></symbol><symbol id="v" overflow="visible"><path d="m1.203125-.828125c0 .484375-.125.484375-.859375.484375v.34375c.390625-.015625.9375-.03125 1.234375-.03125.28125 0 .859375.015625 1.21875.03125v-.34375c-.71875 0-.84375 0-.84375-.484375v-2c0-1.140625.765625-1.75 1.46875-1.75.6875 0 .8125.59375.8125 1.203125v2.546875c0 .484375-.125.484375-.859375.484375v.34375c.390625-.015625.9375-.03125 1.234375-.03125.28125 0 .859375.015625 1.21875.03125v-.34375c-.5625 0-.828125 0-.84375-.328125v-2.078125c0-.9375 0-1.28125-.34375-1.671875-.140625-.1875-.5-.40625-1.140625-.40625-.921875 0-1.390625.65625-1.578125 1.078125v-3.8125l-1.578125.109375v.34375c.765625 0 .859375.078125.859375.609375zm0 0"/></symbol><symbol id="w" overflow="visible"><path d="m1.203125-3.75v2.921875c0 .484375-.125.484375-.859375.484375v.34375c.390625-.015625.9375-.03125 1.234375-.03125.28125 0 .859375.015625 1.21875.03125v-.34375c-.71875 0-.84375 0-.84375-.484375v-2c0-1.140625.765625-1.75 1.46875-1.75.6875 0 .8125.59375.8125 1.203125v2.546875c0 .484375-.125.484375-.859375.484375v.34375c.390625-.015625.9375-.03125 1.234375-.03125.28125 0 .859375.015625 1.21875.03125v-.34375c-.5625 0-.828125 0-.84375-.328125v-2.078125c0-.9375 0-1.28125-.34375-1.671875-.140625-.1875-.5-.40625-1.140625-.40625-.796875 0-1.3125.46875-1.609375 1.15625v-1.15625l-1.546875.125v.34375c.765625 0 .859375.078125.859375.609375zm0 0"/></symbol><symbol id="x" overflow="visible"><path d="m4.140625-.59375v.71875l1.609375-.125v-.34375c-.765625 0-.859375-.078125-.859375-.609375v-6.609375l-1.5625.109375v.34375c.765625 0 .84375.078125.84375.609375v2.359375c-.3125-.390625-.78125-.6875-1.375-.6875-1.28125 0-2.421875 1.078125-2.421875 2.484375 0 1.390625 1.0625 2.46875 2.3125 2.46875.6875 0 1.1875-.375 1.453125-.71875zm0-2.921875v2.234375c0 .1875 0 .21875-.109375.390625-.328125.53125-.828125.765625-1.296875.765625-.484375 0-.875-.28125-1.140625-.6875-.28125-.453125-.3125-1.078125-.3125-1.515625 0-.40625.015625-1.0625.328125-1.546875.234375-.34375.640625-.703125 1.234375-.703125.390625 0 .84375.15625 1.1875.65625.109375.1875.109375.203125.109375.40625zm0 0"/></symbol><symbol id="y" overflow="visible"><path d="m5.140625-2.328125c0-1.40625-1.09375-2.5625-2.421875-2.5625-1.359375 0-2.40625 1.1875-2.40625 2.5625 0 1.40625 1.125 2.453125 2.40625 2.453125 1.3125 0 2.421875-1.078125 2.421875-2.453125zm-2.421875 2.171875c-.46875 0-.9375-.21875-1.234375-.734375-.28125-.46875-.28125-1.140625-.28125-1.53125 0-.421875 0-1.015625.265625-1.5.296875-.5.8125-.71875 1.25-.71875.484375 0 .953125.234375 1.234375.703125s.28125 1.109375.28125 1.515625c0 .390625 0 .984375-.25 1.46875-.234375.484375-.71875.796875-1.265625.796875zm0 0"/></symbol><symbol id="z" overflow="visible"><path d="m1.203125-3.75v2.921875c0 .484375-.125.484375-.859375.484375v.34375c.390625-.015625.9375-.03125 1.234375-.03125.28125 0 .859375.015625 1.21875.03125v-.34375c-.71875 0-.84375 0-.84375-.484375v-2c0-1.140625.765625-1.75 1.46875-1.75.6875 0 .8125.59375.8125 1.203125v2.546875c0 .484375-.125.484375-.859375.484375v.34375c.390625-.015625.9375-.03125 1.234375-.03125.28125 0 .859375.015625 1.21875.03125v-.34375c-.71875 0-.84375 0-.84375-.484375v-2c0-1.140625.78125-1.75 1.46875-1.75s.8125.59375.8125 1.203125v2.546875c0 .484375-.125.484375-.859375.484375v.34375c.390625-.015625.9375-.03125 1.234375-.03125.28125 0 .859375.015625 1.21875.03125v-.34375c-.5625 0-.828125 0-.84375-.328125v-2.078125c0-.9375 0-1.28125-.34375-1.671875-.140625-.1875-.5-.40625-1.140625-.40625-.921875 0-1.390625.65625-1.578125 1.078125-.15625-.953125-.96875-1.078125-1.453125-1.078125-.796875 0-1.3125.46875-1.609375 1.15625v-1.15625l-1.546875.125v.34375c.765625 0 .859375.078125.859375.609375zm0 0"/></symbol><symbol id="A" overflow="visible"><path d="m1.875-4.09375v-.734375l-1.5625.125v.34375c.765625 0 .84375.0625.84375.546875v5.09375c0 .5-.125.5-.84375.5v.328125c.359375 0 .9375-.03125 1.21875-.03125.296875 0 .84375.03125 1.234375.03125v-.328125c-.734375 0-.859375 0-.859375-.5v-1.921875c.0625.171875.515625.765625 1.34375.765625 1.296875 0 2.4375-1.078125 2.4375-2.484375 0-1.375-1.0625-2.46875-2.28125-2.46875-.859375 0-1.3125.484375-1.53125.734375zm.03125 2.84375v-2.421875c.3125-.5625.859375-.875 1.40625-.875.796875 0 1.46875.953125 1.46875 2.1875 0 1.328125-.765625 2.234375-1.578125 2.234375-.4375 0-.84375-.21875-1.140625-.65625-.15625-.234375-.15625-.25-.15625-.46875zm0 0"/></symbol><symbol id="B" overflow="visible"><path d="m1.9375-7.5625-1.578125.109375v.34375c.765625 0 .84375.078125.84375.609375v5.671875c0 .484375-.109375.484375-.84375.484375v.34375c.359375-.015625.9375-.03125 1.21875-.03125.265625 0 .796875.015625 1.203125.03125v-.34375c-.734375 0-.84375 0-.84375-.484375zm0 0"/></symbol><symbol id="C" overflow="visible"><path d="m1.28125-2.375c0-1.78125.890625-2.234375 1.46875-2.234375.09375 0 .78125 0 1.171875.40625-.453125.03125-.515625.359375-.515625.5 0 .28125.1875.5.5.5.28125 0 .5-.1875.5-.515625 0-.734375-.828125-1.171875-1.671875-1.171875-1.359375 0-2.359375 1.1875-2.359375 2.53125 0 1.40625 1.078125 2.484375 2.34375 2.484375 1.453125 0 1.8125-1.3125 1.8125-1.421875s-.109375-.109375-.140625-.109375c-.109375 0-.125.046875-.140625.109375-.328125 1.015625-1.03125 1.140625-1.4375 1.140625-.578125 0-1.53125-.46875-1.53125-2.21875zm0 0"/></symbol><symbol id="D" overflow="visible"><path d="m4.53125-3.671875c.28125-.6875.828125-.6875 1.015625-.6875v-.34375c-.25.03125-.578125.03125-.828125.03125-.1875 0-.703125-.015625-.9375-.03125v.34375c.328125 0 .5.1875.5.46875 0 .109375 0 .125-.0625.265625l-1.09375 2.671875-1.21875-2.921875c-.046875-.109375-.0625-.15625-.0625-.203125 0-.28125.40625-.28125.609375-.28125v-.34375c-.28125.015625-1 .03125-1.1875.03125-.296875 0-.734375 0-1.0625-.03125v.34375c.53125 0 .734375 0 .890625.375l1.625 3.984375c-.046875.140625-.203125.5-.265625.640625-.234375.609375-.546875 1.359375-1.25 1.359375-.046875 0-.296875 0-.5-.203125.328125-.046875.421875-.28125.421875-.453125 0-.28125-.203125-.453125-.453125-.453125-.21875 0-.46875.140625-.46875.46875 0 .484375.46875.875 1 .875.6875 0 1.140625-.625 1.40625-1.234375zm0 0"/></symbol><symbol id="E" overflow="visible"><path d="m4.53125-3.625c.109375-.25.296875-.734375 1.015625-.734375v-.34375c-.25.03125-.578125.03125-.828125.03125-.265625 0-.765625-.015625-.9375-.03125v.34375c.390625 0 .515625.265625.515625.46875 0 .09375-.015625.140625-.0625.265625l-1.109375 2.78125-1.234375-3.046875c-.0625-.140625-.0625-.171875-.0625-.1875 0-.28125.421875-.28125.625-.28125v-.34375c-.328125.015625-.9375.03125-1.1875.03125-.296875 0-.734375 0-1.0625-.03125v.34375c.6875 0 .734375.0625.875.40625l1.578125 3.859375c.0625.15625.078125.21875.21875.21875s.1875-.109375.234375-.21875zm0 0"/></symbol><symbol id="F" overflow="visible"><path d="m4.265625-.859375v.984375l1.5625-.125v-.34375c-.75 0-.84375-.078125-.84375-.609375v-3.875l-1.609375.125v.34375c.765625 0 .859375.078125.859375.609375v1.9375c0 .953125-.53125 1.6875-1.328125 1.6875-.90625 0-.953125-.5-.953125-1.078125v-3.625l-1.609375.125v.34375c.859375 0 .859375.03125.859375 1v1.640625c0 .84375 0 1.84375 1.65625 1.84375.609375 0 1.09375-.3125 1.40625-.984375zm0 0"/></symbol><symbol id="G" overflow="visible"><path d="m1.21875-2.75c.0625-1.625.984375-1.890625 1.359375-1.890625 1.125 0 1.234375 1.46875 1.234375 1.890625zm-.015625.234375h3.046875c.25 0 .28125 0 .28125-.234375 0-1.078125-.59375-2.140625-1.953125-2.140625-1.265625 0-2.265625 1.125-2.265625 2.484375 0 1.46875 1.140625 2.53125 2.390625 2.53125 1.328125 0 1.828125-1.21875 1.828125-1.421875 0-.109375-.09375-.125-.140625-.125-.109375 0-.125.0625-.140625.140625-.390625 1.125-1.375 1.125-1.484375 1.125-.546875 0-.984375-.328125-1.234375-.734375-.328125-.515625-.328125-1.234375-.328125-1.625zm0 0"/></symbol><symbol id="H" overflow="visible"><path d="m1.90625-4.703125v-1.265625c0-.953125.53125-1.484375 1-1.484375.03125 0 .203125 0 .359375.078125-.125.046875-.328125.1875-.328125.453125s.1875.46875.46875.46875c.328125 0 .484375-.203125.484375-.46875 0-.40625-.40625-.765625-.984375-.765625-.75 0-1.6875.578125-1.6875 1.734375v1.25h-.859375v.34375h.859375v3.53125c0 .484375-.125.484375-.84375.484375v.34375c.421875-.015625.9375-.03125 1.234375-.03125.4375 0 .953125 0 1.390625.03125v-.34375h-.234375c-.796875 0-.828125-.109375-.828125-.5v-3.515625h1.25v-.34375zm0 0"/></symbol><symbol id="I" overflow="visible"><path d="m4.34375-7.59375c-.0625-.140625-.078125-.21875-.25-.21875s-.21875.0625-.265625.21875l-2.25 6.53125c-.203125.546875-.640625.71875-1.234375.71875v.34375c.25-.015625.71875-.03125 1.125-.03125.328125 0 .890625.015625 1.25.03125v-.34375c-.546875 0-.828125-.265625-.828125-.546875 0-.03125.015625-.140625.03125-.171875l.5-1.421875h2.6875l.578125 1.671875c.015625.03125.03125.109375.03125.140625 0 .328125-.609375.328125-.890625.328125v.34375c.390625-.03125 1.15625-.03125 1.5625-.03125.46875 0 .96875.015625 1.421875.03125v-.34375h-.1875c-.65625 0-.8125-.078125-.921875-.4375zm-.578125 1.21875 1.234375 3.546875h-2.453125zm0 0"/></symbol><symbol id="J" overflow="visible"><path d="m2.421875-1.875c-.953125 0-.953125-1.09375-.953125-1.34375 0-.296875.015625-.640625.171875-.921875.09375-.125.34375-.421875.78125-.421875.953125 0 .953125 1.078125.953125 1.328125 0 .296875-.015625.65625-.171875.921875-.09375.125-.34375.4375-.78125.4375zm-1.265625.421875c0-.046875 0-.296875.1875-.515625.421875.3125.875.34375 1.078125.34375 1.015625 0 1.765625-.75 1.765625-1.59375 0-.40625-.171875-.8125-.453125-1.0625.40625-.359375.796875-.421875.984375-.421875.03125 0 .078125 0 .109375.015625-.109375.046875-.171875.15625-.171875.296875 0 .1875.140625.3125.3125.3125.109375 0 .328125-.078125.328125-.328125 0-.1875-.140625-.53125-.5625-.53125-.21875 0-.703125.0625-1.15625.515625-.453125-.359375-.921875-.40625-1.15625-.40625-1.015625 0-1.765625.765625-1.765625 1.59375 0 .484375.234375.90625.515625 1.125-.140625.171875-.34375.53125-.34375.90625 0 .34375.140625.75.484375.96875-.65625.1875-1 .65625-1 1.09375 0 .78125 1.078125 1.390625 2.40625 1.390625 1.28125 0 2.421875-.5625 2.421875-1.40625 0-.390625-.15625-.9375-.71875-1.25-.578125-.296875-1.203125-.296875-1.875-.296875-.265625 0-.734375 0-.8125-.015625-.34375-.046875-.578125-.375-.578125-.734375zm1.5625 3.453125c-1.09375 0-1.84375-.5625-1.84375-1.140625 0-.5.40625-.90625.890625-.9375h.640625c.9375 0 2.15625 0 2.15625.9375 0 .59375-.765625 1.140625-1.84375 1.140625zm0 0"/></symbol><symbol id="K" overflow="visible"><path d="m3.125-2.5625c.328125-.421875.75-.953125 1.015625-1.234375.328125-.390625.78125-.5625 1.296875-.5625v-.34375c-.296875.03125-.609375.03125-.90625.03125-.328125 0-.90625-.015625-1.046875-.03125v.34375c.234375.015625.328125.15625.328125.328125 0 .1875-.109375.328125-.171875.390625l-.671875.84375-.859375-1.09375c-.09375-.109375-.09375-.140625-.09375-.203125 0-.15625.171875-.265625.390625-.265625v-.34375c-.296875.015625-1.015625.03125-1.1875.03125-.21875 0-.734375 0-1.03125-.03125v.34375c.765625 0 .765625 0 1.28125.65625l1.078125 1.40625-1.015625 1.296875c-.53125.640625-1.171875.65625-1.40625.65625v.34375c.296875-.015625.625-.03125.90625-.03125.328125 0 .78125.015625 1.046875.03125v-.34375c-.25-.03125-.328125-.171875-.328125-.328125 0-.25.328125-.609375.984375-1.390625l.828125 1.09375c.09375.125.234375.296875.234375.359375 0 .09375-.09375.265625-.390625.265625v.34375c.328125-.015625.9375-.03125 1.171875-.03125.296875 0 .71875.015625 1.046875.03125v-.34375c-.59375 0-.78125-.015625-1.03125-.328125zm0 0"/></symbol><symbol id="L" overflow="visible"><path d="m6.46875-.6875c.140625.234375.578125.671875.703125.671875.09375 0 .09375-.078125.09375-.25v-1.890625c0-.421875.046875-.484375.75-.484375v-.34375c-.40625.015625-1 .046875-1.328125.046875-.4375 0-1.359375 0-1.765625-.046875v.34375h.359375c.984375 0 1.015625.125 1.015625.53125v.6875c0 1.21875-1.390625 1.328125-1.6875 1.328125-.71875 0-2.875-.390625-2.875-3.640625s2.140625-3.609375 2.796875-3.609375c1.171875 0 2.171875.96875 2.390625 2.578125.015625.15625.015625.1875.171875.1875.171875 0 .171875-.03125.171875-.265625v-2.578125c0-.1875 0-.265625-.125-.265625-.046875 0-.078125 0-.171875.125l-.546875.8125c-.34375-.34375-.9375-.9375-2.015625-.9375-2.03125 0-3.796875 1.71875-3.796875 3.953125s1.75 3.96875 3.8125 3.96875c.796875 0 1.671875-.28125 2.046875-.921875zm0 0"/></symbol><symbol id="M" overflow="visible"><path d="m.609375-3.734375c0 2.265625 1.765625 3.96875 3.796875 3.96875 1.78125 0 2.84375-1.515625 2.84375-2.78125 0-.109375 0-.171875-.140625-.171875-.125 0-.125.0625-.125.171875-.09375 1.546875-1.265625 2.453125-2.453125 2.453125-.65625 0-2.796875-.375-2.796875-3.625 0-3.265625 2.125-3.625 2.796875-3.625 1.1875 0 2.15625.984375 2.375 2.578125.015625.15625.015625.1875.171875.1875.171875 0 .171875-.03125.171875-.265625v-2.578125c0-.1875 0-.265625-.125-.265625-.03125 0-.078125 0-.171875.125l-.546875.8125c-.390625-.390625-.953125-.9375-2-.9375-2.046875 0-3.796875 1.734375-3.796875 3.953125zm0 0"/></symbol><symbol id="N" overflow="visible"><path d="m2.625-7.203125c-.09375-.25-.125-.25-.375-.25h-1.84375v.34375h.265625c.828125 0 .859375.125.859375.515625v5.453125c0 .296875 0 .796875-1.125.796875v.34375c.375-.015625.90625-.03125 1.265625-.03125.375 0 .90625.015625 1.28125.03125v-.34375c-1.125 0-1.125-.5-1.125-.796875v-5.890625h.015625l2.625 6.796875c.0625.140625.109375.234375.21875.234375.125 0 .15625-.09375.203125-.203125l2.671875-6.90625h.015625v6.265625c0 .390625-.015625.5-.859375.5h-.265625v.34375c.40625-.03125 1.15625-.03125 1.578125-.03125s1.15625 0 1.5625.03125v-.34375h-.265625c-.84375 0-.859375-.109375-.859375-.5v-5.75c0-.390625.015625-.515625.859375-.515625h.265625v-.34375h-1.84375c-.296875 0-.296875.015625-.359375.21875l-2.390625 6.140625zm0 0"/></symbol><symbol id="O" overflow="visible"><path d="m2.4375-3.84375v-2.828125c0-.25 0-.390625.25-.421875.109375-.015625.421875-.015625.640625-.015625.984375 0 2.203125.046875 2.203125 1.625 0 .75-.265625 1.640625-1.875 1.640625zm2.3125.140625c1.046875-.265625 1.90625-.9375 1.90625-1.78125 0-1.046875-1.25-1.96875-2.84375-1.96875h-3.4375v.34375h.265625c.84375 0 .859375.125.859375.515625v5.75c0 .390625-.015625.5-.859375.5h-.265625v.34375c.40625-.03125 1.171875-.03125 1.59375-.03125.4375 0 1.203125 0 1.59375.03125v-.34375h-.265625c-.828125 0-.859375-.109375-.859375-.5v-2.765625h1.265625c.171875 0 .625 0 1.015625.375.40625.390625.40625.71875.40625 1.453125 0 .71875 0 1.15625.453125 1.5625.4375.390625 1.046875.453125 1.375.453125.84375 0 1.03125-.890625 1.03125-1.1875 0-.078125 0-.1875-.140625-.1875-.125 0-.125.09375-.140625.171875-.0625.765625-.4375.96875-.71875.96875-.53125 0-.609375-.5625-.765625-1.578125l-.140625-.859375c-.203125-.703125-.734375-1.0625-1.328125-1.265625zm0 0"/></symbol><symbol id="P" overflow="visible"><path d="m4.140625-.671875v1.953125c0 .5-.109375.5-.84375.5v.328125c.375 0 .9375-.03125 1.21875-.03125.296875 0 .84375.03125 1.234375.03125v-.328125c-.734375 0-.859375 0-.859375-.5v-6.109375h-.234375l-.40625 1c-.15625-.3125-.59375-1-1.46875-1-1.265625 0-2.40625 1.0625-2.40625 2.484375 0 1.359375 1.046875 2.46875 2.3125 2.46875.765625 0 1.21875-.46875 1.453125-.796875zm.03125-2.34375v1.53125c0 .34375-.1875.65625-.4375.921875-.140625.140625-.484375.4375-1 .4375-.796875 0-1.453125-.96875-1.453125-2.21875 0-1.296875.765625-2.203125 1.5625-2.203125.875 0 1.328125.953125 1.328125 1.53125zm0 0"/></symbol><symbol id="Q" overflow="visible"><path d="m6.34375-7.421875h-5.984375v.34375h.265625c.84375 0 .859375.125.859375.515625v5.71875c0 .390625-.015625.5-.859375.5h-.265625v.34375c.375-.03125 1.234375-.03125 1.65625-.03125.453125 0 1.4375 0 1.828125.03125v-.34375h-.359375c-1.03125 0-1.03125-.140625-1.03125-.515625v-2.6875h.9375c1.046875 0 1.15625.34375 1.15625 1.28125h.28125v-2.890625h-.28125c0 .90625-.109375 1.28125-1.15625 1.28125h-.9375v-2.765625c0-.359375.015625-.4375.53125-.4375h1.3125c1.640625 0 1.90625.609375 2.078125 2.109375h.28125zm0 0"/></symbol><path d="m-.000625-.00075h366.183594" fill="none" stroke="#000" stroke-miterlimit="10" stroke-width=".398" transform="matrix(1 0 0 -1 .735 1.093)"/><path d="m-.000625.00115625v13.54687475" fill="none" stroke="#000" stroke-miterlimit="10" stroke-width=".398" transform="matrix(1 0 0 -1 .735 14.841)"/><use x="47.326" xlink:href="#a" y="10.776"/><g><use x="55.552552" xlink:href="#b" y="10.776"/><use x="61.825285" xlink:href="#c" y="10.776"/><use x="65.309651" xlink:href="#d" y="10.776"/><use x="68.794018" xlink:href="#e" y="10.776"/><use x="74.369659" xlink:href="#f" y="10.776"/></g><g><use x="85.179486" xlink:href="#g" y="10.776"/><use x="89.936945" xlink:href="#h" y="10.776"/><use x="94.815494" xlink:href="#i" y="10.776"/><use x="100.565681" xlink:href="#j" y="10.776"/><use x="105.73223" xlink:href="#k" y="10.776"/><use x="111.830417" xlink:href="#h" y="10.776"/><use x="116.708967" xlink:href="#d" y="10.776"/><use x="120.193333" xlink:href="#b" y="10.776"/><use x="126.466066" xlink:href="#l" y="10.776"/></g><path d="m.0004375.00115625v13.54687475" fill="none" stroke="#000" stroke-miterlimit="10" stroke-width=".398" transform="matrix(1 0 0 -1 180.023 14.841)"/><use x="231.88" xlink:href="#m" y="10.776"/><g><use x="240.317098" xlink:href="#k" y="10.776"/><use x="246.415285" xlink:href="#c" y="10.776"/><use x="249.899651" xlink:href="#n" y="10.776"/><use x="256.869475" xlink:href="#i" y="10.776"/></g><g><use x="266.808756" xlink:href="#g" y="10.776"/><use x="271.566215" xlink:href="#h" y="10.776"/><use x="276.444764" xlink:href="#i" y="10.776"/><use x="282.194951" xlink:href="#j" y="10.776"/><use x="287.361501" xlink:href="#k" y="10.776"/><use x="293.459688" xlink:href="#h" y="10.776"/><use x="298.338237" xlink:href="#d" y="10.776"/><use x="301.822604" xlink:href="#b" y="10.776"/><use x="308.095336" xlink:href="#l" y="10.776"/></g><g fill="none" stroke="#000" stroke-miterlimit="10" stroke-width=".398"><path d="m-.00003125.00115625v13.54687475" transform="matrix(1 0 0 -1 366.918 14.841)"/><path d="m-.000625.0009375h366.183594" transform="matrix(1 0 0 -1 .735 15.04)"/><path d="m-.000625-.0000625v13.5507815" transform="matrix(1 0 0 -1 .735 28.789)"/></g><g><use x="23.046" xlink:href="#o" y="24.724"/><use x="29.107096" xlink:href="#p" y="24.724"/><use x="33.349645" xlink:href="#q" y="24.724"/><use x="38.804195" xlink:href="#r" y="24.724"/><use x="43.077289" xlink:href="#p" y="24.724"/><use x="47.319838" xlink:href="#s" y="24.724"/></g><g><use x="55.255118" xlink:href="#t" y="24.724"/><use x="63.13367" xlink:href="#u" y="24.724"/><use x="66.164218" xlink:href="#p" y="24.724"/><use x="70.406767" xlink:href="#v" y="24.724"/></g><use x="80.111502" xlink:href="#q" y="24.724"/><g><use x="89.198782" xlink:href="#r" y="24.724"/><use x="93.471877" xlink:href="#q" y="24.724"/><use x="98.926427" xlink:href="#w" y="24.724"/><use x="104.987523" xlink:href="#x" y="24.724"/><use x="111.048619" xlink:href="#y" y="24.724"/><use x="116.503169" xlink:href="#z" y="24.724"/></g><use x="129.226452" xlink:href="#A" y="24.724"/><g><use x="135.593003" xlink:href="#y" y="24.724"/><use x="141.047553" xlink:href="#B" y="24.724"/><use x="144.078101" xlink:href="#u" y="24.724"/><use x="147.108649" xlink:href="#C" y="24.724"/><use x="151.956653" xlink:href="#D" y="24.724"/></g><path d="m.0004375-.0000625v13.5507815" fill="none" stroke="#000" stroke-miterlimit="10" stroke-width=".398" transform="matrix(1 0 0 -1 180.023 28.789)"/><g><use x="186.743" xlink:href="#o" y="24.724"/><use x="192.804096" xlink:href="#p" y="24.724"/><use x="197.046645" xlink:href="#q" y="24.724"/><use x="202.501195" xlink:href="#r" y="24.724"/><use x="206.774289" xlink:href="#p" y="24.724"/><use x="211.016838" xlink:href="#s" y="24.724"/></g><g><use x="218.952118" xlink:href="#t" y="24.724"/><use x="226.83067" xlink:href="#u" y="24.724"/><use x="229.861218" xlink:href="#p" y="24.724"/><use x="234.103767" xlink:href="#v" y="24.724"/></g><use x="243.808502" xlink:href="#q" y="24.724"/><g><use x="252.895782" xlink:href="#r" y="24.724"/><use x="257.168877" xlink:href="#q" y="24.724"/><use x="262.623427" xlink:href="#w" y="24.724"/><use x="268.684523" xlink:href="#x" y="24.724"/><use x="274.745619" xlink:href="#y" y="24.724"/><use x="280.200169" xlink:href="#z" y="24.724"/></g><use x="292.923452" xlink:href="#E" y="24.724"/><g><use x="298.081275" xlink:href="#q" y="24.724"/><use x="303.535825" xlink:href="#B" y="24.724"/><use x="306.566373" xlink:href="#F" y="24.724"/><use x="312.627469" xlink:href="#G" y="24.724"/></g><g><use x="321.108203" xlink:href="#H" y="24.724"/><use x="324.442024" xlink:href="#F" y="24.724"/><use x="330.50312" xlink:href="#w" y="24.724"/><use x="336.564216" xlink:href="#C" y="24.724"/><use x="341.41222" xlink:href="#p" y="24.724"/><use x="345.654769" xlink:href="#u" y="24.724"/><use x="348.685317" xlink:href="#y" y="24.724"/><use x="354.139867" xlink:href="#w" y="24.724"/></g><path d="m-.00003125-.0000625v13.5507815" fill="none" stroke="#000" stroke-miterlimit="10" stroke-width=".398" transform="matrix(1 0 0 -1 366.918 28.789)"/><path d="m-.000625-.00184375v13.55078175" fill="none" stroke="#000" stroke-miterlimit="10" stroke-width=".398" transform="matrix(1 0 0 -1 .735 42.338)"/><g><use x="25.47" xlink:href="#I" y="38.273"/><use x="33.651825" xlink:href="#B" y="38.273"/><use x="36.682373" xlink:href="#J" y="38.273"/><use x="42.136923" xlink:href="#y" y="38.273"/><use x="47.591473" xlink:href="#r" y="38.273"/><use x="51.864567" xlink:href="#u" y="38.273"/><use x="54.895115" xlink:href="#p" y="38.273"/><use x="59.137664" xlink:href="#v" y="38.273"/><use x="65.19876" xlink:href="#z" y="38.273"/></g><g><use x="77.922044" xlink:href="#u" y="38.273"/><use x="80.952592" xlink:href="#s" y="38.273"/></g><g><use x="88.89878" xlink:href="#z" y="38.273"/><use x="97.989333" xlink:href="#y" y="38.273"/><use x="103.443883" xlink:href="#r" y="38.273"/><use x="107.716978" xlink:href="#G" y="38.273"/></g><g><use x="116.197712" xlink:href="#C" y="38.273"/><use x="121.045716" xlink:href="#y" y="38.273"/><use x="126.500266" xlink:href="#z" y="38.273"/><use x="135.590819" xlink:href="#A" y="38.273"/><use x="141.651915" xlink:href="#B" y="38.273"/><use x="144.682463" xlink:href="#G" y="38.273"/><use x="149.530467" xlink:href="#K" y="38.273"/></g><path d="m.0004375-.00184375v13.55078175" fill="none" stroke="#000" stroke-miterlimit="10" stroke-width=".398" transform="matrix(1 0 0 -1 180.023 42.338)"/><g><use x="224.44" xlink:href="#I" y="38.273"/><use x="232.621825" xlink:href="#B" y="38.273"/><use x="235.652373" xlink:href="#J" y="38.273"/><use x="241.106923" xlink:href="#y" y="38.273"/><use x="246.561473" xlink:href="#r" y="38.273"/><use x="250.834567" xlink:href="#u" y="38.273"/><use x="253.865115" xlink:href="#p" y="38.273"/><use x="258.107664" xlink:href="#v" y="38.273"/><use x="264.16876" xlink:href="#z" y="38.273"/></g><g><use x="276.892044" xlink:href="#u" y="38.273"/><use x="279.922592" xlink:href="#s" y="38.273"/></g><g><use x="287.86878" xlink:href="#s" y="38.273"/><use x="292.171329" xlink:href="#u" y="38.273"/><use x="295.201877" xlink:href="#z" y="38.273"/><use x="304.29243" xlink:href="#A" y="38.273"/><use x="310.353526" xlink:href="#B" y="38.273"/><use x="313.384074" xlink:href="#G" y="38.273"/><use x="318.232078" xlink:href="#r" y="38.273"/></g><path d="m-.00003125-.00184375v13.55078175" fill="none" stroke="#000" stroke-miterlimit="10" stroke-width=".398" transform="matrix(1 0 0 -1 366.918 42.338)"/><path d="m-.000625.00028125v13.54687475" fill="none" stroke="#000" stroke-miterlimit="10" stroke-width=".398" transform="matrix(1 0 0 -1 .735 55.887)"/><g><use x="33.644" xlink:href="#L" y="51.822"/><use x="42.204371" xlink:href="#F" y="51.822"/><use x="48.265467" xlink:href="#q" y="51.822"/><use x="53.720017" xlink:href="#r" y="51.822"/><use x="57.993111" xlink:href="#q" y="51.822"/><use x="63.447661" xlink:href="#w" y="51.822"/></g><g><use x="69.203302" xlink:href="#p" y="51.822"/><use x="73.445851" xlink:href="#G" y="51.822"/><use x="78.293855" xlink:href="#G" y="51.822"/><use x="83.141859" xlink:href="#x" y="51.822"/></g><g><use x="92.846595" xlink:href="#p" y="51.822"/><use x="97.089144" xlink:href="#y" y="51.822"/></g><g><use x="106.176424" xlink:href="#C" y="51.822"/><use x="111.024428" xlink:href="#y" y="51.822"/><use x="116.478978" xlink:href="#w" y="51.822"/></g><use x="122.234619" xlink:href="#E" y="51.822"/><g><use x="127.686987" xlink:href="#G" y="51.822"/><use x="132.534991" xlink:href="#r" y="51.822"/><use x="136.808086" xlink:href="#J" y="51.822"/><use x="142.262636" xlink:href="#G" y="51.822"/></g><path d="m.0004375.00028125v13.54687475" fill="none" stroke="#000" stroke-miterlimit="10" stroke-width=".398" transform="matrix(1 0 0 -1 180.023 55.887)"/><g><use x="216.736" xlink:href="#L" y="51.822"/><use x="225.296371" xlink:href="#F" y="51.822"/><use x="231.357467" xlink:href="#q" y="51.822"/><use x="236.812017" xlink:href="#r" y="51.822"/><use x="241.085111" xlink:href="#q" y="51.822"/><use x="246.539661" xlink:href="#w" y="51.822"/></g><g><use x="252.295302" xlink:href="#p" y="51.822"/><use x="256.537851" xlink:href="#G" y="51.822"/><use x="261.385855" xlink:href="#G" y="51.822"/><use x="266.233859" xlink:href="#x" y="51.822"/></g><g><use x="275.927686" xlink:href="#p" y="51.822"/><use x="280.170235" xlink:href="#y" y="51.822"/></g><g><use x="289.268424" xlink:href="#C" y="51.822"/><use x="294.116428" xlink:href="#y" y="51.822"/><use x="299.570978" xlink:href="#w" y="51.822"/></g><use x="305.326619" xlink:href="#E" y="51.822"/><g><use x="310.778987" xlink:href="#G" y="51.822"/><use x="315.626991" xlink:href="#r" y="51.822"/><use x="319.900086" xlink:href="#J" y="51.822"/><use x="325.354636" xlink:href="#G" y="51.822"/></g><path d="m-.00003125.00028125v13.54687475" fill="none" stroke="#000" stroke-miterlimit="10" stroke-width=".398" transform="matrix(1 0 0 -1 366.918 55.887)"/><path d="m-.000625-.0015v13.550781" fill="none" stroke="#000" stroke-miterlimit="10" stroke-width=".398" transform="matrix(1 0 0 -1 .735 69.436)"/><g><use x="41.727" xlink:href="#M" y="65.372"/><use x="49.605552" xlink:href="#v" y="65.372"/><use x="55.666648" xlink:href="#G" y="65.372"/><use x="60.514652" xlink:href="#q" y="65.372"/><use x="65.969202" xlink:href="#A" y="65.372"/></g><g><use x="72.335753" xlink:href="#G" y="65.372"/><use x="77.183757" xlink:href="#r" y="65.372"/></g><g><use x="85.089582" xlink:href="#p" y="65.372"/><use x="89.332131" xlink:href="#y" y="65.372"/></g><use x="98.419411" xlink:href="#C" y="65.372"/><g><use x="103.278324" xlink:href="#y" y="65.372"/><use x="108.732874" xlink:href="#z" y="65.372"/><use x="117.823427" xlink:href="#A" y="65.372"/><use x="123.884523" xlink:href="#F" y="65.372"/></g><g><use x="129.93471" xlink:href="#p" y="65.372"/><use x="134.177259" xlink:href="#G" y="65.372"/></g><path d="m.0004375-.0015v13.550781" fill="none" stroke="#000" stroke-miterlimit="10" stroke-width=".398" transform="matrix(1 0 0 -1 180.023 69.436)"/><g><use x="207.819" xlink:href="#N" y="65.372"/><use x="217.819372" xlink:href="#y" y="65.372"/><use x="223.273922" xlink:href="#r" y="65.372"/><use x="227.547016" xlink:href="#G" y="65.372"/></g><g><use x="236.027751" xlink:href="#G" y="65.372"/><use x="240.875755" xlink:href="#K" y="65.372"/><use x="246.633578" xlink:href="#A" y="65.372"/></g><g><use x="253.000129" xlink:href="#G" y="65.372"/><use x="257.848133" xlink:href="#w" y="65.372"/><use x="263.909229" xlink:href="#s" y="65.372"/><use x="268.211778" xlink:href="#u" y="65.372"/><use x="271.242326" xlink:href="#E" y="65.372"/></g><use x="276.694694" xlink:href="#G" y="65.372"/><g><use x="285.186337" xlink:href="#p" y="65.372"/><use x="289.428886" xlink:href="#y" y="65.372"/></g><g><use x="298.516166" xlink:href="#C" y="65.372"/><use x="303.364171" xlink:href="#y" y="65.372"/><use x="308.818721" xlink:href="#z" y="65.372"/><use x="317.909274" xlink:href="#A" y="65.372"/><use x="323.97037" xlink:href="#F" y="65.372"/><use x="330.031465" xlink:href="#p" y="65.372"/><use x="334.274014" xlink:href="#G" y="65.372"/></g><path d="m-.00003125-.0015v13.550781" fill="none" stroke="#000" stroke-miterlimit="10" stroke-width=".398" transform="matrix(1 0 0 -1 366.918 69.436)"/><path d="m-.000625.001625v13.546875" fill="none" stroke="#000" stroke-miterlimit="10" stroke-width=".398" transform="matrix(1 0 0 -1 .735 82.986)"/><g><use x="6.712" xlink:href="#O" y="78.921"/><use x="14.742189" xlink:href="#G" y="78.921"/><use x="19.590193" xlink:href="#P" y="78.921"/><use x="25.348016" xlink:href="#F" y="78.921"/><use x="31.409111" xlink:href="#u" y="78.921"/><use x="34.439659" xlink:href="#r" y="78.921"/><use x="38.712754" xlink:href="#G" y="78.921"/><use x="43.560758" xlink:href="#s" y="78.921"/></g><g><use x="51.496037" xlink:href="#H" y="78.921"/><use x="54.829858" xlink:href="#G" y="78.921"/><use x="59.677862" xlink:href="#t" y="78.921"/></g><g><use x="71.200054" xlink:href="#u" y="78.921"/><use x="74.230602" xlink:href="#p" y="78.921"/><use x="78.473151" xlink:href="#G" y="78.921"/><use x="83.321155" xlink:href="#r" y="78.921"/><use x="87.594249" xlink:href="#q" y="78.921"/><use x="93.048799" xlink:href="#p" y="78.921"/><use x="97.291348" xlink:href="#u" y="78.921"/><use x="100.321896" xlink:href="#y" y="78.921"/><use x="105.776446" xlink:href="#w" y="78.921"/><use x="111.837542" xlink:href="#s" y="78.921"/></g><g><use x="119.772821" xlink:href="#p" y="78.921"/><use x="124.01537" xlink:href="#y" y="78.921"/></g><g><use x="133.102651" xlink:href="#C" y="78.921"/><use x="137.950655" xlink:href="#y" y="78.921"/><use x="143.405205" xlink:href="#w" y="78.921"/></g><use x="149.171755" xlink:href="#E" y="78.921"/><g><use x="154.624123" xlink:href="#G" y="78.921"/><use x="159.472127" xlink:href="#r" y="78.921"/><use x="163.745222" xlink:href="#J" y="78.921"/><use x="169.199772" xlink:href="#G" y="78.921"/></g><path d="m.0004375.001625v13.546875" fill="none" stroke="#000" stroke-miterlimit="10" stroke-width=".398" transform="matrix(1 0 0 -1 180.023 82.986)"/><g><use x="186.001" xlink:href="#O" y="78.921"/><use x="194.031189" xlink:href="#G" y="78.921"/><use x="198.879193" xlink:href="#P" y="78.921"/><use x="204.637016" xlink:href="#F" y="78.921"/><use x="210.698111" xlink:href="#u" y="78.921"/><use x="213.728659" xlink:href="#r" y="78.921"/><use x="218.001754" xlink:href="#G" y="78.921"/><use x="222.849758" xlink:href="#s" y="78.921"/></g><g><use x="230.785037" xlink:href="#z" y="78.921"/><use x="239.87559" xlink:href="#y" y="78.921"/><use x="245.33014" xlink:href="#r" y="78.921"/><use x="249.603235" xlink:href="#G" y="78.921"/></g><g><use x="258.094878" xlink:href="#u" y="78.921"/><use x="261.125426" xlink:href="#p" y="78.921"/><use x="265.367975" xlink:href="#G" y="78.921"/><use x="270.215979" xlink:href="#r" y="78.921"/><use x="274.489074" xlink:href="#q" y="78.921"/><use x="279.943624" xlink:href="#p" y="78.921"/><use x="284.186173" xlink:href="#u" y="78.921"/><use x="287.216721" xlink:href="#y" y="78.921"/><use x="292.671271" xlink:href="#w" y="78.921"/><use x="298.732367" xlink:href="#s" y="78.921"/></g><g><use x="306.667646" xlink:href="#p" y="78.921"/><use x="310.910195" xlink:href="#y" y="78.921"/></g><g><use x="319.997475" xlink:href="#C" y="78.921"/><use x="324.845479" xlink:href="#y" y="78.921"/><use x="330.300029" xlink:href="#w" y="78.921"/></g><use x="336.06658" xlink:href="#E" y="78.921"/><g><use x="341.518948" xlink:href="#G" y="78.921"/><use x="346.366952" xlink:href="#r" y="78.921"/><use x="350.640046" xlink:href="#J" y="78.921"/><use x="356.094596" xlink:href="#G" y="78.921"/></g><path d="m-.00003125.001625v13.546875" fill="none" stroke="#000" stroke-miterlimit="10" stroke-width=".398" transform="matrix(1 0 0 -1 366.918 82.986)"/><path d="m-.000625-.00015625v13.55078125" fill="none" stroke="#000" stroke-miterlimit="10" stroke-width=".398" transform="matrix(1 0 0 -1 .735 96.535)"/><use x="75.712" xlink:href="#Q" y="92.47"/><g><use x="81.928005" xlink:href="#q" y="92.47"/><use x="87.382555" xlink:href="#s" y="92.47"/><use x="91.685104" xlink:href="#p" y="92.47"/><use x="95.927653" xlink:href="#G" y="92.47"/><use x="100.775657" xlink:href="#r" y="92.47"/></g><path d="m.0004375-.00015625v13.55078125" fill="none" stroke="#000" stroke-miterlimit="10" stroke-width=".398" transform="matrix(1 0 0 -1 180.023 96.535)"/><g><use x="258.001" xlink:href="#o" y="92.47"/><use x="264.062096" xlink:href="#B" y="92.47"/><use x="267.092644" xlink:href="#y" y="92.47"/></g><use x="272.241739" xlink:href="#t" y="92.47"/><g><use x="279.814836" xlink:href="#G" y="92.47"/><use x="284.66284" xlink:href="#r" y="92.47"/></g><path d="m-.00003125-.00015625v13.55078125" fill="none" stroke="#000" stroke-miterlimit="10" stroke-width=".398" transform="matrix(1 0 0 -1 366.918 96.535)"/><path d="m-.000625-.000375h366.183594" fill="none" stroke="#000" stroke-miterlimit="10" stroke-width=".398" transform="matrix(1 0 0 -1 .735 96.734)"/></svg>