<svg height="10.909088pt" viewBox="70.734745 60.560401 22.386396 10.909088" width="22.386396pt" xmlns="http://www.w3.org/2000/svg"><path d="m6.850907-6.207271c.534545-.850909.992727-.883636 1.396363-.905454.130909-.010909.141819-.196364.141819-.207273 0-.087273-.054546-.130909-.141819-.130909-.283636 0-.599999.032727-.894545.032727-.36 0-.730909-.032727-1.079999-.032727-.065455 0-.207273 0-.207273.207273 0 .12.098182.130909.174545.130909.294546.021818.501818.130909.501818.36 0 .163636-.163636.403636-.163636.414545l-3.34909 5.323635-.741818-5.770908c0-.185454.250909-.327272.752727-.327272.152727 0 .272727 0 .272727-.218182 0-.098182-.087272-.12-.152727-.12-.436363 0-.905454.032727-1.352727.032727-.196363 0-.403636-.010909-.6-.010909s-.403636-.021818-.58909-.021818c-.076364 0-.207273 0-.207273.207273 0 .130909.098182.130909.272727.130909.610909 0 .621818.098182.654545.370909l.861818 6.730907c.032728.218182.076364.250909.218182.250909.174545 0 .218182-.054546.305455-.196364z" transform="translate(70.734745 68.742217)"/><path d="m3.610908 2.618181c0-.032727 0-.054545-.185454-.24-1.363636-1.374545-1.712727-3.436363-1.712727-5.105453 0-1.898181.414545-3.796363 1.756363-5.159999.141818-.130909.141818-.152727.141818-.185454 0-.076364-.043636-.109091-.109091-.109091-.109091 0-1.090909.741818-1.734545 2.127272-.556363 1.2-.687272 2.410909-.687272 3.327272 0 .850909.12 2.170909.719999 3.403635.654546 1.341818 1.592727 2.050909 1.701818 2.050909.065455 0 .109091-.032727.109091-.109091z" transform="translate(79.52263 68.742217)"/><path d="m4.265453-4.079999c-.305454.010909-.523636.250909-.523636.490909 0 .152727.098182.316364.338182.316364s.501818-.185455.501818-.610909c0-.490909-.469091-.938182-1.298182-.938182-1.439999 0-1.843635 1.112727-1.843635 1.592727 0 .850909.807272 1.014545 1.123636 1.08.567272.109091 1.134545.229091 1.134545.82909 0 .283637-.250909 1.2-1.56 1.2-.152727 0-.992727 0-1.243636-.578182.414546.054546.687273-.272727.687273-.578181 0-.250909-.174546-.381818-.403637-.381818-.283636 0-.610908.22909-.610908.719999 0 .621818.621818 1.058182 1.559999 1.058182 1.767272 0 2.192727-1.32 2.192727-1.810909 0-.392727-.207273-.665454-.338182-.796363-.294545-.305454-.610909-.36-1.090909-.458182-.392727-.087272-.82909-.163636-.82909-.654545 0-.316364.261818-.981818 1.221817-.981818.272728 0 .818182.076364.981818.501818z" transform="translate(83.765068 68.742217)"/><path d="m3.152726-2.727272c0-.850909-.12-2.170908-.719999-3.403635-.654546-1.341818-1.592727-2.050909-1.701818-2.050909-.065455 0-.109091.043636-.109091.109091 0 .032727 0 .054545.207273.250909 1.06909 1.08 1.690908 2.814545 1.690908 5.094544 0 1.865454-.403636 3.785454-1.756363 5.159999-.141818.130909-.141818.152727-.141818.185454 0 .065455.043636.109091.109091.109091.109091 0 1.090909-.741818 1.734545-2.127272.556363-1.2.687272-2.410909.687272-3.327272z" transform="translate(88.878703 68.742217)"/></svg>