<svg height="6.333316pt" viewBox="70.734745 64.045251 10.452661 6.333316" width="10.452661pt" xmlns="http://www.w3.org/2000/svg"><path d="m2.890908-4.06909h1.232727c-.36 1.614545-.458181 2.083636-.458181 2.814545 0 .163636 0 .458182.087272.829091.109091.479999.229091.545454.392727.545454.218182 0 .447273-.196364.447273-.414545 0-.065455 0-.087273-.065455-.24-.316363-.785455-.316363-1.494545-.316363-1.8 0-.578181.076364-1.167272.196363-1.734545h1.243637c.141818 0 .534545 0 .534545-.370909 0-.261818-.229091-.261818-.436364-.261818h-3.654544c-.24 0-.654545 0-1.134545.512727-.381818.425455-.665455.927273-.665455.981818 0 .010909 0 .109091.130909.109091.087273 0 .109091-.043636.174546-.130909.534545-.84 1.167272-.84 1.385454-.84h.621818c-.349091 1.32-.938182 2.639999-1.396363 3.632726-.087273.163637-.087273.185455-.087273.261819 0 .207272.174545.294545.316364.294545.327272 0 .414545-.305454.545454-.709091.152727-.501818.152727-.523636.294545-1.06909z" transform="translate(70.734745 68.742217)"/><path d="m3.897385-2.542466c0-.852802-.087671-1.370859-.350685-1.880946-.350685-.70137-.996264-.876713-1.43462-.876713-1.004234 0-1.37086.749191-1.482441.972354-.286924.581818-.302864 1.370859-.302864 1.785305 0 .526028.02391 1.331009.406475 1.968618.366625.589788.956414.74122 1.37883.74122.382565 0 1.067995-.119551 1.4665-.908592.294894-.573848.318805-1.283188.318805-1.801246zm-1.785305 2.486675c-.270984 0-.820922-.127522-.988294-.964383-.087671-.454297-.087671-1.203487-.087671-1.617933 0-.549938 0-1.107846.087671-1.546202.167372-.812951.789041-.892652.988294-.892652.270984 0 .820921.135492.980323.860772.095642.438356.095642 1.036114.095642 1.578082 0 .470237 0 1.187547-.095642 1.633873-.167372.836862-.71731.948443-.980323.948443z" transform="translate(76.953223 70.378567)"/></svg>