<svg height="6.263453pt" viewBox="70.734745 63.893731 12.326154 6.263453" width="12.326154pt" xmlns="http://www.w3.org/2000/svg"><path d="m3.403635-3.796363h1.221818c-.24 1.014546-.36 1.68-.36 2.323636 0 .741818.196364 1.570909.72 1.570909.36 0 .752727-.36.752727-.709091 0-.130909-.032727-.196364-.130909-.36-.501818-.883636-.501818-1.723636-.501818-2.018181 0-.261818 0-.370909.065455-.807273h1.352727c.207272 0 .381818 0 .545454-.163636.076364-.076364.218182-.207273.218182-.458182 0-.425454-.381818-.425454-.578182-.425454h-4.287271c-.229091 0-.698182 0-1.276364.523636-.381818.349091-.807272.905454-.807272 1.014545 0 .152728.130909.152728.250909.152728.163636 0 .174545-.010909.272727-.130909.414545-.512728 1.134545-.512728 1.341818-.512728h.654545c-.272727.861818-.709091 1.756364-1.298181 2.858181-.174546.327273-.207273.381819-.207273.534546 0 .294545.24.490909.523636.490909.229091 0 .392727-.12.469091-.185455.163636-.163636.174545-.207272.229091-.436363z" transform="translate(70.734745 68.742217)"/><path d="m2.630137-2.295392.079701-.494147c.01594-.095642.103612-.597759.103612-.645579 0-.191283-.183313-.326775-.374596-.326775s-.374595.135492-.374595.326775c0 .04782.039851.286924.063761.406475.047821.270984.103611.613699.119552.733251-.135492-.087672-.70137-.494147-.940474-.653549-.191282-.143462-.207223-.143462-.302864-.143462-.183312 0-.366625.167372-.366625.398505 0 .223163.151432.286924.167372.302864.087672.031881.406476.127522 1.187547.398506-.900623.310834-1.139726.374595-1.203487.414446-.095641.063761-.151432.151432-.151432.286924 0 .231133.183313.398505.366625.398505.095641 0 .119552-.01594.278954-.119551l.964384-.67746-.079702.494147c-.01594.095642-.103611.589788-.103611.645579 0 .199253.183313.326775.374595.326775s.374596-.135492.374596-.326775c0-.04782-.039851-.247073-.071731-.454296-.039851-.231133-.079702-.454297-.111582-.68543.135492.087671.70137.494147.940473.653549.191283.143462.207223.143462.302864.143462.183313 0 .366626-.167372.366626-.398505 0-.223163-.151433-.286924-.167373-.302864-.087671-.031881-.406475-.127522-1.187546-.398506.900622-.310834 1.139726-.374595 1.203486-.414446.095642-.063761.151433-.151432.151433-.286924 0-.231133-.183313-.398505-.366626-.398505-.095641 0-.119551.01594-.278953.119551z" transform="translate(78.179166 70.378567)"/></svg>