<svg height="4.696966pt" viewBox="70.734745 64.045251 5.766437 4.696966" width="5.766437pt" xmlns="http://www.w3.org/2000/svg"><path d="m4.06909-4.123635c-.196364-.403636-.512727-.698182-1.003636-.698182-1.276364 0-2.62909 1.603636-2.62909 3.196363 0 1.025454.599999 1.745454 1.450908 1.745454.218182 0 .763636-.043636 1.418182-.818182.087272.458182.46909.818182.992727.818182.381818 0 .632727-.250909.807272-.6.185455-.392727.327273-1.058181.327273-1.08 0-.10909-.098182-.10909-.130909-.10909-.109091 0-.12.043636-.152728.196363-.185454.709091-.381818 1.352727-.82909 1.352727-.294546 0-.327273-.283636-.327273-.501818 0-.24.021818-.327273.141818-.807273.12-.458181.141818-.567272.24-.981817l.392727-1.527273c.076364-.305454.076364-.327272.076364-.370909 0-.185454-.130909-.294545-.316364-.294545-.261818 0-.425454.24-.458181.48zm-.709091 2.825454c-.054545.196363-.054545.218181-.218182.403636-.48.6-.927272.774545-1.232727.774545-.545454 0-.698181-.6-.698181-1.025454 0-.545455.349091-1.887272.6-2.38909.338181-.643637.82909-1.047273 1.265454-1.047273.70909 0 .861818.894545.861818.96s-.021818.130909-.032728.185454z" transform="translate(70.734745 68.742217)"/></svg>