<svg height="10.909088pt" viewBox="70.734745 60.560401 21.327152 10.909088" width="21.327152pt" xmlns="http://www.w3.org/2000/svg"><path d="m5.519998-4.101817c.065455-.152727.109091-.229091.807273-.229091v-.512727c-.272727.021818-.589091.032727-.861818.032727s-.763636-.021818-.992727-.032727v.512727c.207273 0 .523636.032727.523636.12 0 .010909-.010909.032727-.054545.130909l-1.265454 2.727272-1.385455-2.978181h.589091v-.512727c-.36.021818-1.341818.032727-1.352727.032727-.305454 0-.796363-.021818-1.243636-.032727v.512727h.698182l1.90909 4.101817c.130909.272727.272727.272727.414546.272727.185454 0 .294545-.032727.403636-.261818z" transform="translate(70.734745 68.742217)"/><path d="m4.134544 2.454545c-.316363-.294546-1.025454-.96-1.483636-2.356363-.283636-.861818-.414545-1.865454-.414545-2.825454 0-2.14909.556363-3.861817 1.756363-5.072726.163636-.163636.174546-.174545.174546-.229091 0-.12-.109091-.152727-.196364-.152727-.185455 0-.643636.403636-.84.589091-1.701817 1.690908-1.952727 3.698181-1.952727 4.854544 0 1.363636.36 2.563636.872728 3.46909.719999 1.254545 1.712726 1.985454 1.919999 1.985454.087273 0 .196364-.032727.196364-.152727 0-.054546-.032728-.098182-.032728-.109091z" transform="translate(77.35592 68.742217)"/><path d="m2.301818-3.207272c-.403637-.076363-1.112727-.196363-1.112727-.709091 0-.676363 1.014545-.676363 1.221817-.676363.818182 0 1.232727.316364 1.287273.916363.010909.163637.021818.218182.250909.218182.261818 0 .261818-.054545.261818-.305454v-.872727c0-.207273 0-.305455-.196364-.305455-.043636 0-.065454 0-.490909.207273-.283636-.141818-.665454-.207273-1.101817-.207273-.327273 0-2.007273 0-2.007273 1.429091 0 .436363.218182.730909.436364.916363.436363.381818.850909.447273 1.690908.6.392728.065454 1.210909.207273 1.210909.850909 0 .818181-1.003636.818181-1.243636.818181-1.156363 0-1.439999-.796363-1.570908-1.265454-.054546-.152727-.109091-.152727-.261819-.152727-.261818 0-.261818.065454-.261818.316363v1.189091c0 .207273 0 .305455.196364.305455.076364 0 .098182 0 .327273-.163637.010909 0 .250909-.163636.283636-.185454.501818.349091 1.06909.349091 1.287272.349091.338182 0 2.018181 0 2.018181-1.592727 0-.469091-.218181-.850909-.599999-1.156364-.425455-.316363-.774546-.381818-1.625454-.523636z" transform="translate(82.23468 68.742217)"/><path d="m3.687272-2.727272c0-1.363636-.36-2.563636-.872727-3.46909-.72-1.254545-1.712727-1.985454-1.92-1.985454-.087272 0-.196363.032727-.196363.152727 0 .054546 0 .076364.185454.250909 1.374545 1.396364 1.745454 3.327272 1.745454 5.039999 0 2.14909-.556363 3.861817-1.756363 5.072726-.163636.163636-.174545.174545-.174545.229091 0 .12.109091.152727.196363.152727.185455 0 .643636-.403636.84-.589091 1.701818-1.690908 1.952727-3.698181 1.952727-4.854544z" transform="translate(87.183136 68.742217)"/></svg>