<svg height="4.848486pt" viewBox="70.734745 63.893731 7.84847 4.848486" width="7.84847pt" xmlns="http://www.w3.org/2000/svg"><path d="m3.403635-3.796363h1.221818c-.24 1.014546-.36 1.68-.36 2.323636 0 .741818.196364 1.570909.72 1.570909.36 0 .752727-.36.752727-.709091 0-.130909-.032727-.196364-.130909-.36-.501818-.883636-.501818-1.723636-.501818-2.018181 0-.261818 0-.370909.065455-.807273h1.352727c.207272 0 .381818 0 .545454-.163636.076364-.076364.218182-.207273.218182-.458182 0-.425454-.381818-.425454-.578182-.425454h-4.287271c-.229091 0-.698182 0-1.276364.523636-.381818.349091-.807272.905454-.807272 1.014545 0 .152728.130909.152728.250909.152728.163636 0 .174545-.010909.272727-.130909.414545-.512728 1.134545-.512728 1.341818-.512728h.654545c-.272727.861818-.709091 1.756364-1.298181 2.858181-.174546.327273-.207273.381819-.207273.534546 0 .294545.24.490909.523636.490909.229091 0 .392727-.12.469091-.185455.163636-.163636.174545-.207272.229091-.436363z" transform="translate(70.734745 68.742217)"/></svg>