<svg height="6.81818pt" viewBox="70.734745 64.045251 5.488647 6.81818" width="5.488647pt" xmlns="http://www.w3.org/2000/svg"><path d="m.490909 1.330909c-.087273.370909-.109091.447272-.589091.447272-.130909 0-.250909 0-.250909.207273 0 .087273.054546.130909.141818.130909.294546 0 .610909-.032727.916364-.032727.36 0 .730909.032727 1.079999.032727.054546 0 .196364 0 .196364-.218182 0-.12-.109091-.12-.261818-.12-.545455 0-.545455-.076363-.545455-.174545 0-.130909.458182-1.90909.534546-2.181818.141818.316364.447272.698182 1.003636.698182 1.265454 0 2.62909-1.592727 2.62909-3.196363 0-1.025454-.621818-1.745454-1.450909-1.745454-.545454 0-1.06909.392727-1.42909.818182-.109091-.589091-.578182-.818182-.981818-.818182-.501818 0-.709091.425455-.807273.621818-.196363.370909-.338181 1.025454-.338181 1.058182 0 .109091.109091.109091.130909.109091.109091 0 .12-.01091.185454-.250909.185455-.774546.403637-1.298182.796364-1.298182.185454 0 .338181.087273.338181.501818 0 .250909-.032727.370909-.076363.556364zm1.919999-4.734544c.076364-.294546.370909-.6.567273-.763637.381818-.338181.698182-.414545.883636-.414545.436364 0 .698182.381818.698182 1.025454s-.36 1.898182-.556364 2.312727c-.370909.763636-.894545 1.123636-1.298181 1.123636-.72 0-.861818-.905454-.861818-.970909 0-.021818 0-.043636.032727-.174545z" transform="translate(70.734745 68.742217)"/></svg>