<svg height="10.909088pt" viewBox="70.734745 60.560401 20.20839 10.909088" width="20.20839pt" xmlns="http://www.w3.org/2000/svg"><path d="m2.890908-4.06909h1.232727c-.36 1.614545-.458181 2.083636-.458181 2.814545 0 .163636 0 .458182.087272.829091.109091.479999.229091.545454.392727.545454.218182 0 .447273-.196364.447273-.414545 0-.065455 0-.087273-.065455-.24-.316363-.785455-.316363-1.494545-.316363-1.8 0-.578181.076364-1.167272.196363-1.734545h1.243637c.141818 0 .534545 0 .534545-.370909 0-.261818-.229091-.261818-.436364-.261818h-3.654544c-.24 0-.654545 0-1.134545.512727-.381818.425455-.665455.927273-.665455.981818 0 .010909 0 .109091.130909.109091.087273 0 .109091-.043636.174546-.130909.534545-.84 1.167272-.84 1.385454-.84h.621818c-.349091 1.32-.938182 2.639999-1.396363 3.632726-.087273.163637-.087273.185455-.087273.261819 0 .207272.174545.294545.316364.294545.327272 0 .414545-.305454.545454-.709091.152727-.501818.152727-.523636.294545-1.06909z" transform="translate(70.734745 68.742217)"/><path d="m3.610908 2.618181c0-.032727 0-.054545-.185454-.24-1.363636-1.374545-1.712727-3.436363-1.712727-5.105453 0-1.898181.414545-3.796363 1.756363-5.159999.141818-.130909.141818-.152727.141818-.185454 0-.076364-.043636-.109091-.109091-.109091-.109091 0-1.090909.741818-1.734545 2.127272-.556363 1.2-.687272 2.410909-.687272 3.327272 0 .850909.12 2.170909.719999 3.403635.654546 1.341818 1.592727 2.050909 1.701818 2.050909.065455 0 .109091-.032727.109091-.109091z" transform="translate(77.344623 68.742217)"/><path d="m4.265453-4.079999c-.305454.010909-.523636.250909-.523636.490909 0 .152727.098182.316364.338182.316364s.501818-.185455.501818-.610909c0-.490909-.469091-.938182-1.298182-.938182-1.439999 0-1.843635 1.112727-1.843635 1.592727 0 .850909.807272 1.014545 1.123636 1.08.567272.109091 1.134545.229091 1.134545.82909 0 .283637-.250909 1.2-1.56 1.2-.152727 0-.992727 0-1.243636-.578182.414546.054546.687273-.272727.687273-.578181 0-.250909-.174546-.381818-.403637-.381818-.283636 0-.610908.22909-.610908.719999 0 .621818.621818 1.058182 1.559999 1.058182 1.767272 0 2.192727-1.32 2.192727-1.810909 0-.392727-.207273-.665454-.338182-.796363-.294545-.305454-.610909-.36-1.090909-.458182-.392727-.087272-.82909-.163636-.82909-.654545 0-.316364.261818-.981818 1.221817-.981818.272728 0 .818182.076364.981818.501818z" transform="translate(81.587062 68.742217)"/><path d="m3.152726-2.727272c0-.850909-.12-2.170908-.719999-3.403635-.654546-1.341818-1.592727-2.050909-1.701818-2.050909-.065455 0-.109091.043636-.109091.109091 0 .032727 0 .054545.207273.250909 1.06909 1.08 1.690908 2.814545 1.690908 5.094544 0 1.865454-.403636 3.785454-1.756363 5.159999-.141818.130909-.141818.152727-.141818.185454 0 .065455.043636.109091.109091.109091.109091 0 1.090909-.741818 1.734545-2.127272.556363-1.2.687272-2.410909.687272-3.327272z" transform="translate(86.700696 68.742217)"/></svg>