<svg height="195pt" viewBox="0 0 255 195" width="255pt" xmlns="http://www.w3.org/2000/svg"><path d="m152.058594 47.808594-3.046875-6.183594h-1.027344l-3.046875 6.183594h1.144531l2.402344-4.894532h.027344l2.402343 4.894532zm0 0"/><path d="m161.2 167.5h123.777083" fill="none" stroke="#000" stroke-linecap="round" stroke-linejoin="round" stroke-miterlimit="10" transform="matrix(1.875 0 0 1.875 -292.5 -163.125)"/><path d="m288.977083 167.5h-4m0-1.5 4 1.5-4 1.5" fill="none" stroke="#000" stroke-miterlimit="10" transform="matrix(1.875 0 0 1.875 -292.5 -163.125)"/><path d="m148.046875 165.59375c-.324219-1.523438-.585937-1.933594-1.171875-1.933594-.5 0-1.261719.175782-2.609375.675782l-.261719.085937.058594.351563.410156-.117188c.4375-.117188.703125-.144531.878906-.144531.554688 0 .730469.175781 1.054688 1.523437l.613281 2.78125-1.84375 2.609375c-.46875.671875-.910156 1.113281-1.144531 1.113281-.144531 0-.351562-.058593-.585938-.207031-.292968-.144531-.527343-.234375-.730468-.234375-.441406 0-.761719.351563-.761719.792969 0 .585937.4375.9375 1.140625.9375.675781 0 1.144531-.175781 2.140625-1.523437l1.960937-2.667969.644532 2.667969c.292968 1.140624.617187 1.523437 1.347656 1.523437.851562 0 1.4375-.527344 2.726562-2.550781l-.324218-.203125c-.175782.234375-.261719.351562-.46875.613281-.527344.703125-.761719.910156-1.054688.910156-.320312 0-.527344-.292968-.671875-.910156l-.734375-3.015625c-.117187-.558594-.175781-.851563-.175781-1.027344.996094-1.726562 1.789063-2.722656 2.199219-2.722656.554687 0 .761718.378906 1.171875.378906.46875 0 .761719-.320312.761719-.789062 0-.5-.382813-.851563-.910157-.851563-.996093 0-1.816406.820313-3.398437 3.222656zm0 0"/><path d="m172 180.875v-87.227083" fill="none" stroke="#000" stroke-linecap="round" stroke-linejoin="round" stroke-miterlimit="10" transform="matrix(1.875 0 0 1.875 -292.5 -163.125)"/><path d="m172 89.647917v4m-1.5 0 1.5-4 1.5 4" fill="none" stroke="#000" stroke-miterlimit="10" transform="matrix(1.875 0 0 1.875 -292.5 -163.125)"/><path d="m14.921875 63.722656c-.382813-1.992187-1.582031-5.742187-1.933594-5.742187h-.089843c-1.199219.175781-1.960938.320312-2.402344.410156-.234375.058594-.46875.085937-.703125.144531v.382813c.234375-.089844.441406-.089844.675781-.089844.90625 0 1.316406.324219 1.726562 1.4375.617188 1.523437 1.847657 6.5625 1.847657 7.46875 0 .234375-.089844.527344-.207031.792969-.175782.292968-1.199219 1.609375-1.609376 2.050781-.5.554687-.792968.730469-1.085937.730469-.585937 0-.585937-.644532-1.347656-.644532-.496094 0-.878907.410157-.878907.910157 0 .585937.46875.964843 1.144532.964843 1.289062 0 3.691406-2.578124 6.035156-6.445312 1.84375-3.105469 2.929688-5.59375 2.929688-6.855469 0-.671875-.5-1.257812-1.171876-1.257812-.5 0-.878906.351562-.878906.847656 0 .351563.117188.585937.554688.878906.441406.265625.585937.410157.585937.703125 0 .996094-.820312 2.609375-2.722656 5.800782zm0 0"/><g stroke-linecap="round" stroke-linejoin="round" stroke-miterlimit="10" transform="matrix(1.875 0 0 1.875 -292.5 -163.125)"><path d="m198.460417 118.65625c.585416.585417.585416 1.539583 0 2.125-.585417.58125-1.535417.58125-2.120834 0-.585416-.585417-.585416-1.539583 0-2.125.585417-.58125 1.535417-.58125 2.120834 0" fill="#fff" stroke="#7cbdf9"/><path d="m197.391667 121.21875-.133334 19.03125" fill="none" stroke="#7cbdf9"/><path d="m187.960417 156.670833c.585416.5875.585416 1.535417 0 2.122917-.585417.585417-1.535417.585417-2.120834 0-.585416-.5875-.585416-1.535417 0-2.122917.585417-.585416 1.535417-.585416 2.120834 0" fill="#fff" stroke="#7cbdf9"/><path d="m186.9375 156.233333.3-11.541666" fill="none" stroke="#7cbdf9"/><path d="m235.7625 141.858333c.585417.5875.585417 1.535417 0 2.122917-.5875.585417-1.535417.585417-2.122917 0-.585416-.5875-.585416-1.535417 0-2.122917.5875-.585416 1.535417-.585416 2.122917 0" fill="#fff" stroke="#7cbdf9"/><path d="m234.745833 141.420833.55-18.033333" fill="none" stroke="#7cbdf9"/><path d="m215.25 99.039583c.58125.585417.58125 1.535417 0 2.120834-.585417.585416-1.539583.585416-2.125 0-.58125-.585417-.58125-1.535417 0-2.120834.585417-.585416 1.539583-.585416 2.125 0" fill="#fff" stroke="#7cbdf9"/><path d="m214.170833 101.602083-.335416 31.295834" fill="none" stroke="#7cbdf9"/><path d="m274.5625 90.839583c.585417.585417.585417 1.535417 0 2.120834-.585417.585416-1.539583.585416-2.125 0-.58125-.585417-.58125-1.535417 0-2.120834.585417-.585416 1.539583-.585416 2.125 0" fill="#fff" stroke="#7cbdf9"/><path d="m273.464583 93.397917-.295833 13.2" fill="none" stroke="#7cbdf9"/><path d="m161.2 156.23125 129.675-57.48125" fill="none" stroke="#000"/></g><path d="m148.457031 55.621094c-.378906-1.992188-1.582031-5.742188-1.933593-5.742188h-.085938c-1.203125.175782-1.964844.324219-2.402344.410156-.234375.058594-.46875.089844-.703125.148438v.378906c.234375-.085937.4375-.085937.671875-.085937.910156 0 1.320313.320312 1.730469 1.433593.613281 1.523438 1.84375 6.5625 1.84375 7.472657 0 .234375-.085937.527343-.203125.789062-.175781.292969-1.203125 1.613281-1.613281 2.050781-.496094.558594-.789063.734376-1.082031.734376-.585938 0-.585938-.644532-1.347657-.644532-.5 0-.878906.410156-.878906.90625 0 .585938.46875.96875 1.140625.96875 1.289062 0 3.691406-2.578125 6.035156-6.445312 1.847656-3.105469 2.929688-5.597656 2.929688-6.855469 0-.675781-.496094-1.261719-1.171875-1.261719-.496094 0-.878907.351563-.878907.851563 0 .351562.117188.585937.558594.878906.4375.261719.585938.410156.585938.703125 0 .996094-.820313 2.605469-2.726563 5.800781zm0 0"/><path d="m156.367188 44.78125c-1.023438.9375-1.640626 1.523438-2.078126 2.257812-.585937.9375-.851562 2.078126-.851562 3.25 0 1.4375.410156 2.902344 1.113281 4.074219l.207031-.089843c-.410156-1.140626-.527343-1.816407-.527343-2.929688 0-2.285156.585937-4.773438 2.285156-6.386719zm0 0"/><path d="m159.675781 45.574219c0-.324219-.234375-.617188-.558593-.617188-.292969 0-.527344.234375-.527344.585938 0 .382812.207031.617187.558594.617187.292968 0 .527343-.265625.527343-.585937zm-.46875 5.449219c-.46875.644531-.734375.878906-.9375.878906-.089843 0-.148437-.058594-.148437-.175782 0-.148437.058594-.292968.089844-.46875l1.082031-3.867187-.058594-.03125c-1.140625.207031-1.347656.234375-1.785156.265625v.175781c.585937.027344.703125.058594.703125.292969 0 .085938-.03125.292969-.089844.496094l-.554688 1.964844c-.148437.644531-.234374 1.023437-.234374 1.257812 0 .410156.175781.617188.554687.617188.558594 0 .910156-.324219 1.523437-1.289063zm0 0"/><path d="m161.777344 44.839844c.378906.910156.527344 1.816406.527344 2.960937 0 1.054688-.175782 2.34375-.527344 3.425781-.378906 1.171876-.820313 1.933594-1.757813 2.929688l.144531.175781c1.027344-.878906 1.613282-1.523437 2.054688-2.253906.554688-.96875.875-2.050781.875-3.195313 0-.585937-.085938-1.257812-.203125-1.875-.203125-.847656-.382813-1.289062-.90625-2.226562zm0 0"/><path d="m148.457031 122.1875c-.378906-1.992188-1.582031-5.742188-1.933593-5.742188h-.085938c-1.203125.175782-1.964844.320313-2.402344.410157-.234375.058593-.46875.085937-.703125.144531v.382812c.234375-.089843.4375-.089843.671875-.089843.910156 0 1.320313.324219 1.730469 1.4375.613281 1.523437 1.84375 6.5625 1.84375 7.46875 0 .234375-.085937.527343-.203125.792969-.175781.292968-1.203125 1.609374-1.613281 2.050781-.496094.554687-.789063.730469-1.082031.730469-.585938 0-.585938-.644532-1.347657-.644532-.5 0-.878906.410156-.878906.910156 0 .585938.46875.964844 1.140625.964844 1.289062 0 3.691406-2.578125 6.035156-6.445312 1.847656-3.105469 2.929688-5.59375 2.929688-6.855469 0-.671875-.496094-1.257813-1.171875-1.257813-.496094 0-.878907.351563-.878907.847657 0 .351562.117188.585937.558594.878906.4375.265625.585938.410156.585938.703125 0 .996094-.820313 2.609375-2.726563 5.800781zm0 0"/><path d="m156.367188 111.347656c-1.023438.9375-1.640626 1.523438-2.078126 2.253906-.585937.9375-.851562 2.082032-.851562 3.253907 0 1.433593.410156 2.898437 1.113281 4.070312l.207031-.085937c-.410156-1.144532-.527343-1.816406-.527343-2.929688 0-2.285156.585937-4.777344 2.285156-6.386718zm0 0"/><path d="m159.675781 112.136719c0-.320313-.234375-.613281-.558593-.613281-.292969 0-.527344.234374-.527344.585937 0 .378906.207031.613281.558594.613281.292968 0 .527343-.261718.527343-.585937zm-.46875 5.449219c-.46875.644531-.734375.878906-.9375.878906-.089843 0-.148437-.058594-.148437-.175782 0-.144531.058594-.292968.089844-.46875l1.082031-3.867187-.058594-.027344c-1.140625.203125-1.347656.234375-1.785156.261719v.175781c.585937.03125.703125.058594.703125.292969 0 .089844-.03125.292969-.089844.5l-.554688 1.960938c-.148437.644531-.234374 1.027343-.234374 1.261718 0 .410156.175781.613282.554687.613282.558594 0 .910156-.320313 1.523437-1.289063zm0 0"/><path d="m161.777344 111.40625c.378906.90625.527344 1.816406.527344 2.957031 0 1.054688-.175782 2.34375-.527344 3.429688-.378906 1.171875-.820313 1.933593-1.757813 2.929687l.144531.175782c1.027344-.878907 1.613282-1.523438 2.054688-2.257813.554688-.964844.875-2.050781.875-3.191406 0-.585938-.085938-1.261719-.203125-1.875-.203125-.851563-.382813-1.289063-.90625-2.226563zm0 0"/></svg>