<svg height="110pt" viewBox="0 0 329 110" width="329pt" xmlns="http://www.w3.org/2000/svg"><path d="m124.015625 139.234375c4.98125 4.98125 4.98125 13.05 0 18.03125s-13.05 4.98125-18.03125 0-4.98125-13.05 0-18.03125 13.05-4.98125 18.03125 0" fill="#b2d9ff" stroke="#000" stroke-linecap="round" stroke-linejoin="round" stroke-miterlimit="10" transform="matrix(1.25 0 0 1.25 -30 -92.5)"/><path d="m112.113281 90.703125c-.15625-.78125-.292969-.976563-.566406-.976563s-.644531.078126-1.328125.332032l-.117188.039062.039063.175782.195313-.058594c.214843-.058594.351562-.078125.429687-.078125.292969 0 .371094.097656.527344.761719l.3125 1.40625-.917969 1.308593c-.234375.332031-.449219.546875-.585938.546875-.058593 0-.175781-.039062-.292968-.097656-.136719-.078125-.253906-.136719-.351563-.136719-.214843 0-.390625.195313-.390625.410157 0 .292968.214844.46875.566406.46875.351563 0 .585938-.097657 1.074219-.761719l.996094-1.328125.3125 1.328125c.136719.566406.3125.761719.664063.761719.429687 0 .722656-.253907 1.386718-1.269532l-.175781-.117187c-.097656.117187-.136719.195312-.234375.332031-.253906.332031-.390625.449219-.527344.449219-.15625 0-.253906-.15625-.332031-.46875l-.371094-1.503907c-.058593-.273437-.097656-.429687-.097656-.507812.507813-.859375.917969-1.367188 1.113281-1.367188.273438 0 .371094.195313.585938.195313s.371094-.175781.371094-.410156-.175782-.410157-.449219-.410157c-.488281 0-.917969.410157-1.699219 1.601563zm0 0"/><path d="m117.320312 98.4375v-.117188c-.566406 0-.703124-.136718-.703124-.449218v-4.472656l-.078126-.039063-1.328124.683594v.117187l.195312-.078125c.136719-.058593.253906-.097656.332031-.097656.15625 0 .234375.117187.234375.371094v3.378906c0 .410156-.15625.566406-.722656.585937v.117188zm0 0"/><path d="m176.890625 139.234375c4.98125 4.98125 4.98125 13.05 0 18.03125s-13.05 4.98125-18.03125 0-4.98125-13.05 0-18.03125 13.05-4.98125 18.03125 0" fill="#b2d9ff" stroke="#000" stroke-linecap="round" stroke-linejoin="round" stroke-miterlimit="10" transform="matrix(1.25 0 0 1.25 -30 -92.5)"/><path d="m178.207031 90.703125c-.15625-.78125-.292969-.976563-.566406-.976563s-.644531.078126-1.328125.332032l-.117188.039062.039063.175782.195313-.058594c.214843-.058594.351562-.078125.429687-.078125.292969 0 .371094.097656.527344.761719l.3125 1.40625-.917969 1.308593c-.234375.332031-.449219.546875-.585938.546875-.058593 0-.175781-.039062-.292968-.097656-.136719-.078125-.253906-.136719-.351563-.136719-.214843 0-.390625.195313-.390625.410157 0 .292968.214844.46875.566406.46875.351563 0 .585938-.097657 1.074219-.761719l.996094-1.328125.3125 1.328125c.136719.566406.3125.761719.664063.761719.429687 0 .722656-.253907 1.386718-1.269532l-.175781-.117187c-.097656.117187-.136719.195312-.234375.332031-.253906.332031-.390625.449219-.527344.449219-.15625 0-.253906-.15625-.332031-.46875l-.371094-1.503907c-.058593-.273437-.097656-.429687-.097656-.507812.507813-.859375.917969-1.367188 1.113281-1.367188.273438 0 .371094.195313.585938.195313s.371094-.175781.371094-.410156-.175782-.410157-.449219-.410157c-.488281 0-.917969.410157-1.699219 1.601563zm0 0"/><path d="m184.019531 97.402344-.097656-.039063c-.253906.429688-.410156.507813-.722656.507813h-1.757813l1.230469-1.328125c.664063-.703125.957031-1.269531.957031-1.855469 0-.742188-.527344-1.328125-1.386718-1.328125-.917969 0-1.386719.625-1.542969 1.503906l.15625.039063c.292969-.742188.546875-.976563 1.09375-.976563.644531 0 1.035156.371094 1.035156 1.054688 0 .644531-.253906 1.210937-.976563 1.953125l-1.328124 1.40625v.097656h2.929687zm0 0"/><path d="m12.289062 95v-8.046875h1.054688v8.046875zm0 0"/><path d="m15.101562 95v-5.839844h.898438v.839844c.414062-.632812 1.035156-.957031 1.855469-.957031.351562 0 .667969.066406.957031.195312.296875.117188.519531.285157.664062.488281.140626.195313.246094.4375.3125.722657.039063.183593.058594.503906.058594.957031v3.59375h-.996094v-3.554688c0-.398437-.039062-.703124-.117187-.898437s-.214844-.351563-.410156-.46875c-.195313-.125-.425781-.195313-.683594-.195313-.417969 0-.78125.136719-1.09375.410157-.300781.261719-.449219.769531-.449219 1.523437v3.183594zm0 0"/><path d="m21.359375 97.226562v-8.066406h.898437v.761719c.203126-.296875.4375-.515625.703126-.664063.273437-.140624.605468-.214843.996093-.214843.492188 0 .925781.132812 1.308594.390625.375.25.664063.605468.859375 1.074218s.292969.976563.292969 1.523438c0 .601562-.113281 1.140625-.332031 1.621094-.210938.484375-.519532.855468-.917969 1.113281-.40625.242187-.835938.371094-1.289063.371094-.328125 0-.621094-.074219-.878906-.214844-.265625-.140625-.480469-.316406-.644531-.527344v2.832031zm.898437-5.117187c0 .757813.144532 1.320313.449219 1.679687.3125.351563.683594.527344 1.113281.527344.429688 0 .800782-.179687 1.113282-.546875.320312-.375.488281-.957031.488281-1.738281 0-.742188-.15625-1.292969-.46875-1.660156-.304687-.375-.664063-.566406-1.09375-.566406-.421875 0-.792969.203124-1.113281.605468-.328125.390625-.488282.957032-.488282 1.699219zm0 0"/><path d="m31.445312 95v-.859375c-.460937.664063-1.074218.996094-1.855468.996094-.34375 0-.660156-.066407-.957032-.195313-.304687-.140625-.527343-.3125-.683593-.507812-.148438-.195313-.246094-.433594-.292969-.722656-.039062-.195313-.058594-.507813-.058594-.9375v-3.613282h.976563v3.242188c0 .523437.023437.871094.078125 1.035156.046875.265625.175781.46875.371094.625.203124.148438.457031.214844.761718.214844.296875 0 .574219-.066406.839844-.214844.257812-.15625.4375-.359375.546875-.625.101563-.257812.15625-.644531.15625-1.152344v-3.125h.996094v5.839844zm0 0"/><path d="m36.042969 94.121094.136719.859375c-.289063.0625-.539063.097656-.742188.097656-.367188 0-.644531-.058594-.839844-.175781-.195312-.117188-.34375-.261719-.429687-.449219-.078125-.179687-.117188-.566406-.117188-1.152344v-3.359375h-.722656v-.78125h.722656v-1.445312l.996094-.585938v2.03125h.996094v.78125h-.996094v3.398438c0 .289062.007813.46875.039063.546875.039062.078125.097656.144531.175781.195312.078125.054688.183593.078125.332031.078125.117188 0 .261719-.011718.449219-.039062zm0 0"/><path d="m40.105469 95v-8.046875h.976562v8.046875zm0 0"/><path d="m46.433594 94.277344c-.367188.3125-.71875.535156-1.054688.664062-.34375.128906-.703125.195313-1.09375.195313-.640625 0-1.132812-.15625-1.484375-.46875-.34375-.3125-.507812-.714844-.507812-1.210938 0-.285156.0625-.546875.195312-.78125.125-.234375.296875-.417969.507813-.566406.203125-.140625.4375-.253906.703125-.332031.195312-.039063.488281-.082032.878906-.136719.804687-.085937 1.394531-.203125 1.777344-.351563 0-.125 0-.214843 0-.253906 0-.402344-.09375-.683594-.273438-.839844-.265625-.234374-.640625-.351562-1.132812-.351562-.46875 0-.816407.085938-1.035157.253906-.226562.15625-.386718.445313-.488281.859375l-.957031-.117187c.078125-.414063.214844-.746094.410156-.996094.203125-.257812.496094-.453125.878906-.585938.390626-.140624.828126-.214843 1.328126-.214843.507812 0 .90625.058593 1.210937.175781.3125.117188.535156.269531.683594.449219.15625.171875.257812.390625.3125.664062.039062.171875.058593.46875.058593.898438v1.328125c0 .914062.019532 1.496094.058594 1.738281.039063.25.121094.484375.253906.703125h-1.035156c-.109375-.203125-.171875-.449219-.195312-.722656zm-.078125-2.207032c-.367188.148438-.910157.269532-1.621094.371094-.40625.066406-.695313.136719-.859375.214844-.171875.070312-.304688.171875-.390625.3125-.09375.148438-.136719.304688-.136719.46875 0 .265625.097656.484375.292969.664062.195313.171876.488281.253907.878906.253907.375 0 .710938-.082031 1.015625-.253907.296875-.164062.515625-.394531.664063-.683593.101562-.21875.15625-.546875.15625-.976563zm0 0"/><path d="m48.84375 97.246094-.117188-.917969c.21875.046875.410157.078125.566407.078125.21875 0 .394531-.039062.527343-.117188.125-.070312.238282-.164062.332032-.292968.046875-.105469.144531-.351563.292968-.742188.023438-.054687.058594-.132812.097657-.234375l-2.226563-5.859375h1.074219l1.210937 3.378906c.15625.429688.296876.878907.429688 1.347657.101562-.441407.234375-.882813.390625-1.328125l1.25-3.398438h.996094l-2.226563 5.9375c-.234375.636719-.421875 1.078125-.546875 1.328125-.1875.324219-.386719.558594-.605469.703125-.226562.15625-.5.234375-.820312.234375-.1875 0-.390625-.039062-.625-.117187zm0 0"/><path d="m58.492188 93.125 1.035156.117188c-.171875.601562-.480469 1.070312-.917969 1.40625-.429687.328124-.988281.488281-1.660156.488281-.851563 0-1.523438-.257813-2.03125-.78125-.5-.53125-.742188-1.273438-.742188-2.226563 0-.976562.253907-1.730468.761719-2.265625.507812-.546875 1.160156-.820312 1.972656-.820312.78125 0 1.410156.269531 1.894532.800781.492187.523438.742187 1.265625.742187 2.226562v.273438h-4.355469c.039063.640625.21875 1.128906.546875 1.464844.320313.339844.730469.507812 1.230469.507812.359375 0 .667969-.089844.917969-.273437.257812-.195313.457031-.496094.605469-.917969zm-3.242188-1.601562h3.261719c-.039063-.492188-.167969-.863282-.371094-1.113282-.3125-.375-.722656-.566406-1.230469-.566406-.460937 0-.839844.15625-1.152344.46875-.304687.304688-.46875.703125-.507812 1.210938zm0 0"/><path d="m60.742188 95v-5.839844h.898437v.898438c.222656-.414063.429687-.6875.625-.820313.195313-.128906.410156-.195312.644531-.195312.324219 0 .664063.105469 1.015625.3125l-.351562.917969c-.234375-.140626-.476563-.214844-.722657-.214844-.207031 0-.402343.066406-.585937.195312-.167969.132813-.292969.3125-.371094.546875-.105469.351563-.15625.738281-.15625 1.152344v3.046875zm0 0"/><path d="m7.40625 15.761719c0-1.328125.355469-2.367188 1.074219-3.125.710937-.765625 1.640625-1.152344 2.773437-1.152344.742188 0 1.410156.1875 2.011719.546875.59375.351562 1.054687.851562 1.367187 1.484375.3125.640625.46875 1.359375.46875 2.148437 0 .820313-.167968 1.558594-.488281 2.207032-.328125.640625-.796875 1.128906-1.40625 1.464844-.601562.328124-1.25.488281-1.953125.488281-.757812 0-1.4375-.179688-2.03125-.546875-.601562-.363282-1.054687-.863282-1.367187-1.503906-.304688-.632813-.449219-1.308594-.449219-2.011719zm1.09375.019531c0 .976562.257812 1.75.78125 2.304688.515625.546874 1.175781.820312 1.972656.820312.789063 0 1.449219-.277344 1.972656-.839844.515626-.558594.78125-1.355468.78125-2.402344 0-.648437-.113281-1.214843-.332031-1.699218-.226562-.492188-.546875-.878906-.976562-1.152344-.429688-.273438-.910157-.410156-1.425781-.410156-.757813 0-1.40625.261718-1.953126.78125-.546874.523437-.820312 1.386718-.820312 2.597656zm0 0"/><path d="m20.179688 19.6875v-.859375c-.460938.664063-1.074219.996094-1.855469.996094-.339844 0-.660157-.066407-.957031-.195313-.304688-.140625-.527344-.3125-.683594-.507812-.144532-.195313-.246094-.433594-.292969-.722656-.039063-.195313-.058594-.507813-.058594-.9375v-3.613282h.976563v3.242188c0 .523437.023437.871094.078125 1.035156.050781.265625.175781.46875.371093.625.203126.148438.460938.214844.761719.214844.296875 0 .574219-.066406.839844-.214844.257813-.15625.4375-.359375.546875-.625.101562-.257812.15625-.644531.15625-1.152344v-3.125h.996094v5.839844zm0 0"/><path d="m24.777344 18.808594.136718.859375c-.289062.0625-.539062.097656-.742187.097656-.367187 0-.644531-.058594-.839844-.175781-.195312-.117188-.34375-.261719-.429687-.449219-.078125-.179687-.117188-.566406-.117188-1.152344v-3.359375h-.722656v-.78125h.722656v-1.445312l.996094-.585938v2.03125h.996094v.78125h-.996094v3.398438c0 .289062.007812.46875.039062.546875.039063.078125.097657.144531.175782.195312.078125.054688.183594.078125.332031.078125.117187 0 .261719-.011718.449219-.039062zm0 0"/><path d="m25.734375 21.914062v-8.066406h.898437v.761719c.203126-.296875.4375-.515625.703126-.664063.273437-.140624.605468-.214843.996093-.214843.492188 0 .925781.132812 1.308594.390625.375.25.664063.605468.859375 1.074218s.292969.976563.292969 1.523438c0 .601562-.113281 1.140625-.332031 1.621094-.210938.484375-.519532.855468-.917969 1.113281-.40625.246094-.835938.371094-1.289063.371094-.328125 0-.621094-.074219-.878906-.214844-.265625-.140625-.480469-.316406-.644531-.527344v2.832031zm.898437-5.117187c0 .757813.144532 1.320313.449219 1.679687.3125.351563.683594.527344 1.113281.527344.429688 0 .800782-.179687 1.113282-.546875.320312-.375.488281-.957031.488281-1.738281 0-.742188-.15625-1.292969-.46875-1.660156-.304687-.375-.664063-.566406-1.09375-.566406-.421875 0-.792969.203124-1.113281.605468-.328125.390625-.488282.957032-.488282 1.699219zm0 0"/><path d="m35.820312 19.6875v-.859375c-.460937.664063-1.074218.996094-1.855468.996094-.34375 0-.660156-.066407-.957032-.195313-.304687-.140625-.527343-.3125-.683593-.507812-.148438-.195313-.246094-.433594-.292969-.722656-.039062-.195313-.058594-.507813-.058594-.9375v-3.613282h.976563v3.242188c0 .523437.023437.871094.078125 1.035156.046875.265625.175781.46875.371094.625.203124.148438.457031.214844.761718.214844.296875 0 .574219-.066406.839844-.214844.257812-.15625.4375-.359375.546875-.625.101563-.257812.15625-.644531.15625-1.152344v-3.125h.996094v5.839844zm0 0"/><path d="m40.417969 18.808594.136719.859375c-.289063.0625-.539063.097656-.742188.097656-.367188 0-.644531-.058594-.839844-.175781-.195312-.117188-.34375-.261719-.429687-.449219-.078125-.179687-.117188-.566406-.117188-1.152344v-3.359375h-.722656v-.78125h.722656v-1.445312l.996094-.585938v2.03125h.996094v.78125h-.996094v3.398438c0 .289062.007813.46875.039063.546875.039062.078125.097656.144531.175781.195312.078125.054688.183593.078125.332031.078125.117188 0 .261719-.011718.449219-.039062zm0 0"/><path d="m44.480469 19.6875v-8.046875h.976562v8.046875zm0 0"/><path d="m50.808594 18.964844c-.367188.3125-.71875.535156-1.054688.664062-.34375.128906-.703125.195313-1.09375.195313-.640625 0-1.132812-.15625-1.484375-.46875-.34375-.3125-.507812-.714844-.507812-1.210938 0-.285156.0625-.546875.195312-.78125.125-.234375.296875-.417969.507813-.566406.203125-.140625.4375-.253906.703125-.332031.195312-.039063.488281-.082032.878906-.136719.804687-.085937 1.394531-.203125 1.777344-.351563 0-.125 0-.214843 0-.253906 0-.402344-.09375-.683594-.273438-.839844-.265625-.234374-.640625-.351562-1.132812-.351562-.46875 0-.816407.085938-1.035157.253906-.226562.15625-.386718.445313-.488281.859375l-.957031-.117187c.078125-.414063.214844-.746094.410156-.996094.203125-.257812.496094-.453125.878906-.585938.390626-.140624.828126-.214843 1.328126-.214843.507812 0 .90625.058593 1.210937.175781.3125.117188.535156.269531.683594.449219.15625.171875.257812.390625.3125.664062.039062.171875.058593.46875.058593.898438v1.328125c0 .914062.019532 1.496094.058594 1.738281.039063.25.121094.484375.253906.703125h-1.035156c-.109375-.203125-.171875-.449219-.195312-.722656zm-.078125-2.207032c-.367188.148438-.910157.269532-1.621094.371094-.40625.066406-.695313.136719-.859375.214844-.171875.070312-.304688.171875-.390625.3125-.09375.148438-.136719.304688-.136719.46875 0 .265625.097656.484375.292969.664062.195313.171876.488281.253907.878906.253907.375 0 .710938-.082031 1.015625-.253907.296875-.164062.515625-.394531.664063-.683593.101562-.21875.15625-.546875.15625-.976563zm0 0"/><path d="m53.21875 21.933594-.117188-.917969c.21875.046875.410157.078125.566407.078125.21875 0 .394531-.039062.527343-.117188.125-.070312.238282-.164062.332032-.292968.046875-.105469.144531-.351563.292968-.742188.023438-.054687.058594-.132812.097657-.234375l-2.226563-5.859375h1.074219l1.210937 3.378906c.15625.429688.296876.878907.429688 1.347657.101562-.441407.234375-.882813.390625-1.328125l1.25-3.398438h.996094l-2.226563 5.9375c-.234375.636719-.421875 1.078125-.546875 1.328125-.1875.324219-.386719.558594-.605469.703125-.226562.15625-.5.234375-.820312.234375-.1875 0-.390625-.039062-.625-.117187zm0 0"/><path d="m62.867188 17.8125 1.035156.117188c-.171875.601562-.480469 1.070312-.917969 1.40625-.429687.328124-.988281.488281-1.660156.488281-.851563 0-1.523438-.257813-2.03125-.78125-.5-.53125-.742188-1.273438-.742188-2.226563 0-.976562.253907-1.730468.761719-2.265625.507812-.546875 1.160156-.820312 1.972656-.820312.78125 0 1.410156.269531 1.894532.800781.492187.523438.742187 1.265625.742187 2.226562v.273438h-4.355469c.039063.640625.21875 1.128906.546875 1.464844.320313.339844.730469.507812 1.230469.507812.359375 0 .667969-.089844.917969-.273437.257812-.195313.457031-.496094.605469-.917969zm-3.242188-1.601562h3.261719c-.039063-.492188-.167969-.863282-.371094-1.113282-.3125-.375-.722656-.566406-1.230469-.566406-.460937 0-.839844.15625-1.152344.46875-.304687.304688-.46875.703125-.507812 1.210938zm0 0"/><path d="m65.117188 19.6875v-5.839844h.898437v.898438c.222656-.414063.429687-.6875.625-.820313.195313-.128906.410156-.195312.644531-.195312.324219 0 .664063.105469 1.015625.3125l-.351562.917969c-.234375-.140626-.476563-.214844-.722657-.214844-.207031 0-.402343.066406-.585937.195312-.167969.132813-.292969.3125-.371094.546875-.105469.351563-.15625.738281-.15625 1.152344v3.046875zm0 0"/><path d="m282.640625 138.484375c4.98125 4.98125 4.98125 13.05 0 18.03125s-13.05 4.98125-18.03125 0-4.98125-13.05 0-18.03125 13.05-4.98125 18.03125 0" fill="#b2d9ff" stroke="#000" stroke-linecap="round" stroke-linejoin="round" stroke-miterlimit="10" transform="matrix(1.25 0 0 1.25 -30 -92.5)"/><path d="m310.394531 89.765625c-.15625-.78125-.292969-.976563-.566406-.976563s-.644531.078126-1.328125.332032l-.117188.039062.039063.175782.195313-.058594c.214843-.058594.351562-.078125.429687-.078125.292969 0 .371094.097656.527344.761719l.3125 1.40625-.917969 1.308593c-.234375.332031-.449219.546875-.585938.546875-.058593 0-.175781-.039062-.292968-.097656-.136719-.078125-.253906-.136719-.351563-.136719-.214843 0-.390625.195313-.390625.410157 0 .292968.214844.46875.566406.46875.351563 0 .585938-.097657 1.074219-.761719l.996094-1.328125.3125 1.328125c.136719.566406.3125.761719.664063.761719.429687 0 .722656-.253907 1.386718-1.269532l-.175781-.117187c-.097656.117187-.136719.195312-.234375.332031-.253906.332031-.390625.449219-.527344.449219-.15625 0-.253906-.15625-.332031-.46875l-.371094-1.503907c-.058593-.273437-.097656-.429687-.097656-.507812.507813-.859375.917969-1.367188 1.113281-1.367188.273438 0 .371094.195313.585938.195313s.371094-.175781.371094-.410156-.175782-.410157-.449219-.410157c-.488281 0-.917969.410157-1.699219 1.601563zm0 0"/><path d="m316.558594 92.382812c-.390625.078126-.664063.117188-1.152344.175782v.117187c.410156.019531.488281.039063.488281.195313 0 .097656 0 .136718-.097656.527344l-.351563 1.230468c-.039062-.292968-.175781-.429687-.488281-.429687-.976562 0-2.1875 1.289062-2.1875 2.5 0 .566406.3125.878906.800781.878906.507813 0 .898438-.234375 1.328126-.976563-.078126.371094-.097657.488282-.097657.664063 0 .195313.117188.332031.3125.332031.371094 0 .742188-.3125 1.09375-.859375l-.078125-.078125c-.410156.46875-.488281.546875-.625.546875-.097656 0-.136718-.058593-.136718-.15625 0-.117187.253906-.996093.488281-1.855469l.449219-1.640624.292968-1.132813zm-1.230469 2.402344c0 1.152344-.78125 2.441406-1.484375 2.441406-.253906 0-.429688-.214843-.429688-.546874 0-.625.371094-1.445313.878907-1.972657.195312-.214843.46875-.351562.683593-.351562.15625 0 .351563.175781.351563.429687zm0 0"/><path d="m202.640625 78.234375c4.98125 4.98125 4.98125 13.05 0 18.03125s-13.05 4.98125-18.03125 0-4.98125-13.05 0-18.03125 13.05-4.98125 18.03125 0" fill="#66bfff" stroke="#000" stroke-linecap="round" stroke-linejoin="round" stroke-miterlimit="10" transform="matrix(1.25 0 0 1.25 -30 -92.5)"/><path d="m212.617188 15.058594c0-.996094-.683594-1.582032-1.601563-1.582032-.449219 0-.898437.097657-1.347656.332032-1.171875.644531-2.011719 1.933594-2.011719 3.183594 0 .976562.585938 1.5625 1.640625 1.5625.742187 0 1.464844-.273438 2.128906-.917969.742188-.742188 1.191407-1.738281 1.191407-2.578125zm-.957032-.292969c0 .859375-.3125 1.914063-.820312 2.617187-.449219.625-.878906.9375-1.367188.9375-.527344 0-.878906-.351562-.878906-1.015624 0-.898438.3125-1.777344.839844-2.578126.449218-.664062.9375-1.015624 1.425781-1.015624s.800781.371093.800781 1.054687zm0 0"/><path d="m215.917969 22.1875v-.117188c-.566407 0-.703125-.136718-.703125-.449218v-4.472656l-.078125-.039063-1.328125.683594v.117187l.195312-.078125c.136719-.058593.253906-.097656.332032-.097656.15625 0 .234374.117187.234374.371094v3.378906c0 .410156-.15625.566406-.722656.585937v.117188zm0 0"/><g fill="none" stroke="#000" stroke-miterlimit="10" transform="matrix(1.25 0 0 1.25 -30 -92.5)"><path d="m125.075 140.434375 53.815625-41.75" stroke-linecap="round" stroke-linejoin="round"/><path d="m182.05 96.23125-3.159375 2.453125m-.921875-1.1875 4.08125-1.265625-2.240625 3.6375"/><path d="m172.8375 136.5 13.534375-32.065625" stroke-linecap="round" stroke-linejoin="round"/><path d="m187.925 100.75-1.553125 3.684375m-1.384375-.584375 2.9375-3.1-.171875 4.26875"/><path d="m263.4375 139.828125-54.9125-41.35625" stroke-linecap="round" stroke-linejoin="round"/><path d="m205.328125 96.0625 3.196875 2.409375m-.903125 1.196875-2.29375-3.60625 4.096875 1.2125"/></g><path d="m253.691406 94.140625c0-.605469-.507812-1.132813-1.09375-1.132813-.625 0-1.113281.488282-1.113281 1.113282s.46875 1.09375 1.09375 1.09375c.605469 0 1.113281-.488282 1.113281-1.074219zm-6.660156 0c0-.605469-.507812-1.132813-1.09375-1.132813-.625 0-1.113281.488282-1.113281 1.113282s.46875 1.09375 1.09375 1.09375c.605469 0 1.113281-.488282 1.113281-1.074219zm-6.660156 0c0-.605469-.507813-1.132813-1.09375-1.132813-.625 0-1.113282.488282-1.113282 1.113282s.46875 1.09375 1.09375 1.09375c.605469 0 1.113282-.488282 1.113282-1.074219zm0 0"/></svg>